<?xml version="1.0" encoding="UTF-8"?><svg xmlns="http://www.w3.org/2000/svg" xmlns:xlink="http://www.w3.org/1999/xlink" viewBox="293.4 275.7 205.3 60.7"><path fill-rule="nonzero" fill="rgb(92.156982%, 0%, 27.058411%)" fill-opacity="1" d="M 343.6 277.7 L 340.7 277.7 C 339.2 277.7 337.9 278.9 337.9 280.5 L 337.9 291.8 C 337.9 301.2 330.3 308.8 320.9 308.8 C 317.8 308.8 315.0 310.0 312.9 312.2 C 311.9 313.1 311.2 314.2 310.6 315.3 C 310.2 316.3 310.9 317.3 311.9 317.3 L 329.8 317.3 C 330.9 317.3 331.6 316.3 331.1 315.3 C 330.6 314.2 329.8 313.1 328.9 312.2 C 328.0 311.2 326.9 310.5 325.7 309.9 C 325.6 309.9 325.6 309.6 325.8 309.6 C 326.5 309.4 327.3 309.1 328.1 308.8 C 329.2 308.3 330.3 307.7 331.4 307.0 C 331.4 306.9 331.5 306.9 331.6 307.0 C 335.4 310.1 337.9 314.8 337.9 320.2 L 337.9 331.5 C 337.9 333.1 339.2 334.3 340.7 334.3 L 343.6 334.3 C 345.1 334.3 346.4 333.1 346.4 331.5 L 346.4 280.5 C 346.4 278.9 345.1 277.7 343.6 277.7 M 330.8 289 C 331.6 289 332.2 288.4 332.2 287.6 L 332.2 284.7 C 332.2 284.0 331.6 283.3 330.8 283.3 L 311.0 283.3 C 310.2 283.3 309.5 284.0 309.5 284.7 L 309.5 287.6 C 309.5 288.4 310.2 289 311.0 289 Z M 330.8 289 "/><path fill-rule="nonzero" fill="rgb(55.686951%, 8.235168%, 21.568298%)" fill-opacity="1" d="M 320.9 303.2 C 323.9 303.2 326.8 302.0 328.9 299.8 C 329.8 298.9 330.6 297.8 331.1 296.7 C 331.6 295.7 330.9 294.7 329.8 294.7 L 311.9 294.7 C 310.9 294.7 310.2 295.7 310.6 296.7 C 311.2 297.8 311.9 298.9 312.9 299.8 C 313.9 300.9 315.1 301.7 316.5 302.3 C 315.5 302.5 314.6 302.8 313.7 303.2 C 312.5 303.7 311.3 304.4 310.3 305.1 C 306.4 302.0 303.9 297.2 303.9 291.8 L 303.9 280.5 C 303.9 278.9 302.6 277.7 301.0 277.7 L 298.2 277.7 C 296.6 277.7 295.4 278.9 295.4 280.5 L 295.4 331.5 C 295.4 333.1 296.6 334.3 298.2 334.3 L 301.0 334.3 C 302.6 334.3 303.9 333.1 303.9 331.5 L 303.9 320.2 C 303.9 310.8 311.5 303.2 320.9 303.2 M 330.8 323 L 311.0 323 C 310.2 323 309.5 323.6 309.5 324.4 L 309.5 327.3 C 309.5 328.0 310.2 328.7 311.0 328.7 L 330.8 328.7 C 331.6 328.7 332.2 328.0 332.2 327.3 L 332.2 324.4 C 332.2 323.6 331.6 323 330.8 323 "/><path fill-rule="nonzero" fill="rgb(92.156982%, 0%, 27.058411%)" fill-opacity="1" d="M 369.9 304.3 L 362.7 304.3 L 362.7 298.7 C 362.7 298.4 362.5 298.2 362.3 298.2 L 361.0 298.2 C 360.8 298.2 360.6 298.4 360.6 298.7 L 360.6 312.2 C 360.6 312.4 360.8 312.6 361.0 312.6 L 362.3 312.6 C 362.5 312.6 362.7 312.4 362.7 312.2 L 362.7 306.1 L 369.9 306.1 L 369.9 312.2 C 369.9 312.4 370.1 312.6 370.3 312.6 L 371.5 312.6 C 371.8 312.6 372.0 312.4 372.0 312.2 L 372.0 298.7 C 372.0 298.4 371.8 298.2 371.5 298.2 L 370.3 298.2 C 370.1 298.2 369.9 298.4 369.9 298.7 Z M 380.0 311.2 C 379.1 311.2 378.3 310.9 377.7 310.3 C 377.0 309.6 376.7 308.8 376.6 307.8 L 384.5 307.8 C 384.7 307.8 384.9 307.6 384.9 307.4 C 384.9 307.3 384.9 307.3 384.9 307.2 C 384.9 305.6 384.5 304.3 383.5 303.2 C 382.6 302.2 381.4 301.7 379.8 301.7 C 378.8 301.7 377.9 301.9 377.1 302.4 C 376.3 302.9 375.7 303.6 375.2 304.5 C 374.8 305.3 374.6 306.3 374.6 307.3 C 374.6 309.0 375.1 310.4 376.1 311.4 C 377.1 312.5 378.4 313 379.9 313.0 C 381.0 313.0 381.9 312.8 382.8 312.4 C 383.5 312.1 384.2 311.6 384.7 311.1 C 384.8 310.9 384.8 310.6 384.6 310.4 L 384.0 309.8 C 383.8 309.6 383.5 309.6 383.4 309.8 C 382.4 310.8 381.3 311.2 380.0 311.2 M 377.6 304.2 C 378.1 303.7 378.9 303.4 379.8 303.4 C 380.7 303.4 381.4 303.7 381.9 304.2 C 382.4 304.6 382.7 305.2 382.8 306.0 C 382.8 306.2 382.7 306.3 382.6 306.3 L 376.6 306.3 C 376.7 305.4 377.0 304.7 377.6 304.2 M 399.6 301.7 C 398.7 301.7 397.9 301.9 397.3 302.3 C 396.6 302.6 396.2 303.1 395.9 303.5 L 395.8 303.5 C 395.2 302.3 394.1 301.7 392.5 301.7 C 391.8 301.7 391.1 301.9 390.5 302.2 C 389.9 302.5 389.5 302.9 389.2 303.4 L 389.2 303.4 L 389.2 302.5 C 389.2 302.2 389.0 302.1 388.8 302.1 L 387.7 302.1 C 387.5 302.1 387.3 302.2 387.3 302.5 C 387.3 302.9 387.3 303.3 387.3 303.8 L 387.3 312.2 C 387.3 312.4 387.5 312.6 387.7 312.6 L 388.8 312.6 C 389.1 312.6 389.3 312.4 389.3 312.2 L 389.3 306.2 C 389.3 305.4 389.5 304.8 390.0 304.3 C 390.4 303.7 391.1 303.5 391.9 303.5 C 392.8 303.5 393.4 303.7 393.8 304.3 C 394.2 304.8 394.4 305.5 394.4 306.6 L 394.4 312.2 C 394.4 312.4 394.6 312.6 394.8 312.6 L 395.9 312.6 C 396.2 312.6 396.4 312.4 396.4 312.2 L 396.4 306.2 C 396.4 305.4 396.6 304.8 397.1 304.3 C 397.5 303.7 398.2 303.5 399.0 303.5 C 399.9 303.5 400.5 303.7 400.9 304.3 C 401.2 304.8 401.4 305.5 401.4 306.6 L 401.4 312.2 C 401.4 312.4 401.6 312.6 401.9 312.6 L 403.0 312.6 C 403.3 312.6 403.5 312.4 403.5 312.2 L 403.5 306.0 C 403.5 304.7 403.1 303.6 402.4 302.9 C 401.8 302.1 400.8 301.7 399.6 301.7 M 416 302.1 L 414.9 302.1 C 414.7 302.1 414.5 302.2 414.5 302.5 L 414.5 303.4 L 414.5 303.4 C 413.7 302.3 412.5 301.7 410.9 301.7 C 409.9 301.7 409.0 301.9 408.2 302.4 C 407.4 302.9 406.8 303.6 406.4 304.5 C 405.9 305.3 405.7 306.3 405.7 307.3 C 405.7 308.4 405.9 309.4 406.3 310.2 C 406.8 311.1 407.4 311.8 408.2 312.3 C 409.0 312.8 409.9 313.0 410.9 313.0 C 411.6 313.0 412.3 312.8 413.0 312.5 C 413.7 312.2 414.2 311.8 414.6 311.3 L 414.6 311.3 L 414.6 312.2 C 414.6 312.4 414.8 312.6 415.1 312.6 L 416.0 312.6 C 416.2 312.6 416.4 312.4 416.4 312.2 C 416.4 312.0 416.4 311.8 416.4 311.5 L 416.4 302.5 C 416.4 302.2 416.2 302.1 416 302.1 M 413.7 310.1 C 413.0 310.9 412.2 311.2 411.2 311.2 C 410.2 311.2 409.4 310.9 408.7 310.1 C 408.1 309.4 407.8 308.5 407.8 307.3 C 407.8 306.2 408.1 305.3 408.7 304.6 C 409.4 303.8 410.2 303.5 411.2 303.5 C 412.2 303.5 413.1 303.8 413.7 304.5 C 414.3 305.3 414.6 306.2 414.6 307.3 C 414.6 308.5 414.3 309.4 413.7 310.1 M 422.6 311.0 C 422.0 311.0 421.6 310.8 421.3 310.5 C 421.0 310.2 420.9 309.8 420.9 309.2 L 420.9 303.8 L 423.5 303.8 C 423.8 303.8 423.9 303.6 423.9 303.3 L 423.9 302.5 C 423.9 302.2 423.8 302.1 423.5 302.1 L 420.9 302.1 L 420.9 299.6 C 420.9 299.4 420.7 299.2 420.5 299.2 L 419.4 299.2 C 419.2 299.2 419.0 299.4 419.0 299.6 L 419.0 309.3 C 419.0 310.3 419.3 311.2 419.8 311.7 C 420.4 312.3 421.3 312.6 422.3 312.6 C 422.8 312.6 423.2 312.5 423.6 312.4 C 423.9 312.3 424.2 312.2 424.4 312.1 C 424.6 312.0 424.6 311.7 424.5 311.5 L 424.3 310.9 C 424.2 310.7 423.9 310.6 423.7 310.7 C 423.3 310.9 423.0 311.0 422.6 311.0 M 434.2 302.4 C 433.3 301.9 432.4 301.7 431.3 301.7 C 430.2 301.7 429.3 301.9 428.4 302.4 C 427.6 302.9 426.9 303.6 426.4 304.4 C 426.0 305.3 425.7 306.3 425.7 307.4 C 425.7 309.0 426.2 310.4 427.3 311.4 C 428.3 312.5 429.7 313 431.3 313.0 C 432.1 313.0 432.9 312.9 433.6 312.6 C 434.2 312.3 434.8 311.9 435.3 311.4 C 435.8 310.9 436.2 310.3 436.5 309.6 C 436.7 308.9 436.9 308.2 436.9 307.4 C 436.9 306.3 436.6 305.3 436.2 304.4 C 435.7 303.6 435.0 302.9 434.2 302.4 M 433.8 310.1 C 433.2 310.9 432.3 311.2 431.3 311.2 C 430.3 311.2 429.4 310.9 428.8 310.1 C 428.1 309.4 427.8 308.5 427.8 307.4 C 427.8 306.3 428.1 305.3 428.8 304.6 C 429.5 303.8 430.3 303.5 431.3 303.5 C 432.3 303.5 433.1 303.8 433.8 304.6 C 434.5 305.3 434.8 306.3 434.8 307.4 C 434.8 308.5 434.5 309.4 433.8 310.1 M 439.7 312.6 L 440.8 312.6 C 441.0 312.6 441.2 312.4 441.2 312.2 L 441.2 298.7 C 441.2 298.4 441.0 298.2 440.8 298.2 L 439.7 298.2 C 439.4 298.2 439.2 298.4 439.2 298.7 L 439.2 312.2 C 439.2 312.4 439.4 312.6 439.7 312.6 M 452.1 298.2 L 450.1 298.2 C 450.0 298.2 450.0 298.2 449.9 298.3 L 447.9 300.4 C 447.8 300.5 447.9 300.8 448.1 300.8 L 449.7 300.8 C 449.7 300.8 449.8 300.7 449.8 300.7 L 452.2 298.6 C 452.4 298.5 452.3 298.2 452.1 298.2 M 452.1 302.4 C 451.2 301.9 450.2 301.7 449.2 301.7 C 448.1 301.7 447.1 301.9 446.3 302.4 C 445.4 302.9 444.8 303.6 444.3 304.4 C 443.8 305.3 443.6 306.3 443.6 307.4 C 443.6 309.0 444.1 310.4 445.2 311.4 C 446.2 312.5 447.5 313 449.2 313.0 C 450.0 313.0 450.7 312.9 451.4 312.6 C 452.1 312.3 452.7 311.9 453.2 311.4 C 453.7 310.9 454.1 310.3 454.3 309.6 C 454.6 308.9 454.7 308.2 454.7 307.4 C 454.7 306.3 454.5 305.3 454.0 304.4 C 453.6 303.6 452.9 302.9 452.1 302.4 M 451.7 310.1 C 451.0 310.9 450.2 311.2 449.2 311.2 C 448.2 311.2 447.3 310.9 446.7 310.1 C 446.0 309.4 445.7 308.5 445.7 307.4 C 445.7 306.3 446.0 305.3 446.7 304.6 C 447.3 303.8 448.2 303.5 449.2 303.5 C 450.2 303.5 451.0 303.8 451.7 304.6 C 452.3 305.3 452.6 306.3 452.6 307.4 C 452.6 308.5 452.3 309.4 451.7 310.1 M 465.5 302.1 C 465.2 302.1 465.0 302.2 465.0 302.5 L 465.0 303.2 L 465 303.2 C 464.6 302.8 464.1 302.4 463.5 302.1 C 462.9 301.9 462.2 301.7 461.5 301.7 C 460.5 301.7 459.6 301.9 458.9 302.4 C 458.1 302.8 457.5 303.4 457.0 304.2 C 456.6 305.0 456.4 305.9 456.4 306.9 C 456.4 307.8 456.6 308.7 457.0 309.5 C 457.4 310.3 458.0 310.9 458.8 311.4 C 459.6 311.8 460.4 312.1 461.4 312.1 C 462.1 312.1 462.8 311.9 463.5 311.6 C 464.2 311.2 464.7 310.9 465.1 310.4 L 465.1 310.4 C 465.1 310.6 465.1 310.9 465.1 311.2 C 465.1 312.4 464.8 313.3 464.1 313.8 C 463.5 314.4 462.6 314.7 461.6 314.7 C 460.3 314.7 459.1 314.2 458.1 313.4 C 457.9 313.2 457.7 313.3 457.5 313.4 L 456.8 314.3 C 456.6 314.5 456.6 314.8 456.8 314.9 C 458.1 315.9 459.7 316.4 461.4 316.4 C 462.2 316.4 462.9 316.3 463.6 316.1 C 464.2 315.9 464.8 315.6 465.3 315.2 C 465.8 314.8 466.2 314.3 466.5 313.6 C 466.8 313.0 466.9 312.2 466.9 311.3 L 466.9 303.5 L 466.9 302.6 L 466.9 302.5 C 466.9 302.2 466.7 302.1 466.5 302.1 Z M 464.2 309.3 C 463.5 310.0 462.7 310.3 461.7 310.3 C 460.8 310.3 460.0 310.0 459.4 309.4 C 458.8 308.7 458.5 307.9 458.5 306.9 C 458.5 305.9 458.8 305.1 459.4 304.4 C 460.0 303.8 460.8 303.4 461.7 303.5 C 462.7 303.5 463.6 303.8 464.2 304.4 C 464.8 305.1 465.1 305.9 465.1 306.9 C 465.1 307.9 464.8 308.7 464.2 309.3 M 470.5 312.6 L 471.6 312.6 C 471.8 312.6 472.0 312.4 472.0 312.2 L 472.0 302.5 C 472.0 302.2 471.8 302.1 471.6 302.1 L 470.5 302.1 C 470.2 302.1 470.0 302.2 470.0 302.5 L 470.0 312.2 C 470.0 312.4 470.2 312.6 470.5 312.6 M 471.0 298.0 C 470.6 298.0 470.3 298.2 470.1 298.4 C 469.8 298.6 469.7 299.0 469.7 299.3 C 469.7 299.7 469.8 300.0 470.1 300.2 C 470.3 300.5 470.6 300.6 471.0 300.6 C 471.4 300.6 471.7 300.5 472.0 300.2 C 472.2 300.0 472.3 299.7 472.3 299.3 C 472.3 299.0 472.2 298.6 472.0 298.4 C 471.7 298.2 471.4 298.0 471.0 298.0 M 480.0 311.2 C 479.0 311.2 478.1 310.8 477.5 310.1 C 476.9 309.4 476.5 308.5 476.5 307.4 C 476.5 306.3 476.8 305.3 477.5 304.6 C 478.2 303.9 479.0 303.5 480.0 303.5 C 481.0 303.5 481.8 303.9 482.5 304.7 C 482.6 304.8 482.9 304.9 483.1 304.7 L 484.0 304.0 C 484.2 303.9 484.2 303.6 484.0 303.4 C 483.1 302.3 481.7 301.7 480.0 301.7 C 478.9 301.7 477.9 301.9 477.1 302.4 C 476.2 302.9 475.6 303.6 475.1 304.5 C 474.6 305.3 474.4 306.3 474.4 307.4 C 474.4 308.5 474.6 309.4 475.1 310.3 C 475.6 311.1 476.2 311.8 477.0 312.3 C 477.9 312.8 478.8 313.0 479.8 313.0 C 480.8 313.0 481.7 312.8 482.4 312.5 C 483.1 312.2 483.6 311.8 484.1 311.3 C 484.2 311.1 484.2 310.8 484.0 310.7 L 483.2 310.0 C 483.0 309.8 482.8 309.8 482.6 310.0 C 481.9 310.8 481.0 311.2 480.0 311.2 M 495.9 304.4 C 495.5 303.6 494.8 302.9 493.9 302.4 C 493.1 301.9 492.1 301.7 491.1 301.7 C 490.0 301.7 489.0 301.9 488.2 302.4 C 487.3 302.9 486.7 303.6 486.2 304.4 C 485.7 305.3 485.5 306.3 485.5 307.4 C 485.5 309.0 486.0 310.4 487.1 311.4 C 488.1 312.5 489.4 313 491.1 313.0 C 491.9 313.0 492.6 312.9 493.3 312.6 C 494.0 312.3 494.6 311.9 495.1 311.4 C 495.6 310.9 496.0 310.3 496.2 309.6 C 496.5 308.9 496.6 308.2 496.6 307.4 C 496.6 306.3 496.4 305.3 495.9 304.4 M 493.6 310.1 C 492.9 310.9 492.1 311.2 491.1 311.2 C 490.1 311.2 489.2 310.9 488.6 310.1 C 487.9 309.4 487.6 308.5 487.6 307.4 C 487.6 306.3 487.9 305.3 488.6 304.6 C 489.2 303.8 490.1 303.5 491.1 303.5 C 492.1 303.5 492.9 303.8 493.6 304.6 C 494.2 305.3 494.5 306.3 494.5 307.4 C 494.5 308.5 494.2 309.4 493.6 310.1 "/><path fill-rule="nonzero" fill="rgb(55.686951%, 8.235168%, 21.568298%)" fill-opacity="1" d="M 361.5 284.2 L 360.8 284.2 C 360.7 284.2 360.6 284.3 360.6 284.4 L 360.6 292.0 C 360.6 292.2 360.7 292.3 360.8 292.3 L 365.1 292.3 C 365.2 292.3 365.3 292.2 365.3 292.0 L 365.3 291.5 C 365.3 291.4 365.2 291.3 365.1 291.3 L 362.0 291.3 C 361.9 291.3 361.8 291.2 361.8 291.0 L 361.8 284.4 C 361.8 284.3 361.7 284.2 361.5 284.2 M 371.6 286.3 L 371.0 286.3 C 370.9 286.3 370.8 286.5 370.8 286.6 L 370.8 287.1 L 370.8 287.1 C 370.3 286.5 369.6 286.2 368.8 286.2 C 368.2 286.2 367.7 286.3 367.3 286.6 C 366.8 286.8 366.5 287.2 366.2 287.7 C 366.0 288.2 365.8 288.7 365.9 289.3 C 365.8 289.9 366.0 290.5 366.2 290.9 C 366.4 291.4 366.8 291.8 367.2 292.1 C 367.7 292.4 368.2 292.5 368.8 292.5 C 369.2 292.5 369.6 292.4 370.0 292.2 C 370.3 292.1 370.6 291.8 370.8 291.6 L 370.9 291.6 L 370.9 292.0 C 370.9 292.2 371.0 292.3 371.1 292.3 L 371.6 292.3 C 371.8 292.3 371.9 292.2 371.9 292.0 C 371.9 291.1 371.9 287.6 371.9 286.6 C 371.9 286.5 371.8 286.3 371.6 286.3 M 370.3 290.9 C 370.0 291.3 369.5 291.5 368.9 291.5 C 368.4 291.5 367.9 291.3 367.5 290.9 C 367.2 290.5 367.0 290.0 367.0 289.3 C 367.0 288.7 367.2 288.2 367.5 287.8 C 367.9 287.3 368.4 287.1 368.9 287.1 C 369.5 287.1 370.0 287.3 370.3 287.8 C 370.7 288.1 370.8 288.7 370.8 289.3 C 370.8 290.0 370.7 290.5 370.3 290.9 M 378.3 286.6 C 377.8 286.3 377.3 286.2 376.8 286.2 C 376.3 286.2 376.0 286.2 375.6 286.4 C 375.3 286.6 375.0 286.8 374.8 287.1 L 374.7 287.1 C 374.8 286.6 374.8 286.0 374.8 285.4 L 374.8 284.4 C 374.8 284.3 374.6 284.2 374.5 284.2 L 373.9 284.2 C 373.7 284.2 373.6 284.3 373.6 284.4 L 373.6 292.0 C 373.6 292.2 373.7 292.3 373.9 292.3 L 374.4 292.3 C 374.6 292.3 374.7 292.2 374.7 292.0 L 374.7 291.6 C 374.9 291.8 375.2 292.1 375.6 292.2 C 375.9 292.4 376.3 292.5 376.8 292.5 C 377.3 292.5 377.8 292.4 378.2 292.1 C 378.7 291.8 379.1 291.4 379.3 291.0 C 379.6 290.5 379.7 289.9 379.7 289.4 C 379.7 288.7 379.6 288.2 379.3 287.7 C 379.1 287.2 378.7 286.8 378.3 286.6 M 378.0 290.9 C 377.6 291.3 377.2 291.5 376.6 291.5 C 376 291.5 375.5 291.3 375.2 290.9 C 374.8 290.5 374.7 289.9 374.7 289.3 C 374.7 288.7 374.8 288.2 375.2 287.8 C 375.5 287.3 376.0 287.1 376.6 287.1 C 377.2 287.1 377.6 287.3 378.0 287.8 C 378.3 288.2 378.5 288.7 378.5 289.3 C 378.5 289.9 378.3 290.5 378.0 290.9 M 385.3 286.6 C 384.9 286.3 384.3 286.2 383.7 286.2 C 383.1 286.2 382.6 286.3 382.1 286.6 C 381.6 286.8 381.3 287.2 381.0 287.7 C 380.7 288.2 380.6 288.7 380.6 289.4 C 380.6 290.3 380.9 291.0 381.5 291.6 C 382.1 292.2 382.8 292.5 383.7 292.5 C 384.2 292.5 384.6 292.4 385.0 292.3 C 385.4 292.1 385.7 291.9 386.0 291.6 C 386.3 291.3 386.5 291.0 386.6 290.6 C 386.8 290.2 386.9 289.8 386.9 289.4 C 386.9 288.7 386.7 288.2 386.5 287.7 C 386.2 287.2 385.8 286.8 385.3 286.6 M 385.1 290.9 C 384.8 291.3 384.3 291.5 383.7 291.5 C 383.2 291.5 382.7 291.3 382.3 290.9 C 382.0 290.5 381.8 290.0 381.8 289.3 C 381.8 288.7 382.0 288.2 382.3 287.8 C 382.7 287.3 383.2 287.1 383.7 287.1 C 384.3 287.1 384.8 287.3 385.1 287.8 C 385.5 288.2 385.7 288.7 385.7 289.3 C 385.7 290.0 385.5 290.5 385.1 290.9 M 389.8 286.4 C 389.6 286.6 389.4 286.8 389.3 287.1 L 389.3 287.1 L 389.3 286.6 C 389.3 286.5 389.2 286.3 389.0 286.3 L 388.4 286.3 C 388.3 286.3 388.2 286.5 388.2 286.6 C 388.2 286.8 388.2 287.1 388.2 287.3 L 388.2 292.0 C 388.2 292.2 388.3 292.3 388.4 292.3 L 389.1 292.3 C 389.2 292.3 389.3 292.2 389.3 292.0 L 389.3 289.2 C 389.3 288.9 389.3 288.7 389.4 288.5 C 389.4 288.3 389.4 288.1 389.5 288.0 C 389.5 287.8 389.6 287.7 389.7 287.6 C 389.8 287.5 389.9 287.4 390.1 287.3 C 390.2 287.3 390.4 287.2 390.6 287.2 C 390.7 287.2 390.8 287.2 390.9 287.2 C 391.0 287.3 391.0 287.2 391.0 287.1 L 391.0 286.3 C 391.0 286.3 391.0 286.2 390.9 286.2 C 390.8 286.2 390.8 286.2 390.7 286.2 C 390.4 286.2 390.1 286.3 389.8 286.4 M 397.3 286.3 L 396.7 286.3 C 396.5 286.3 396.4 286.5 396.4 286.6 L 396.4 287.1 L 396.4 287.1 C 395.9 286.5 395.3 286.2 394.4 286.2 C 393.8 286.2 393.3 286.3 392.9 286.6 C 392.4 286.8 392.1 287.2 391.8 287.7 C 391.6 288.2 391.5 288.7 391.5 289.3 C 391.5 289.9 391.6 290.5 391.8 290.9 C 392.1 291.4 392.4 291.8 392.9 292.1 C 393.3 292.4 393.8 292.5 394.4 292.5 C 394.8 292.5 395.2 292.4 395.6 292.2 C 396.0 292.1 396.3 291.8 396.5 291.6 L 396.5 291.6 L 396.5 292.0 C 396.5 292.2 396.6 292.3 396.7 292.3 L 397.3 292.3 C 397.4 292.3 397.5 292.2 397.5 292.0 C 397.5 291.9 397.5 286.6 397.5 286.6 C 397.5 286.5 397.4 286.3 397.3 286.3 M 395.9 290.9 C 395.6 291.3 395.1 291.5 394.6 291.5 C 394.0 291.5 393.5 291.3 393.2 290.9 C 392.8 290.5 392.6 290.0 392.7 289.3 C 392.6 288.7 392.8 288.2 393.2 287.8 C 393.5 287.3 394.0 287.1 394.6 287.1 C 395.1 287.1 395.6 287.3 395.9 287.8 C 396.3 288.1 396.5 288.7 396.5 289.3 C 396.5 290.0 396.3 290.5 395.9 290.9 M 400.4 284.7 L 399.8 284.7 C 399.6 284.7 399.5 284.8 399.5 285.0 L 399.5 286.3 L 399.0 286.3 C 398.9 286.3 398.8 286.5 398.8 286.6 L 398.8 287.1 C 398.8 287.2 398.9 287.3 399.0 287.3 L 399.5 287.3 L 399.5 292.0 C 399.5 292.2 399.6 292.3 399.8 292.3 L 400.4 292.3 C 400.6 292.3 400.7 292.2 400.7 292.0 L 400.7 287.3 L 402.1 287.3 C 402.2 287.3 402.4 287.2 402.4 287.1 L 402.4 286.6 C 402.4 286.5 402.2 286.3 402.1 286.3 L 400.7 286.3 L 400.7 285.0 C 400.7 284.8 400.6 284.7 400.4 284.7 M 407.5 286.6 C 407.0 286.3 406.5 286.2 405.9 286.2 C 405.3 286.2 404.7 286.3 404.2 286.6 C 403.8 286.8 403.4 287.2 403.1 287.7 C 402.9 288.2 402.7 288.7 402.7 289.4 C 402.7 290.3 403.0 291.0 403.6 291.6 C 404.2 292.2 404.9 292.5 405.9 292.5 C 406.3 292.5 406.7 292.4 407.1 292.3 C 407.5 292.1 407.9 291.9 408.1 291.6 C 408.4 291.3 408.6 291.0 408.8 290.6 C 408.9 290.2 409 289.8 409.0 289.4 C 409.0 288.7 408.9 288.2 408.6 287.7 C 408.3 287.2 408.0 286.8 407.5 286.6 M 407.3 290.9 C 406.9 291.3 406.4 291.5 405.9 291.5 C 405.3 291.5 404.8 291.3 404.5 290.9 C 404.1 290.5 403.9 290.0 403.9 289.3 C 403.9 288.7 404.1 288.2 404.5 287.8 C 404.8 287.3 405.3 287.1 405.9 287.1 C 406.4 287.1 406.9 287.3 407.3 287.8 C 407.6 288.2 407.8 288.7 407.8 289.3 C 407.8 290.0 407.6 290.5 407.3 290.9 M 412.0 286.4 C 411.7 286.6 411.5 286.8 411.4 287.1 L 411.4 287.1 L 411.4 286.6 C 411.4 286.5 411.3 286.3 411.2 286.3 L 410.6 286.3 C 410.4 286.3 410.3 286.5 410.3 286.6 C 410.3 286.8 410.3 287.1 410.3 287.3 L 410.3 292.0 C 410.3 292.2 410.4 292.3 410.6 292.3 L 411.2 292.3 C 411.4 292.3 411.5 292.2 411.5 292.0 L 411.5 289.2 C 411.5 288.9 411.5 288.7 411.5 288.5 C 411.5 288.3 411.6 288.1 411.6 288.0 C 411.7 287.8 411.8 287.7 411.8 287.6 C 411.9 287.5 412.1 287.4 412.2 287.3 C 412.4 287.3 412.5 287.2 412.7 287.2 C 412.9 287.2 412.9 287.2 413.0 287.2 C 413.1 287.3 413.2 287.2 413.2 287.1 L 413.2 286.3 C 413.2 286.3 413.1 286.2 413.0 286.2 C 413.0 286.2 412.9 286.2 412.8 286.2 C 412.5 286.2 412.2 286.3 412.0 286.4 M 414.4 292.3 L 415.1 292.3 C 415.2 292.3 415.3 292.2 415.3 292.0 L 415.3 286.6 C 415.3 286.5 415.2 286.3 415.1 286.3 L 414.4 286.3 C 414.3 286.3 414.2 286.5 414.2 286.6 L 414.2 292.0 C 414.2 292.2 414.3 292.3 414.4 292.3 M 414.8 284.1 C 414.5 284.1 414.3 284.2 414.2 284.3 C 414.1 284.4 414.0 284.6 414.0 284.8 C 414.0 285.0 414.1 285.2 414.2 285.3 C 414.3 285.5 414.5 285.5 414.8 285.5 C 415.0 285.5 415.1 285.5 415.3 285.3 C 415.4 285.2 415.5 285.0 415.5 284.8 C 415.5 284.6 415.4 284.4 415.3 284.3 C 415.1 284.2 415.0 284.1 414.8 284.1 M 421.4 286.6 C 420.9 286.3 420.4 286.2 419.8 286.2 C 419.2 286.2 418.6 286.3 418.2 286.6 C 417.7 286.8 417.3 287.2 417.1 287.7 C 416.8 288.2 416.7 288.7 416.7 289.4 C 416.7 290.3 416.9 291.0 417.5 291.6 C 418.1 292.2 418.9 292.5 419.8 292.5 C 420.2 292.5 420.7 292.4 421.1 292.3 C 421.4 292.1 421.8 291.9 422.1 291.6 C 422.3 291.3 422.5 291.0 422.7 290.6 C 422.8 290.2 422.9 289.8 422.9 289.4 C 422.9 288.7 422.8 288.2 422.5 287.7 C 422.3 287.2 421.9 286.8 421.4 286.6 M 421.2 290.9 C 420.8 291.3 420.4 291.5 419.8 291.5 C 419.2 291.5 418.7 291.3 418.4 290.9 C 418.0 290.5 417.8 290.0 417.8 289.3 C 417.8 288.7 418.0 288.2 418.4 287.8 C 418.8 287.3 419.2 287.1 419.8 287.1 C 420.4 287.1 420.8 287.3 421.2 287.8 C 421.6 288.2 421.7 288.7 421.7 289.3 C 421.7 290.0 421.6 290.5 421.2 290.9 M 429.3 285.5 C 429.7 285.2 430.2 285.0 430.8 285.0 C 431.6 285.0 432.3 285.4 432.8 286.0 C 432.9 286.1 433.0 286.1 433.1 286.1 L 433.7 285.8 C 433.8 285.7 433.8 285.5 433.7 285.4 C 433.4 285.0 433.0 284.7 432.6 284.4 C 432.1 284.2 431.5 284.0 430.8 284.0 C 430.2 284.0 429.7 284.1 429.2 284.3 C 428.6 284.5 428.2 284.8 427.8 285.2 C 427.5 285.6 427.2 286.0 427.0 286.6 C 426.8 287.1 426.7 287.7 426.7 288.3 C 426.7 289.1 426.8 289.8 427.2 290.4 C 427.5 291.1 428.0 291.6 428.6 291.9 C 429.2 292.3 429.9 292.5 430.7 292.5 C 431.3 292.5 432.0 292.3 432.5 292.0 C 433.0 291.8 433.4 291.5 433.7 291.1 C 433.8 291.0 433.8 290.8 433.7 290.7 L 433.1 290.4 C 433.0 290.4 432.9 290.4 432.8 290.5 C 432.3 291.1 431.6 291.5 430.8 291.5 C 430.3 291.5 429.8 291.3 429.3 291.1 C 428.9 290.8 428.5 290.4 428.2 289.9 C 428.0 289.4 427.9 288.9 427.9 288.3 C 427.9 287.7 428.0 287.1 428.2 286.6 C 428.5 286.1 428.8 285.7 429.3 285.5 M 435.3 292.3 L 435.9 292.3 C 436.1 292.3 436.2 292.2 436.2 292.0 L 436.2 284.4 C 436.2 284.3 436.1 284.2 435.9 284.2 L 435.3 284.2 C 435.2 284.2 435.0 284.3 435.0 284.4 L 435.0 292.0 C 435.0 292.2 435.2 292.3 435.3 292.3 M 438.1 285.6 L 439.0 285.6 C 439.0 285.6 439.1 285.6 439.1 285.6 L 440.5 284.4 C 440.5 284.3 440.5 284.2 440.4 284.2 L 439.2 284.2 C 439.2 284.2 439.2 284.2 439.2 284.2 L 438.0 285.4 C 438.0 285.5 438.0 285.6 438.1 285.6 M 438.2 292.3 L 438.8 292.3 C 438.9 292.3 439.0 292.2 439.0 292.0 L 439.0 286.6 C 439.0 286.5 438.9 286.3 438.8 286.3 L 438.2 286.3 C 438.0 286.3 437.9 286.5 437.9 286.6 L 437.9 292.0 C 437.9 292.2 438.0 292.3 438.2 292.3 M 443.8 286.2 C 443.4 286.2 443.0 286.3 442.6 286.4 C 442.3 286.6 442.0 286.8 441.9 287.1 L 441.9 287.1 L 441.9 286.6 C 441.9 286.5 441.8 286.3 441.6 286.3 L 441.0 286.3 C 440.9 286.3 440.8 286.5 440.8 286.6 C 440.8 286.8 440.8 287.1 440.8 287.3 L 440.8 292.0 C 440.8 292.2 440.9 292.3 441.0 292.3 L 441.7 292.3 C 441.8 292.3 441.9 292.2 441.9 292.0 L 441.9 288.7 C 441.9 288.3 442.1 287.9 442.3 287.6 C 442.6 287.3 443.0 287.1 443.4 287.1 C 444.4 287.1 444.8 287.7 444.8 288.9 L 444.8 292.0 C 444.8 292.2 445.0 292.3 445.1 292.3 L 445.7 292.3 C 445.9 292.3 446.0 292.2 446.0 292.0 L 446.0 288.6 C 446.0 287.8 445.8 287.2 445.4 286.8 C 445.0 286.4 444.5 286.2 443.8 286.2 M 448.2 284.1 C 448.0 284.1 447.8 284.2 447.7 284.3 C 447.5 284.4 447.5 284.6 447.5 284.8 C 447.5 285.0 447.5 285.2 447.7 285.3 C 447.8 285.5 448.0 285.5 448.2 285.5 C 448.4 285.5 448.6 285.5 448.7 285.3 C 448.9 285.2 448.9 285.0 448.9 284.8 C 448.9 284.6 448.9 284.4 448.7 284.3 C 448.6 284.2 448.4 284.1 448.2 284.1 M 447.9 292.3 L 448.5 292.3 C 448.7 292.3 448.8 292.2 448.8 292.0 L 448.8 286.6 C 448.8 286.5 448.7 286.3 448.5 286.3 L 447.9 286.3 C 447.8 286.3 447.7 286.5 447.7 286.6 L 447.7 292.0 C 447.7 292.2 447.8 292.3 447.9 292.3 M 453.3 291.5 C 452.7 291.5 452.2 291.3 451.9 290.9 C 451.5 290.5 451.3 290.0 451.3 289.3 C 451.3 288.7 451.5 288.2 451.9 287.8 C 452.2 287.4 452.7 287.2 453.2 287.2 C 453.8 287.2 454.3 287.4 454.7 287.8 C 454.7 287.9 454.9 287.9 455 287.9 L 455.5 287.5 C 455.6 287.4 455.6 287.2 455.5 287.1 C 455.0 286.5 454.2 286.2 453.3 286.2 C 452.6 286.2 452.1 286.3 451.6 286.6 C 451.1 286.8 450.8 287.2 450.5 287.7 C 450.2 288.2 450.1 288.8 450.1 289.4 C 450.1 290.0 450.2 290.5 450.5 291.0 C 450.8 291.5 451.1 291.8 451.6 292.1 C 452.1 292.4 452.6 292.5 453.2 292.5 C 453.7 292.5 454.2 292.4 454.6 292.2 C 455.0 292.0 455.3 291.8 455.5 291.6 C 455.6 291.5 455.6 291.3 455.5 291.2 L 455.1 290.8 C 455.0 290.7 454.8 290.7 454.7 290.8 C 454.3 291.3 453.8 291.5 453.3 291.5 M 462.2 287.7 C 462.0 287.2 461.6 286.8 461.1 286.6 C 460.6 286.3 460.1 286.2 459.5 286.2 C 458.9 286.2 458.4 286.3 457.9 286.6 C 457.4 286.8 457.0 287.2 456.8 287.7 C 456.5 288.2 456.4 288.7 456.4 289.4 C 456.4 290.3 456.6 291.0 457.2 291.6 C 457.8 292.2 458.6 292.5 459.5 292.5 C 459.9 292.5 460.4 292.4 460.8 292.3 C 461.2 292.1 461.5 291.9 461.8 291.6 C 462.0 291.3 462.2 291.0 462.4 290.6 C 462.5 290.2 462.6 289.8 462.6 289.4 C 462.6 288.7 462.5 288.2 462.2 287.7 M 460.9 290.9 C 460.5 291.3 460.1 291.5 459.5 291.5 C 458.9 291.5 458.4 291.3 458.1 290.9 C 457.7 290.5 457.5 290.0 457.5 289.3 C 457.5 288.7 457.7 288.2 458.1 287.8 C 458.5 287.3 458.9 287.1 459.5 287.1 C 460.1 287.1 460.5 287.3 460.9 287.8 C 461.3 288.2 461.4 288.7 461.4 289.3 C 461.4 290.0 461.3 290.5 460.9 290.9 "/><path fill-rule="nonzero" fill="rgb(55.686951%, 8.235168%, 21.568298%)" fill-opacity="1" d="M 363.7 324.1 C 363.6 324.4 363.5 324.7 363.4 325.1 C 363.3 325.4 363.3 325.6 363.2 325.8 L 363.2 325.8 C 363.2 325.7 363.1 325.5 363.0 325.1 C 362.8 324.5 362.7 324.2 362.7 324.2 L 361.8 321.4 C 361.8 321.4 361.7 321.3 361.6 321.3 L 360.7 321.3 C 360.7 321.3 360.6 321.4 360.6 321.5 L 360.6 326.4 C 360.6 326.5 360.7 326.6 360.7 326.6 L 361.1 326.6 C 361.2 326.6 361.3 326.5 361.3 326.4 L 361.3 323.7 C 361.3 323.3 361.3 322.7 361.3 321.9 C 361.3 321.9 361.3 321.9 361.3 321.8 L 361.3 321.8 C 361.5 322.7 361.7 323.3 361.9 323.7 L 362.7 326.5 C 362.8 326.5 362.8 326.6 362.9 326.6 L 363.5 326.6 C 363.5 326.6 363.6 326.5 363.6 326.5 L 364.5 323.8 C 364.6 323.5 364.8 322.9 365.0 322.1 L 365.1 321.8 L 365.1 321.8 C 365.1 322.0 365.1 322.3 365.1 322.7 C 365.1 323.2 365.1 323.6 365.1 323.8 L 365.1 326.4 C 365.1 326.5 365.1 326.6 365.2 326.6 L 365.6 326.6 C 365.7 326.6 365.8 326.5 365.8 326.4 L 365.8 321.5 C 365.8 321.4 365.7 321.3 365.6 321.3 L 364.8 321.3 C 364.7 321.3 364.7 321.4 364.6 321.4 Z M 368.8 326.1 C 368.4 326.1 368.1 325.9 367.9 325.7 C 367.7 325.5 367.5 325.2 367.5 324.8 L 370.5 324.8 C 370.5 324.8 370.5 324.7 370.5 324.6 C 370.5 324.0 370.4 323.5 370.0 323.1 C 369.7 322.8 369.2 322.6 368.7 322.6 C 368.3 322.6 368.0 322.7 367.7 322.9 C 367.4 323.0 367.2 323.3 367 323.6 C 366.8 323.9 366.8 324.3 366.8 324.6 C 366.8 325.3 366.9 325.8 367.3 326.1 C 367.7 326.5 368.1 326.7 368.7 326.7 C 369.1 326.7 369.4 326.6 369.8 326.5 C 370.0 326.4 370.3 326.2 370.4 326.0 C 370.5 325.9 370.5 325.8 370.4 325.8 L 370.2 325.5 C 370.1 325.5 370.0 325.5 370.0 325.5 C 369.6 325.9 369.2 326.1 368.8 326.1 M 367.9 323.5 C 368.1 323.3 368.3 323.2 368.7 323.2 C 369.0 323.2 369.3 323.3 369.4 323.5 C 369.6 323.7 369.7 323.9 369.8 324.3 L 367.5 324.3 C 367.5 323.9 367.6 323.7 367.9 323.5 M 374.9 321.3 L 374.5 321.3 C 374.4 321.3 374.3 321.4 374.3 321.5 L 374.3 322.7 C 374.3 322.9 374.3 323.0 374.3 323.2 C 374.0 322.8 373.6 322.6 373.0 322.6 C 372.7 322.6 372.3 322.7 372.0 322.9 C 371.8 323.0 371.5 323.3 371.4 323.6 C 371.2 323.9 371.1 324.2 371.1 324.6 C 371.1 325.0 371.2 325.4 371.4 325.7 C 371.5 326.0 371.7 326.3 372.0 326.4 C 372.3 326.6 372.6 326.7 373.0 326.7 C 373.3 326.7 373.5 326.6 373.8 326.5 C 374.0 326.4 374.2 326.3 374.4 326.1 L 374.4 326.4 C 374.4 326.5 374.4 326.6 374.5 326.6 L 374.9 326.6 C 375.0 326.6 375.0 326.5 375.0 326.4 C 375.0 326.3 375.0 326.3 375.0 326.2 L 375.0 321.5 C 375.0 321.4 375.0 321.3 374.9 321.3 M 374.0 325.7 C 373.8 325.9 373.5 326.1 373.1 326.1 C 372.8 326.1 372.5 325.9 372.2 325.7 C 372.0 325.4 371.9 325.1 371.9 324.6 C 371.9 324.2 372.0 323.9 372.2 323.6 C 372.5 323.4 372.8 323.2 373.1 323.2 C 373.5 323.2 373.8 323.4 374.0 323.6 C 374.2 323.9 374.4 324.2 374.4 324.6 C 374.4 325.1 374.3 325.4 374.0 325.7 M 376.5 321.2 C 376.4 321.2 376.3 321.3 376.2 321.4 C 376.1 321.5 376.0 321.6 376.0 321.7 C 376.0 321.9 376.1 322.0 376.2 322.1 C 376.3 322.1 376.4 322.2 376.5 322.2 C 376.7 322.2 376.8 322.1 376.9 322.1 C 377.0 322.0 377.0 321.9 377.0 321.7 C 377.0 321.6 377.0 321.5 376.9 321.4 C 376.8 321.3 376.7 321.2 376.5 321.2 M 376.3 326.6 L 376.7 326.6 C 376.8 326.6 376.9 326.5 376.9 326.4 L 376.9 322.9 C 376.9 322.8 376.8 322.7 376.7 322.7 L 376.3 322.7 C 376.2 322.7 376.2 322.8 376.2 322.9 L 376.2 326.4 C 376.2 326.5 376.2 326.6 376.3 326.6 M 379.8 326.1 C 379.4 326.1 379.1 325.9 378.9 325.7 C 378.7 325.4 378.5 325.1 378.5 324.6 C 378.5 324.2 378.7 323.9 378.9 323.6 C 379.1 323.4 379.4 323.2 379.8 323.2 C 380.2 323.2 380.5 323.4 380.7 323.7 C 380.8 323.7 380.9 323.7 380.9 323.7 L 381.3 323.4 C 381.3 323.4 381.3 323.3 381.3 323.2 C 380.9 322.8 380.4 322.6 379.8 322.6 C 379.4 322.6 379.1 322.7 378.7 322.9 C 378.4 323.0 378.2 323.3 378.0 323.6 C 377.9 323.9 377.8 324.3 377.8 324.7 C 377.8 325.1 377.8 325.4 378.0 325.7 C 378.2 326.0 378.4 326.3 378.7 326.4 C 379.0 326.6 379.4 326.7 379.8 326.7 C 380.1 326.7 380.4 326.6 380.7 326.5 C 380.9 326.4 381.1 326.3 381.3 326.1 C 381.4 326.0 381.3 325.9 381.3 325.9 L 381.0 325.6 C 380.9 325.6 380.8 325.6 380.8 325.6 C 380.5 325.9 380.2 326.1 379.8 326.1 M 382.5 321.2 C 382.4 321.2 382.2 321.3 382.2 321.4 C 382.1 321.5 382.0 321.6 382.0 321.7 C 382.0 321.9 382.1 322.0 382.2 322.1 C 382.2 322.1 382.4 322.2 382.5 322.2 C 382.6 322.2 382.8 322.1 382.8 322.1 C 382.9 322.0 383.0 321.9 383.0 321.7 C 383.0 321.6 382.9 321.5 382.8 321.4 C 382.8 321.3 382.6 321.2 382.5 321.2 M 382.3 326.6 L 382.7 326.6 C 382.8 326.6 382.9 326.5 382.9 326.4 L 382.9 322.9 C 382.9 322.8 382.8 322.7 382.7 322.7 L 382.3 322.7 C 382.2 322.7 382.1 322.8 382.1 322.9 L 382.1 326.4 C 382.1 326.5 382.2 326.6 382.3 326.6 M 385.9 322.6 C 385.7 322.6 385.4 322.6 385.2 322.8 C 385.0 322.9 384.8 323.0 384.7 323.2 L 384.7 323.2 L 384.7 322.9 C 384.7 322.8 384.6 322.7 384.6 322.7 L 384.2 322.7 C 384.1 322.7 384.0 322.8 384.0 322.9 C 384.0 323.0 384.0 323.2 384.0 323.4 L 384.0 326.4 C 384.0 326.5 384.1 326.6 384.2 326.6 L 384.6 326.6 C 384.7 326.6 384.7 326.5 384.7 326.4 L 384.7 324.2 C 384.7 323.9 384.8 323.7 385.0 323.5 C 385.2 323.3 385.4 323.2 385.7 323.2 C 386.3 323.2 386.6 323.6 386.6 324.4 L 386.6 326.4 C 386.6 326.5 386.7 326.6 386.8 326.6 L 387.2 326.6 C 387.3 326.6 387.4 326.5 387.4 326.4 L 387.4 324.2 C 387.4 323.7 387.2 323.3 387.0 323.0 C 386.7 322.7 386.4 322.6 385.9 322.6 M 391.9 322.7 L 391.6 322.7 C 391.5 322.7 391.4 322.8 391.4 322.9 L 391.4 323.2 L 391.4 323.2 C 391.1 322.8 390.7 322.6 390.1 322.6 C 389.7 322.6 389.4 322.7 389.1 322.9 C 388.8 323.0 388.6 323.3 388.4 323.6 C 388.3 323.9 388.2 324.2 388.2 324.6 C 388.2 325.0 388.3 325.4 388.4 325.7 C 388.6 326.0 388.8 326.3 389.1 326.4 C 389.4 326.6 389.7 326.7 390.1 326.7 C 390.4 326.7 390.6 326.6 390.9 326.5 C 391.1 326.4 391.3 326.3 391.4 326.1 L 391.4 326.1 L 391.4 326.4 C 391.4 326.5 391.5 326.6 391.6 326.6 L 391.9 326.6 C 392.0 326.6 392.1 326.5 392.1 326.4 C 392.1 326.3 392.1 322.9 392.1 322.9 C 392.1 322.8 392.0 322.7 391.9 322.7 M 391.1 325.7 C 390.9 325.9 390.6 326.1 390.2 326.1 C 389.8 326.1 389.5 325.9 389.3 325.7 C 389.1 325.4 388.9 325.1 389.0 324.6 C 388.9 324.2 389.1 323.9 389.3 323.6 C 389.5 323.4 389.8 323.2 390.2 323.2 C 390.6 323.2 390.9 323.4 391.1 323.6 C 391.3 323.9 391.4 324.2 391.4 324.6 C 391.4 325.1 391.3 325.4 391.1 325.7 M 396.6 321.3 L 395.3 321.3 C 395.2 321.3 395.1 321.4 395.1 321.5 L 395.1 326.4 C 395.1 326.5 395.2 326.6 395.3 326.6 L 396.7 326.6 C 397.2 326.6 397.6 326.5 397.9 326.4 C 398.3 326.2 398.6 326.1 398.8 325.8 C 399.0 325.6 399.2 325.3 399.3 325.0 C 399.4 324.7 399.5 324.3 399.5 324.0 C 399.5 323.1 399.2 322.4 398.7 322.0 C 398.3 321.5 397.5 321.3 396.6 321.3 M 398.2 325.5 C 397.8 325.8 397.3 325.9 396.5 325.9 L 395.9 325.9 L 395.9 322.0 L 396.6 322.0 C 397.3 322.0 397.8 322.1 398.2 322.5 C 398.5 322.8 398.7 323.3 398.7 324.0 C 398.7 324.6 398.5 325.1 398.2 325.5 M 400.7 321.2 C 400.6 321.2 400.5 321.3 400.4 321.4 C 400.3 321.5 400.3 321.6 400.3 321.7 C 400.3 321.9 400.3 322.0 400.4 322.1 C 400.5 322.1 400.6 322.2 400.7 322.2 C 400.9 322.2 401.0 322.1 401.1 322.1 C 401.2 322.0 401.2 321.9 401.2 321.7 C 401.2 321.6 401.2 321.5 401.1 321.4 C 401.0 321.3 400.9 321.2 400.7 321.2 M 400.5 326.6 L 401.0 326.6 C 401.0 326.6 401.1 326.5 401.1 326.4 L 401.1 322.9 C 401.1 322.8 401.0 322.7 401.0 322.7 L 400.5 322.7 C 400.5 322.7 400.4 322.8 400.4 322.9 L 400.4 326.4 C 400.4 326.5 400.5 326.6 400.5 326.6 M 405.7 322.7 L 405.4 322.7 C 405.3 322.7 405.2 322.8 405.2 322.9 L 405.2 323.2 L 405.2 323.2 C 404.9 322.8 404.4 322.6 403.9 322.6 C 403.5 322.6 403.2 322.7 402.9 322.9 C 402.6 323.0 402.4 323.3 402.2 323.6 C 402.1 323.9 402.0 324.2 402.0 324.6 C 402.0 325.0 402.1 325.4 402.2 325.7 C 402.4 326.0 402.6 326.3 402.9 326.4 C 403.2 326.6 403.5 326.7 403.9 326.7 C 404.1 326.7 404.4 326.6 404.7 326.5 C 404.9 326.4 405.1 326.3 405.2 326.1 L 405.2 326.1 L 405.2 326.4 C 405.2 326.5 405.3 326.6 405.4 326.6 L 405.7 326.6 C 405.8 326.6 405.9 326.5 405.9 326.4 C 405.9 326.3 405.9 322.9 405.9 322.9 C 405.9 322.8 405.8 322.7 405.7 322.7 M 404.9 325.7 C 404.7 325.9 404.4 326.1 404.0 326.1 C 403.6 326.1 403.3 325.9 403.1 325.7 C 402.9 325.4 402.7 325.1 402.8 324.6 C 402.7 324.2 402.9 323.9 403.1 323.6 C 403.3 323.4 403.6 323.2 404.0 323.2 C 404.4 323.2 404.7 323.4 404.9 323.6 C 405.1 323.9 405.2 324.2 405.2 324.6 C 405.2 325.1 405.1 325.4 404.9 325.7 M 410.1 322.7 C 410.0 322.7 409.9 322.8 409.9 322.9 L 409.9 323.1 L 409.9 323.1 C 409.8 323.0 409.6 322.8 409.4 322.7 C 409.2 322.6 408.9 322.6 408.6 322.6 C 408.3 322.6 408.0 322.7 407.7 322.8 C 407.4 323.0 407.2 323.2 407 323.5 C 406.8 323.8 406.8 324.1 406.8 324.5 C 406.8 324.8 406.8 325.1 407.0 325.4 C 407.1 325.7 407.4 326.0 407.6 326.1 C 407.9 326.3 408.2 326.4 408.6 326.4 C 408.9 326.4 409.1 326.3 409.4 326.2 C 409.6 326.1 409.8 325.9 409.9 325.8 L 410.0 325.8 C 409.9 325.8 409.9 325.9 409.9 326.1 C 409.9 326.5 409.8 326.8 409.6 327.0 C 409.4 327.2 409.0 327.3 408.7 327.3 C 408.2 327.3 407.8 327.2 407.4 326.9 C 407.3 326.8 407.2 326.8 407.2 326.9 L 406.9 327.2 C 406.8 327.2 406.9 327.3 406.9 327.4 C 407.4 327.8 408.0 328.0 408.6 328.0 C 408.9 328.0 409.2 327.9 409.4 327.9 C 409.6 327.8 409.8 327.7 410.0 327.5 C 410.2 327.4 410.4 327.2 410.5 326.9 C 410.6 326.7 410.6 326.4 410.6 326.1 C 410.6 326.1 410.6 323.5 410.6 322.9 C 410.6 322.8 410.5 322.7 410.5 322.7 Z M 409.6 325.4 C 409.4 325.6 409.1 325.7 408.7 325.7 C 408.4 325.7 408.1 325.6 407.9 325.4 C 407.6 325.1 407.5 324.8 407.5 324.5 C 407.5 324.1 407.6 323.8 407.9 323.6 C 408.1 323.3 408.4 323.2 408.7 323.2 C 409.1 323.2 409.4 323.3 409.6 323.6 C 409.8 323.8 409.9 324.1 409.9 324.5 C 410.0 324.8 409.8 325.1 409.6 325.4 M 413.7 322.6 C 413.4 322.6 413.2 322.6 412.9 322.8 C 412.7 322.9 412.6 323.0 412.5 323.2 L 412.5 323.2 L 412.5 322.9 C 412.5 322.8 412.4 322.7 412.3 322.7 L 411.9 322.7 C 411.8 322.7 411.7 322.8 411.7 322.9 C 411.8 323.0 411.8 323.2 411.8 323.4 L 411.8 326.4 C 411.8 326.5 411.8 326.6 411.9 326.6 L 412.3 326.6 C 412.4 326.6 412.5 326.5 412.5 326.4 L 412.5 324.2 C 412.5 323.9 412.6 323.7 412.7 323.5 C 412.9 323.3 413.2 323.2 413.5 323.2 C 414.1 323.2 414.4 323.6 414.4 324.4 L 414.4 326.4 C 414.4 326.5 414.4 326.6 414.5 326.6 L 415.0 326.6 C 415.0 326.6 415.1 326.5 415.1 326.4 L 415.1 324.2 C 415.1 323.7 415.0 323.3 414.7 323.0 C 414.5 322.7 414.1 322.6 413.7 322.6 M 419.0 322.8 C 418.7 322.7 418.4 322.6 418.0 322.6 C 417.6 322.6 417.2 322.7 416.9 322.8 C 416.6 323.0 416.4 323.3 416.2 323.6 C 416.0 323.9 415.9 324.3 415.9 324.7 C 415.9 325.3 416.1 325.8 416.5 326.1 C 416.9 326.5 417.4 326.7 418.0 326.7 C 418.3 326.7 418.5 326.7 418.8 326.6 C 419.0 326.5 419.3 326.3 419.4 326.1 C 419.6 326.0 419.7 325.7 419.8 325.5 C 419.9 325.2 420.0 325.0 420.0 324.7 C 420.0 324.3 419.9 323.9 419.7 323.6 C 419.6 323.3 419.3 323.0 419.0 322.8 M 418.9 325.7 C 418.6 325.9 418.3 326.1 418.0 326.1 C 417.6 326.1 417.3 325.9 417.0 325.7 C 416.8 325.4 416.7 325.1 416.7 324.6 C 416.7 324.2 416.8 323.9 417.1 323.6 C 417.3 323.4 417.6 323.2 418.0 323.2 C 418.3 323.2 418.6 323.4 418.9 323.6 C 419.1 323.9 419.2 324.2 419.2 324.6 C 419.2 325.1 419.1 325.4 418.9 325.7 M 419.0 321.3 L 418.3 321.3 C 418.3 321.3 418.2 321.3 418.2 321.3 L 417.5 322.1 C 417.5 322.2 417.5 322.2 417.6 322.2 L 418.1 322.2 C 418.2 322.2 418.2 322.2 418.2 322.2 L 419.1 321.5 C 419.1 321.4 419.1 321.3 419.0 321.3 M 423.1 324.6 C 423.0 324.5 422.7 324.4 422.5 324.4 L 422.2 324.3 C 421.9 324.2 421.7 324.1 421.6 324.1 C 421.4 324.0 421.4 323.9 421.4 323.7 C 421.4 323.5 421.4 323.4 421.6 323.3 C 421.7 323.2 421.9 323.2 422.1 323.2 C 422.3 323.2 422.5 323.2 422.6 323.3 C 422.8 323.4 422.9 323.4 423.0 323.5 C 423.0 323.6 423.1 323.6 423.2 323.5 L 423.4 323.3 C 423.5 323.2 423.5 323.1 423.4 323.1 C 423.3 322.9 423.2 322.8 423.0 322.8 C 422.7 322.7 422.4 322.6 422.2 322.6 C 421.9 322.6 421.6 322.6 421.4 322.7 C 421.2 322.8 421.0 323.0 420.9 323.1 C 420.7 323.3 420.6 323.5 420.7 323.8 C 420.7 323.9 420.7 324.1 420.7 324.2 C 420.8 324.3 420.9 324.4 421.0 324.5 C 421.1 324.6 421.2 324.7 421.3 324.7 C 421.5 324.8 421.6 324.8 421.8 324.9 L 422.2 325.0 C 422.5 325.1 422.7 325.1 422.8 325.2 C 422.9 325.3 423.0 325.4 423.0 325.6 C 423.0 325.7 422.9 325.9 422.8 326.0 C 422.6 326.1 422.4 326.1 422.1 326.1 C 421.7 326.1 421.4 326.0 421.1 325.7 C 421.1 325.7 421.0 325.7 420.9 325.7 L 420.6 325.9 C 420.6 326.0 420.5 326.1 420.6 326.2 C 421.0 326.5 421.5 326.7 422.1 326.7 C 422.3 326.7 422.5 326.7 422.7 326.6 C 422.9 326.6 423.1 326.5 423.2 326.4 C 423.4 326.3 423.5 326.2 423.6 326.0 C 423.7 325.8 423.7 325.7 423.7 325.5 C 423.7 325.0 423.5 324.7 423.1 324.6 M 425.3 321.7 L 424.9 321.7 C 424.8 321.7 424.7 321.7 424.7 321.8 L 424.7 322.7 L 424.4 322.7 C 424.3 322.7 424.2 322.8 424.2 322.9 L 424.2 323.2 C 424.2 323.3 424.3 323.4 424.4 323.4 L 424.7 323.4 L 424.7 326.4 C 424.7 326.5 424.8 326.6 424.9 326.6 L 425.3 326.6 C 425.4 326.6 425.4 326.5 425.4 326.4 L 425.4 323.4 L 426.4 323.4 C 426.5 323.4 426.5 323.3 426.5 323.2 L 426.5 322.9 C 426.5 322.8 426.5 322.7 426.4 322.7 L 425.4 322.7 L 425.4 321.8 C 425.4 321.7 425.4 321.7 425.3 321.7 M 427.3 326.6 L 427.7 326.6 C 427.8 326.6 427.9 326.5 427.9 326.4 L 427.9 322.9 C 427.9 322.8 427.8 322.7 427.7 322.7 L 427.3 322.7 C 427.2 322.7 427.2 322.8 427.2 322.9 L 427.2 326.4 C 427.2 326.5 427.2 326.6 427.3 326.6 M 427.5 321.2 C 427.4 321.2 427.2 321.3 427.2 321.4 C 427.1 321.5 427.0 321.6 427.0 321.7 C 427.0 321.9 427.1 322.0 427.2 322.1 C 427.2 322.1 427.4 322.2 427.5 322.2 C 427.7 322.2 427.8 322.1 427.9 322.1 C 427.9 322.0 428.0 321.9 428.0 321.7 C 428.0 321.6 427.9 321.5 427.9 321.4 C 427.8 321.3 427.7 321.2 427.5 321.2 M 430.8 326.1 C 430.4 326.1 430.1 325.9 429.9 325.7 C 429.6 325.4 429.5 325.1 429.5 324.6 C 429.5 324.2 429.6 323.9 429.9 323.6 C 430.1 323.4 430.4 323.2 430.8 323.2 C 431.2 323.2 431.5 323.4 431.7 323.7 C 431.8 323.7 431.9 323.7 431.9 323.7 L 432.2 323.4 C 432.3 323.4 432.3 323.3 432.3 323.2 C 431.9 322.8 431.4 322.6 430.8 322.6 C 430.4 322.6 430.0 322.7 429.7 322.9 C 429.4 323.0 429.2 323.3 429.0 323.6 C 428.8 323.9 428.8 324.3 428.8 324.7 C 428.8 325.1 428.8 325.4 429 325.7 C 429.2 326.0 429.4 326.3 429.7 326.4 C 430.0 326.6 430.4 326.7 430.7 326.7 C 431.1 326.7 431.4 326.6 431.7 326.5 C 431.9 326.4 432.1 326.3 432.3 326.1 C 432.3 326.0 432.3 325.9 432.3 325.9 L 432.0 325.6 C 431.9 325.6 431.8 325.6 431.7 325.6 C 431.5 325.9 431.2 326.1 430.8 326.1 M 436.6 322.7 L 436.2 322.7 C 436.1 322.7 436.0 322.8 436.0 322.9 L 436.0 323.2 L 436 323.2 C 435.7 322.8 435.3 322.6 434.7 322.6 C 434.3 322.6 434.0 322.7 433.7 322.9 C 433.4 323.0 433.2 323.3 433.0 323.6 C 432.9 323.9 432.8 324.2 432.8 324.6 C 432.8 325.0 432.9 325.4 433.0 325.7 C 433.2 326.0 433.4 326.3 433.7 326.4 C 434 326.6 434.3 326.7 434.7 326.7 C 435.0 326.7 435.2 326.6 435.5 326.5 C 435.7 326.4 435.9 326.3 436.0 326.1 L 436.1 326.1 L 436.1 326.4 C 436.1 326.5 436.1 326.6 436.2 326.6 L 436.6 326.6 C 436.7 326.6 436.7 326.5 436.7 326.4 C 436.7 325.8 436.7 323.5 436.7 322.9 C 436.7 322.8 436.7 322.7 436.6 322.7 M 435.7 325.7 C 435.5 325.9 435.2 326.1 434.8 326.1 C 434.4 326.1 434.1 325.9 433.9 325.7 C 433.7 325.4 433.6 325.1 433.6 324.6 C 433.6 324.2 433.7 323.9 433.9 323.6 C 434.1 323.4 434.4 323.2 434.8 323.2 C 435.2 323.2 435.5 323.4 435.7 323.6 C 435.9 323.9 436.0 324.2 436.0 324.6 C 436.0 325.1 435.9 325.4 435.7 325.7 M 440.5 324.2 L 442.6 324.2 C 442.7 324.2 442.7 324.2 442.7 324.1 L 442.7 323.7 C 442.7 323.6 442.7 323.6 442.6 323.6 L 440.5 323.6 L 440.5 322.0 L 442.8 322.0 C 442.8 322.0 442.9 321.9 442.9 321.8 L 442.9 321.5 C 442.9 321.4 442.8 321.3 442.8 321.3 L 439.9 321.3 C 439.8 321.3 439.8 321.4 439.8 321.5 L 439.8 326.4 C 439.8 326.5 439.8 326.6 439.9 326.6 L 442.8 326.6 C 442.9 326.6 443.0 326.5 443.0 326.4 L 443.0 326.1 C 443.0 326.0 442.9 325.9 442.8 325.9 L 440.5 325.9 Z M 446.2 324.6 C 446.0 324.5 445.8 324.4 445.5 324.4 L 445.2 324.3 C 444.9 324.2 444.7 324.1 444.6 324.1 C 444.5 324.0 444.4 323.9 444.4 323.7 C 444.4 323.5 444.5 323.4 444.6 323.3 C 444.7 323.2 444.9 323.2 445.2 323.2 C 445.3 323.2 445.5 323.2 445.7 323.3 C 445.8 323.4 445.9 323.4 446.0 323.5 C 446.0 323.6 446.1 323.6 446.2 323.5 L 446.5 323.3 C 446.5 323.2 446.5 323.1 446.5 323.1 C 446.3 322.9 446.2 322.8 446.0 322.8 C 445.7 322.7 445.5 322.6 445.2 322.6 C 444.9 322.6 444.7 322.6 444.4 322.7 C 444.2 322.8 444.0 323.0 443.9 323.1 C 443.7 323.3 443.7 323.5 443.7 323.8 C 443.7 323.9 443.7 324.1 443.8 324.2 C 443.8 324.3 443.9 324.4 444.0 324.5 C 444.1 324.6 444.2 324.7 444.4 324.7 C 444.5 324.8 444.6 324.8 444.8 324.9 L 445.2 325.0 C 445.5 325.1 445.7 325.1 445.8 325.2 C 445.9 325.3 446.0 325.4 446.0 325.6 C 446.0 325.7 445.9 325.9 445.8 326.0 C 445.6 326.1 445.4 326.1 445.1 326.1 C 444.8 326.1 444.4 326.0 444.2 325.7 C 444.1 325.7 444.0 325.7 444.0 325.7 L 443.7 325.9 C 443.6 326.0 443.6 326.1 443.6 326.2 C 444.0 326.5 444.5 326.7 445.1 326.7 C 445.3 326.7 445.5 326.7 445.7 326.6 C 445.9 326.6 446.1 326.5 446.3 326.4 C 446.4 326.3 446.5 326.2 446.6 326.0 C 446.7 325.8 446.7 325.7 446.7 325.5 C 446.7 325.0 446.5 324.7 446.2 324.6 M 450.6 322.9 C 450.3 322.7 450.0 322.6 449.6 322.6 C 449.3 322.6 449.1 322.6 448.8 322.8 C 448.6 322.9 448.4 323.0 448.3 323.2 L 448.3 323.2 C 448.3 323.2 448.3 323.0 448.3 322.9 C 448.3 322.8 448.2 322.7 448.1 322.7 L 447.7 322.7 C 447.6 322.7 447.5 322.8 447.6 322.9 C 447.6 323.0 447.6 323.2 447.6 323.4 L 447.6 327.7 C 447.6 327.8 447.6 327.9 447.7 327.9 L 448.1 327.9 C 448.2 327.9 448.3 327.8 448.3 327.7 L 448.3 327.1 C 448.3 326.6 448.3 326.3 448.3 326.1 C 448.4 326.3 448.6 326.4 448.8 326.5 C 449.0 326.7 449.3 326.7 449.6 326.7 C 449.9 326.7 450.3 326.6 450.6 326.4 C 450.8 326.3 451.1 326.0 451.2 325.7 C 451.4 325.4 451.5 325.0 451.5 324.7 C 451.5 324.3 451.4 323.9 451.2 323.6 C 451.1 323.3 450.9 323.0 450.6 322.9 M 450.4 325.7 C 450.1 325.9 449.8 326.1 449.5 326.1 C 449.1 326.1 448.8 325.9 448.6 325.7 C 448.3 325.4 448.2 325.0 448.2 324.6 C 448.2 324.2 448.3 323.9 448.6 323.6 C 448.8 323.4 449.1 323.2 449.5 323.2 C 449.8 323.2 450.1 323.4 450.4 323.6 C 450.6 323.9 450.7 324.2 450.7 324.6 C 450.7 325.0 450.6 325.4 450.4 325.7 M 454.1 326.1 C 453.7 326.1 453.4 325.9 453.2 325.7 C 453.0 325.5 452.8 325.2 452.8 324.8 L 455.8 324.8 C 455.8 324.8 455.8 324.7 455.8 324.6 C 455.9 324.0 455.7 323.5 455.3 323.1 C 455.0 322.8 454.6 322.6 454 322.6 C 453.6 322.6 453.3 322.7 453.0 322.9 C 452.7 323.0 452.5 323.3 452.3 323.6 C 452.2 323.9 452.1 324.3 452.1 324.6 C 452.1 325.3 452.3 325.8 452.6 326.1 C 453.0 326.5 453.5 326.7 454.0 326.7 C 454.4 326.7 454.8 326.6 455.1 326.5 C 455.4 326.4 455.6 326.2 455.8 326.0 C 455.8 325.9 455.8 325.8 455.8 325.8 L 455.5 325.5 C 455.4 325.5 455.3 325.5 455.3 325.5 C 454.9 325.9 454.5 326.1 454.1 326.1 M 453.2 323.5 C 453.4 323.3 453.6 323.2 454.0 323.2 C 454.3 323.2 454.6 323.3 454.8 323.5 C 455.0 323.7 455.1 323.9 455.1 324.3 L 452.8 324.3 C 452.9 323.9 453.0 323.7 453.2 323.5 M 458.5 326.1 C 458.1 326.1 457.8 325.9 457.6 325.7 C 457.3 325.4 457.2 325.1 457.2 324.6 C 457.2 324.2 457.3 323.9 457.6 323.6 C 457.8 323.4 458.1 323.2 458.5 323.2 C 458.9 323.2 459.2 323.4 459.4 323.7 C 459.5 323.7 459.6 323.7 459.6 323.7 L 459.9 323.4 C 460.0 323.4 460.0 323.3 460.0 323.2 C 459.6 322.8 459.1 322.6 458.5 322.6 C 458.1 322.6 457.7 322.7 457.4 322.9 C 457.1 323.0 456.9 323.3 456.7 323.6 C 456.5 323.9 456.4 324.3 456.4 324.7 C 456.4 325.1 456.5 325.4 456.7 325.7 C 456.9 326.0 457.1 326.3 457.4 326.4 C 457.7 326.6 458.1 326.7 458.4 326.7 C 458.8 326.7 459.1 326.6 459.4 326.5 C 459.6 326.4 459.8 326.3 460.0 326.1 C 460.0 326.0 460.0 325.9 460.0 325.9 L 459.7 325.6 C 459.6 325.6 459.5 325.6 459.4 325.6 C 459.2 325.9 458.9 326.1 458.5 326.1 M 461.0 326.6 L 461.4 326.6 C 461.5 326.6 461.6 326.5 461.6 326.4 L 461.6 322.9 C 461.6 322.8 461.5 322.7 461.4 322.7 L 461.0 322.7 C 460.9 322.7 460.8 322.8 460.8 322.9 L 460.8 326.4 C 460.8 326.5 460.9 326.6 461.0 326.6 M 461.2 321.2 C 461.0 321.2 460.9 321.3 460.8 321.4 C 460.7 321.5 460.7 321.6 460.7 321.7 C 460.7 321.9 460.7 322.0 460.8 322.1 C 460.9 322.1 461.0 322.2 461.2 322.2 C 461.3 322.2 461.4 322.1 461.5 322.1 C 461.6 322.0 461.7 321.9 461.7 321.7 C 461.7 321.6 461.6 321.5 461.5 321.4 C 461.4 321.3 461.3 321.2 461.2 321.2 M 466.2 322.7 L 465.8 322.7 C 465.7 322.7 465.6 322.8 465.6 322.9 L 465.6 323.2 L 465.6 323.2 C 465.3 322.8 464.9 322.6 464.3 322.6 C 463.9 322.6 463.6 322.7 463.3 322.9 C 463.0 323.0 462.8 323.3 462.7 323.6 C 462.5 323.9 462.4 324.2 462.4 324.6 C 462.4 325.0 462.5 325.4 462.7 325.7 C 462.8 326.0 463.0 326.3 463.3 326.4 C 463.6 326.6 463.9 326.7 464.3 326.7 C 464.6 326.7 464.8 326.6 465.1 326.5 C 465.3 326.4 465.5 326.3 465.7 326.1 L 465.7 326.1 L 465.7 326.4 C 465.7 326.5 465.7 326.6 465.8 326.6 L 466.2 326.6 C 466.3 326.6 466.3 326.5 466.3 326.4 C 466.3 326.3 466.3 326.3 466.3 326.2 L 466.3 322.9 C 466.3 322.8 466.3 322.7 466.2 322.7 M 465.3 325.7 C 465.1 325.9 464.8 326.1 464.4 326.1 C 464.1 326.1 463.8 325.9 463.5 325.7 C 463.3 325.4 463.2 325.1 463.2 324.6 C 463.2 324.2 463.3 323.9 463.5 323.6 C 463.8 323.4 464.1 323.2 464.4 323.2 C 464.8 323.2 465.1 323.4 465.3 323.6 C 465.5 323.9 465.7 324.2 465.7 324.6 C 465.7 325.1 465.6 325.4 465.3 325.7 M 467.6 326.6 L 468.0 326.6 C 468.1 326.6 468.2 326.5 468.2 326.4 L 468.2 321.5 C 468.2 321.4 468.1 321.3 468.0 321.3 L 467.6 321.3 C 467.5 321.3 467.5 321.4 467.5 321.5 L 467.5 326.4 C 467.5 326.5 467.5 326.6 467.6 326.6 M 469.7 321.2 C 469.5 321.2 469.4 321.3 469.3 321.4 C 469.2 321.5 469.2 321.6 469.2 321.7 C 469.2 321.9 469.2 322.0 469.3 322.1 C 469.4 322.1 469.5 322.2 469.7 322.2 C 469.8 322.2 469.9 322.1 470.0 322.1 C 470.1 322.0 470.2 321.9 470.2 321.7 C 470.2 321.6 470.1 321.5 470.0 321.4 C 469.9 321.3 469.8 321.2 469.7 321.2 M 469.5 326.6 L 469.9 326.6 C 470.0 326.6 470.1 326.5 470.1 326.4 L 470.1 322.9 C 470.1 322.8 470.0 322.7 469.9 322.7 L 469.5 322.7 C 469.4 322.7 469.3 322.8 469.3 322.9 L 469.3 326.4 C 469.3 326.5 469.4 326.6 469.5 326.6 M 471.8 325.9 L 471.8 325.9 C 471.9 325.8 472.0 325.7 472.1 325.6 C 472.2 325.4 472.3 325.3 472.4 325.2 L 474.0 323.4 C 474.0 323.3 474.0 323.3 474.0 323.2 L 474.0 322.9 C 474.0 322.8 473.9 322.7 473.8 322.7 L 471.1 322.7 C 471.0 322.7 471.0 322.8 471.0 322.9 L 471.0 323.2 C 471.0 323.3 471.0 323.4 471.1 323.4 L 472.3 323.4 L 472.8 323.3 C 472.8 323.3 472.9 323.3 473.1 323.3 L 473.1 323.4 C 473.1 323.4 473.0 323.5 472.8 323.7 L 472.6 324.0 L 470.9 326.0 C 470.9 326.0 470.9 326.0 470.9 326.1 L 470.9 326.4 C 470.9 326.5 471.0 326.6 471.1 326.6 L 473.9 326.6 C 474.0 326.6 474.1 326.5 474.1 326.4 L 474.1 326.1 C 474.1 326 474.0 325.9 473.9 325.9 L 472.5 325.9 C 472.3 325.9 472.0 325.9 471.8 325.9 M 478.3 322.7 L 477.9 322.7 C 477.8 322.7 477.8 322.8 477.8 322.9 L 477.8 323.2 L 477.8 323.2 C 477.5 322.8 477.0 322.6 476.4 322.6 C 476.1 322.6 475.8 322.7 475.5 322.9 C 475.2 323.0 475.0 323.3 474.8 323.6 C 474.6 323.9 474.6 324.2 474.6 324.6 C 474.6 325.0 474.6 325.4 474.8 325.7 C 475.0 326.0 475.2 326.3 475.5 326.4 C 475.8 326.6 476.1 326.7 476.5 326.7 C 476.7 326.7 477.0 326.6 477.2 326.5 C 477.5 326.4 477.7 326.3 477.8 326.1 L 477.8 326.1 L 477.8 326.4 C 477.8 326.5 477.9 326.6 478.0 326.6 L 478.3 326.6 C 478.4 326.6 478.5 326.5 478.5 326.4 C 478.5 326.3 478.5 322.9 478.5 322.9 C 478.5 322.8 478.4 322.7 478.3 322.7 M 477.5 325.7 C 477.2 325.9 476.9 326.1 476.6 326.1 C 476.2 326.1 475.9 325.9 475.7 325.7 C 475.4 325.4 475.3 325.1 475.3 324.6 C 475.3 324.2 475.4 323.9 475.7 323.6 C 475.9 323.4 476.2 323.2 476.6 323.2 C 476.9 323.2 477.2 323.4 477.5 323.6 C 477.7 323.9 477.8 324.2 477.8 324.6 C 477.8 325.1 477.7 325.4 477.5 325.7 M 483.1 321.3 L 482.7 321.3 C 482.6 321.3 482.5 321.4 482.5 321.5 L 482.5 322.7 C 482.5 322.9 482.5 323.0 482.5 323.2 C 482.2 322.8 481.8 322.6 481.2 322.6 C 480.9 322.6 480.6 322.7 480.3 322.9 C 480.0 323.0 479.7 323.3 479.6 323.6 C 479.4 323.9 479.3 324.2 479.3 324.6 C 479.3 325.0 479.4 325.4 479.6 325.7 C 479.7 326.0 480.0 326.3 480.2 326.4 C 480.5 326.6 480.9 326.7 481.2 326.7 C 481.5 326.7 481.8 326.6 482.0 326.5 C 482.3 326.4 482.4 326.3 482.6 326.1 L 482.6 326.4 C 482.6 326.5 482.6 326.6 482.7 326.6 L 483.1 326.6 C 483.2 326.6 483.3 326.5 483.3 326.4 C 483.3 326.3 483.3 326.3 483.3 326.2 L 483.3 321.5 C 483.3 321.4 483.2 321.3 483.1 321.3 M 482.2 325.7 C 482.0 325.9 481.7 326.1 481.3 326.1 C 481.0 326.1 480.7 325.9 480.4 325.7 C 480.2 325.4 480.1 325.1 480.1 324.6 C 480.1 324.2 480.2 323.9 480.4 323.6 C 480.7 323.4 481.0 323.2 481.3 323.2 C 481.7 323.2 482.0 323.4 482.2 323.6 C 482.5 323.9 482.6 324.2 482.6 324.6 C 482.6 325.1 482.5 325.4 482.2 325.7 M 487.9 326.6 C 488.0 326.6 488.0 326.5 488.0 326.4 C 488.0 326.3 488.0 322.9 488.0 322.9 C 488.0 322.8 488.0 322.7 487.9 322.7 L 487.5 322.7 C 487.4 322.7 487.3 322.8 487.3 322.9 L 487.3 323.2 L 487.3 323.2 C 487.0 322.8 486.6 322.6 486.0 322.6 C 485.7 322.6 485.3 322.7 485.0 322.9 C 484.8 323.0 484.5 323.3 484.4 323.6 C 484.2 323.9 484.1 324.2 484.1 324.6 C 484.1 325.0 484.2 325.4 484.4 325.7 C 484.5 326.0 484.7 326.3 485.0 326.4 C 485.3 326.6 485.6 326.7 486.0 326.7 C 486.3 326.7 486.5 326.6 486.8 326.5 C 487.0 326.4 487.2 326.3 487.4 326.1 L 487.4 326.1 L 487.4 326.4 C 487.4 326.5 487.4 326.6 487.5 326.6 Z M 487.0 325.7 C 486.8 325.9 486.5 326.1 486.1 326.1 C 485.8 326.1 485.5 325.9 485.2 325.7 C 485.0 325.4 484.9 325.1 484.9 324.6 C 484.9 324.2 485.0 323.9 485.2 323.6 C 485.5 323.4 485.8 323.2 486.1 323.2 C 486.5 323.2 486.8 323.4 487.0 323.6 C 487.2 323.9 487.4 324.2 487.4 324.6 C 487.4 325.1 487.3 325.4 487.0 325.7 "/></svg>