<?xml version="1.0" encoding="UTF-8"?><svg xmlns="http://www.w3.org/2000/svg" xmlns:xlink="http://www.w3.org/1999/xlink" viewBox="184.8 265.5 422.5 80.9"><path fill-rule="nonzero" fill="rgb(11.372375%, 11.372375%, 10.588074%)" fill-opacity="1" d="M 252.4 267.5 L 248.5 267.5 C 246.4 267.5 244.7 269.3 244.7 271.4 L 244.7 286.8 C 244.7 299.5 234.3 309.8 221.5 309.8 C 217.4 309.8 213.5 311.4 210.6 314.4 C 209.3 315.6 208.3 317.1 207.5 318.6 C 206.9 319.9 207.9 321.4 209.3 321.4 L 233.7 321.4 C 235.1 321.4 236.1 319.9 235.5 318.6 C 234.7 317.1 233.7 315.6 232.4 314.4 C 231.1 313.1 229.7 312.1 228.1 311.3 C 227.9 311.2 227.9 310.9 228.2 310.9 C 229.2 310.6 230.3 310.2 231.3 309.8 C 232.9 309.1 234.4 308.3 235.8 307.3 C 235.9 307.2 236.0 307.2 236.1 307.3 C 241.3 311.6 244.7 318.0 244.7 325.2 L 244.7 340.6 C 244.7 342.7 246.4 344.5 248.5 344.5 L 252.4 344.5 C 254.5 344.5 256.2 342.7 256.2 340.6 L 256.2 271.4 C 256.2 269.3 254.5 267.5 252.4 267.5 "/><path fill-rule="nonzero" fill="rgb(11.372375%, 11.372375%, 10.588074%)" fill-opacity="1" d="M 208.0 282.9 L 235.0 282.9 C 236.1 282.9 236.9 282.1 236.9 281 L 236.9 277.1 C 236.9 276.1 236.1 275.2 235.0 275.2 L 208.0 275.2 C 206.9 275.2 206.1 276.1 206.1 277.1 L 206.1 281 C 206.1 282.1 206.9 282.9 208.0 282.9 "/><path fill-rule="nonzero" fill="rgb(11.372375%, 11.372375%, 10.588074%)" fill-opacity="1" d="M 235.0 329.1 L 208.0 329.1 C 206.9 329.1 206.1 329.9 206.1 331.0 L 206.1 334.9 C 206.1 335.9 206.9 336.8 208.0 336.8 L 235.0 336.8 C 236.1 336.8 236.9 335.9 236.9 334.9 L 236.9 331.0 C 236.9 329.9 236.1 329.1 235.0 329.1 "/><path fill-rule="nonzero" fill="rgb(11.372375%, 11.372375%, 10.588074%)" fill-opacity="1" d="M 232.4 297.6 C 233.7 296.4 234.7 294.9 235.5 293.4 C 236.1 292.1 235.1 290.6 233.7 290.6 L 209.3 290.6 C 207.9 290.6 206.9 292.1 207.5 293.4 C 208.3 294.9 209.3 296.4 210.6 297.6 C 212.0 299.1 213.7 300.2 215.5 300.9 C 214.2 301.3 213.0 301.7 211.7 302.2 C 210.1 302.9 208.5 303.8 207.0 304.8 C 201.7 300.6 198.3 294.1 198.3 286.8 L 198.3 271.4 C 198.3 269.3 196.6 267.5 194.5 267.5 L 190.6 267.5 C 188.5 267.5 186.8 269.3 186.8 271.4 L 186.8 340.6 C 186.8 342.7 188.5 344.5 190.6 344.5 L 194.5 344.5 C 196.6 344.5 198.3 342.7 198.3 340.6 L 198.3 325.2 C 198.3 312.5 208.7 302.2 221.5 302.2 C 225.6 302.2 229.5 300.6 232.4 297.6 "/><path fill-rule="nonzero" fill="rgb(11.372375%, 11.372375%, 10.588074%)" fill-opacity="1" d="M 500.9 288.2 C 500.9 287.4 500.8 286.0 500.8 284.3 C 500.8 284.2 500.8 284.1 500.8 284.0 L 500.9 284.0 C 501.4 285.9 501.8 287.3 502.1 288.2 L 504.1 294.4 L 505.8 294.4 L 507.8 288.3 C 508.0 287.6 508.4 286.4 508.9 284.7 L 509.1 284.0 L 509.2 284.0 C 509.2 284.4 509.2 285.0 509.2 285.9 C 509.1 287.1 509.1 287.9 509.1 288.4 L 509.1 294.4 L 510.7 294.4 L 510.7 282.9 L 508.3 282.9 L 506.2 289.1 C 506.0 289.8 505.8 290.5 505.5 291.2 C 505.3 291.9 505.2 292.4 505.0 292.9 L 505.0 292.9 C 504.9 292.6 504.8 292.1 504.5 291.3 C 504.1 290.0 503.9 289.3 503.9 289.2 L 501.8 282.9 L 499.3 282.9 L 499.3 294.4 L 500.9 294.4 Z M 500.9 288.2 "/><path fill-rule="nonzero" fill="rgb(11.372375%, 11.372375%, 10.588074%)" fill-opacity="1" d="M 515.2 287.7 C 515.7 287.3 516.3 287.1 517.0 287.1 C 517.7 287.1 518.3 287.3 518.7 287.7 C 519.1 288.1 519.4 288.7 519.4 289.4 L 514.4 289.4 C 514.5 288.7 514.8 288.1 515.2 287.7 M 517.1 294.7 C 517.9 294.7 518.7 294.6 519.4 294.3 C 520.1 293.9 520.7 293.5 521.1 292.9 L 520.1 292.0 C 519.3 292.9 518.3 293.3 517.2 293.3 C 516.4 293.3 515.8 293.1 515.3 292.6 C 514.8 292.1 514.5 291.4 514.4 290.6 L 521.1 290.6 C 521.1 290.5 521.1 290.3 521.1 290.1 C 521.1 288.8 520.7 287.8 520.0 287.0 C 519.2 286.1 518.2 285.7 517.0 285.7 C 516.2 285.7 515.5 285.9 514.9 286.3 C 514.2 286.7 513.7 287.2 513.3 287.9 C 513.0 288.6 512.8 289.4 512.8 290.2 C 512.8 291.6 513.2 292.7 514 293.5 C 514.8 294.3 515.8 294.8 517.1 294.7 "/><path fill-rule="nonzero" fill="rgb(11.372375%, 11.372375%, 10.588074%)" fill-opacity="1" d="M 524.8 288.0 C 525.3 287.4 526.0 287.1 526.8 287.1 C 527.6 287.1 528.3 287.4 528.8 288.0 C 529.3 288.6 529.5 289.3 529.5 290.2 C 529.5 291.1 529.3 291.9 528.8 292.5 C 528.3 293.1 527.6 293.3 526.8 293.3 C 526.0 293.3 525.3 293.1 524.8 292.5 C 524.3 291.9 524.1 291.1 524.1 290.2 C 524.1 289.3 524.3 288.6 524.8 288.0 M 524.4 294.2 C 525.0 294.6 525.7 294.7 526.5 294.7 C 527.1 294.7 527.7 294.6 528.2 294.4 C 528.8 294.1 529.2 293.8 529.5 293.4 L 529.5 294.4 L 531.0 294.4 C 531.0 294.2 531.0 293.9 531.0 293.6 L 531.0 282.9 L 529.4 282.9 L 529.4 286.0 C 529.4 286.3 529.4 286.7 529.4 287.0 C 528.8 286.2 527.8 285.7 526.5 285.7 C 525.8 285.7 525.0 285.9 524.4 286.3 C 523.8 286.7 523.3 287.2 522.9 287.9 C 522.6 288.6 522.4 289.4 522.4 290.2 C 522.4 291.1 522.6 291.8 522.9 292.5 C 523.2 293.2 523.7 293.8 524.4 294.2 "/><path fill-rule="nonzero" fill="rgb(11.372375%, 11.372375%, 10.588074%)" fill-opacity="1" d="M 534.3 282.8 C 533.9 282.8 533.7 282.9 533.5 283.1 C 533.3 283.3 533.2 283.5 533.2 283.8 C 533.2 284.1 533.3 284.4 533.5 284.6 C 533.7 284.8 533.9 284.9 534.3 284.9 C 534.6 284.9 534.8 284.8 535.0 284.6 C 535.2 284.4 535.3 284.1 535.3 283.8 C 535.3 283.5 535.2 283.3 535.0 283.1 C 534.8 282.9 534.6 282.8 534.3 282.8 "/><path fill-rule="nonzero" fill="rgb(11.372375%, 11.372375%, 10.588074%)" fill-opacity="1" d="M 533.5 294.4 L 535.1 294.4 L 535.1 286.0 L 533.5 286.0 Z M 533.5 294.4 "/><path fill-rule="nonzero" fill="rgb(11.372375%, 11.372375%, 10.588074%)" fill-opacity="1" d="M 539.1 294.2 C 539.8 294.6 540.5 294.7 541.3 294.7 C 542.1 294.7 542.8 294.6 543.4 294.3 C 544.0 294.0 544.5 293.6 544.9 293.1 L 543.8 292.1 C 543.2 292.9 542.4 293.3 541.5 293.3 C 540.6 293.3 540.0 293.0 539.5 292.5 C 538.9 291.9 538.7 291.2 538.7 290.2 C 538.7 289.4 538.9 288.6 539.5 288.0 C 540.0 287.5 540.6 287.2 541.4 287.2 C 542.4 287.2 543.1 287.6 543.7 288.4 L 544.9 287.4 C 544.1 286.3 543.0 285.7 541.5 285.7 C 540.6 285.7 539.8 285.9 539.1 286.3 C 538.4 286.7 537.9 287.2 537.5 287.9 C 537.2 288.6 537.0 289.4 537.0 290.3 C 537.0 291.1 537.2 291.9 537.5 292.6 C 537.9 293.3 538.4 293.8 539.1 294.2 "/><path fill-rule="nonzero" fill="rgb(11.372375%, 11.372375%, 10.588074%)" fill-opacity="1" d="M 547.4 284.9 C 547.7 284.9 547.9 284.8 548.1 284.6 C 548.3 284.4 548.4 284.1 548.4 283.8 C 548.4 283.5 548.3 283.3 548.1 283.1 C 547.9 282.9 547.7 282.8 547.4 282.8 C 547.1 282.8 546.8 282.9 546.6 283.1 C 546.4 283.3 546.3 283.5 546.3 283.8 C 546.3 284.1 546.4 284.4 546.6 284.6 C 546.8 284.8 547.1 284.9 547.4 284.9 "/><path fill-rule="nonzero" fill="rgb(11.372375%, 11.372375%, 10.588074%)" fill-opacity="1" d="M 546.6 294.4 L 548.2 294.4 L 548.2 286.0 L 546.6 286.0 Z M 546.6 294.4 "/><path fill-rule="nonzero" fill="rgb(11.372375%, 11.372375%, 10.588074%)" fill-opacity="1" d="M 550.7 294.4 L 552.3 294.4 L 552.3 289.3 C 552.3 288.7 552.5 288.2 552.9 287.8 C 553.2 287.4 553.8 287.1 554.4 287.1 C 555.8 287.1 556.4 288.0 556.4 289.6 L 556.4 294.4 L 558.0 294.4 L 558.0 289.2 C 558.0 288.1 557.8 287.2 557.2 286.6 C 556.7 286.0 555.9 285.7 554.9 285.7 C 554.3 285.7 553.8 285.9 553.3 286.1 C 552.8 286.4 552.5 286.7 552.2 287.0 L 552.2 287.0 L 552.2 286.0 L 550.7 286.0 C 550.7 286.4 550.7 286.9 550.7 287.4 Z M 550.7 294.4 "/><path fill-rule="nonzero" fill="rgb(11.372375%, 11.372375%, 10.588074%)" fill-opacity="1" d="M 562.3 288.0 C 562.8 287.4 563.4 287.1 564.2 287.1 C 565.1 287.1 565.7 287.4 566.2 288.0 C 566.7 288.6 567.0 289.3 567.0 290.2 C 567.0 291.1 566.7 291.9 566.2 292.5 C 565.7 293.1 565.1 293.3 564.2 293.3 C 563.4 293.3 562.8 293.1 562.3 292.5 C 561.8 291.9 561.5 291.1 561.5 290.2 C 561.5 289.3 561.8 288.6 562.3 288.0 M 561.8 294.2 C 562.5 294.6 563.2 294.7 564.0 294.7 C 564.6 294.7 565.2 294.6 565.7 294.4 C 566.2 294.1 566.7 293.8 567.0 293.4 L 567.0 293.4 L 567.0 294.4 L 568.5 294.4 C 568.4 294.2 568.4 293.9 568.4 293.6 L 568.4 286.0 L 566.9 286.0 L 566.9 287.0 L 566.9 287.0 C 566.2 286.2 565.3 285.7 564.0 285.7 C 563.2 285.7 562.5 285.9 561.9 286.3 C 561.2 286.7 560.7 287.2 560.4 287.9 C 560.0 288.6 559.8 289.4 559.9 290.2 C 559.8 291.1 560.0 291.8 560.4 292.5 C 560.7 293.2 561.2 293.8 561.8 294.2 "/><path fill-rule="nonzero" fill="rgb(11.372375%, 11.372375%, 10.588074%)" fill-opacity="1" d="M 505.9 309.6 C 505.1 310.3 503.9 310.6 502.3 310.6 L 501.0 310.6 L 501.0 302.0 L 502.5 302.0 C 504.0 302.0 505.1 302.3 505.9 303.1 C 506.7 303.8 507.1 304.9 507.1 306.3 C 507.1 307.8 506.7 308.9 505.9 309.6 M 508.8 306.3 C 508.8 304.4 508.3 303 507.2 302.0 C 506.1 301.0 504.5 300.5 502.4 300.5 L 499.3 300.5 L 499.3 312.0 L 502.7 312.0 C 503.7 312.0 504.6 311.9 505.4 311.6 C 506.2 311.3 506.9 310.9 507.3 310.4 C 507.8 309.9 508.2 309.3 508.5 308.6 C 508.7 307.9 508.8 307.1 508.8 306.3 "/><path fill-rule="nonzero" fill="rgb(11.372375%, 11.372375%, 10.588074%)" fill-opacity="1" d="M 510.8 302.2 C 511.0 302.4 511.3 302.4 511.6 302.4 C 511.9 302.4 512.1 302.4 512.3 302.2 C 512.5 302.0 512.6 301.7 512.6 301.4 C 512.6 301.1 512.5 300.9 512.3 300.7 C 512.1 300.5 511.9 300.4 511.6 300.4 C 511.3 300.4 511.0 300.5 510.8 300.7 C 510.6 300.9 510.5 301.1 510.5 301.4 C 510.5 301.7 510.6 302.0 510.8 302.2 "/><path fill-rule="nonzero" fill="rgb(11.372375%, 11.372375%, 10.588074%)" fill-opacity="1" d="M 510.8 312.0 L 512.4 312.0 L 512.4 303.6 L 510.8 303.6 Z M 510.8 312.0 "/><path fill-rule="nonzero" fill="rgb(11.372375%, 11.372375%, 10.588074%)" fill-opacity="1" d="M 516.0 307.8 C 516.0 306.9 516.2 306.2 516.7 305.6 C 517.2 305.0 517.9 304.7 518.7 304.7 C 519.5 304.7 520.2 305.0 520.7 305.6 C 521.1 306.2 521.4 306.9 521.4 307.8 C 521.4 308.7 521.2 309.5 520.7 310.1 C 520.2 310.6 519.5 310.9 518.7 310.9 C 517.9 310.9 517.2 310.6 516.7 310.1 C 516.2 309.5 516.0 308.7 516.0 307.8 M 520.1 312.0 C 520.7 311.7 521.1 311.4 521.4 311.0 L 521.4 311.0 L 521.4 312.0 L 522.9 312.0 C 522.9 311.8 522.9 311.5 522.9 311.2 L 522.9 303.6 L 521.3 303.6 L 521.3 304.6 L 521.3 304.6 C 520.7 303.8 519.7 303.3 518.4 303.3 C 517.6 303.3 516.9 303.5 516.3 303.9 C 515.7 304.3 515.2 304.8 514.8 305.5 C 514.5 306.2 514.3 307.0 514.3 307.8 C 514.3 308.7 514.5 309.4 514.8 310.1 C 515.1 310.8 515.6 311.4 516.3 311.8 C 516.9 312.1 517.6 312.3 518.4 312.3 C 519.0 312.3 519.6 312.2 520.1 312.0 "/><path fill-rule="nonzero" fill="rgb(11.372375%, 11.372375%, 10.588074%)" fill-opacity="1" d="M 531.8 307.5 C 531.8 308.2 531.5 308.9 531.0 309.4 C 530.5 310.0 529.9 310.2 529.1 310.2 C 528.3 310.2 527.7 310.0 527.2 309.4 C 526.7 308.9 526.4 308.3 526.5 307.5 C 526.4 306.7 526.7 306.0 527.2 305.5 C 527.7 305.0 528.3 304.7 529.1 304.7 C 529.9 304.7 530.5 305.0 531.0 305.5 C 531.5 306.0 531.8 306.7 531.8 307.5 M 528.8 303.3 C 528.1 303.3 527.4 303.5 526.8 303.9 C 526.1 304.2 525.7 304.7 525.3 305.3 C 524.9 306.0 524.8 306.7 524.8 307.4 C 524.8 308.2 524.9 308.9 525.3 309.6 C 525.6 310.2 526.1 310.7 526.7 311.1 C 527.3 311.4 528.0 311.6 528.8 311.6 C 529.4 311.6 530.0 311.5 530.5 311.2 C 531.0 310.9 531.5 310.6 531.8 310.3 L 531.8 310.3 C 531.8 310.4 531.8 310.7 531.8 310.9 C 531.8 311.9 531.5 312.6 531.0 313 C 530.5 313.4 529.8 313.7 529.0 313.7 C 527.8 313.7 526.8 313.3 525.9 312.4 L 524.9 313.6 C 526.0 314.6 527.3 315.1 528.8 315.1 C 529.5 315.1 530.0 315.0 530.6 314.9 C 531.1 314.7 531.5 314.4 531.9 314.1 C 532.4 313.8 532.7 313.4 532.9 312.8 C 533.1 312.3 533.2 311.7 533.2 311.0 L 533.2 304.8 L 533.2 304.0 C 533.2 303.8 533.2 303.7 533.2 303.6 L 531.7 303.6 L 531.7 304.5 L 531.7 304.5 C 531.4 304.2 531.0 303.9 530.5 303.7 C 530.0 303.4 529.5 303.3 528.8 303.3 "/><path fill-rule="nonzero" fill="rgb(11.372375%, 11.372375%, 10.588074%)" fill-opacity="1" d="M 537.3 312.0 L 537.3 306.9 C 537.3 306.3 537.5 305.8 537.9 305.4 C 538.3 304.9 538.8 304.7 539.5 304.7 C 540.8 304.7 541.5 305.6 541.5 307.2 L 541.5 312.0 L 543.1 312.0 L 543.1 306.8 C 543.1 305.7 542.8 304.8 542.3 304.2 C 541.7 303.6 540.9 303.3 539.9 303.3 C 539.4 303.3 538.9 303.5 538.4 303.7 C 537.9 304.0 537.5 304.3 537.3 304.6 L 537.3 304.6 L 537.3 303.6 L 535.7 303.6 C 535.7 304.0 535.7 304.5 535.7 305.0 L 535.7 312.0 Z M 537.3 312.0 "/><path fill-rule="nonzero" fill="rgb(11.372375%, 11.372375%, 10.588074%)" fill-opacity="1" d="M 547.4 305.6 C 547.9 305.0 548.6 304.7 549.4 304.7 C 550.2 304.7 550.8 305.0 551.4 305.6 C 551.9 306.2 552.1 307.0 552.1 307.8 C 552.1 308.7 551.9 309.5 551.4 310.1 C 550.8 310.7 550.2 310.9 549.4 310.9 C 548.5 310.9 547.9 310.7 547.3 310.1 C 546.8 309.5 546.6 308.7 546.6 307.8 C 546.6 307.0 546.8 306.2 547.4 305.6 M 549.4 312.3 C 550.0 312.3 550.6 312.2 551.2 312.0 C 551.7 311.8 552.2 311.5 552.6 311.1 C 553.0 310.7 553.3 310.2 553.5 309.7 C 553.7 309.1 553.8 308.5 553.8 307.9 C 553.8 307.0 553.6 306.2 553.3 305.5 C 552.9 304.8 552.3 304.3 551.7 303.9 C 551.0 303.5 550.2 303.3 549.4 303.3 C 548.5 303.3 547.7 303.5 547.1 303.9 C 546.4 304.3 545.8 304.8 545.5 305.5 C 545.1 306.2 544.9 307.0 544.9 307.9 C 544.9 309.2 545.3 310.2 546.1 311.1 C 547.0 311.9 548.1 312.3 549.4 312.3 "/><path fill-rule="nonzero" fill="rgb(11.372375%, 11.372375%, 10.588074%)" fill-opacity="1" d="M 549.8 302.6 L 552.1 300.5 L 550.0 300.5 L 548.1 302.6 Z M 549.8 302.6 "/><path fill-rule="nonzero" fill="rgb(11.372375%, 11.372375%, 10.588074%)" fill-opacity="1" d="M 560.7 307.6 C 560.3 307.5 559.8 307.3 559.3 307.2 L 558.6 307.0 C 558.0 306.9 557.5 306.7 557.2 306.5 C 557.0 306.4 556.8 306.1 556.8 305.8 C 556.8 305.4 557.0 305.1 557.3 305.0 C 557.6 304.8 558.0 304.7 558.5 304.7 C 558.9 304.7 559.3 304.8 559.6 304.9 C 560.0 305.1 560.3 305.3 560.5 305.6 L 561.7 304.7 C 561.3 304.2 560.9 303.9 560.3 303.7 C 559.8 303.5 559.2 303.4 558.6 303.4 C 558.0 303.3 557.4 303.4 556.9 303.6 C 556.4 303.9 556.0 304.2 555.7 304.6 C 555.4 305.0 555.2 305.4 555.3 305.9 C 555.3 306.3 555.3 306.6 555.4 306.9 C 555.6 307.2 555.7 307.4 556.0 307.6 C 556.2 307.7 556.5 307.9 556.7 308 C 557.0 308.1 557.4 308.2 557.8 308.3 L 558.7 308.6 C 559.3 308.7 559.8 308.9 560 309.0 C 560.2 309.2 560.4 309.5 560.4 309.8 C 560.4 310.2 560.2 310.5 559.9 310.7 C 559.5 311.0 559.0 311.1 558.5 311.1 C 557.6 311.1 556.8 310.7 556.1 310.0 L 554.9 310.9 C 555.7 311.9 556.9 312.4 558.4 312.4 C 558.9 312.4 559.4 312.3 559.8 312.2 C 560.2 312.1 560.6 311.9 560.9 311.7 C 561.3 311.4 561.5 311.2 561.7 310.8 C 561.9 310.4 562.0 310.0 562.0 309.6 C 562.0 308.7 561.6 308.0 560.7 307.6 "/><path fill-rule="nonzero" fill="rgb(11.372375%, 11.372375%, 10.588074%)" fill-opacity="1" d="M 564.2 312.0 L 565.8 312.0 L 565.8 305.0 L 568.2 305.0 L 568.2 303.6 L 565.8 303.6 L 565.8 301.3 L 564.2 301.3 L 564.2 303.6 L 563.1 303.6 L 563.1 305.0 L 564.2 305.0 Z M 564.2 312.0 "/><path fill-rule="nonzero" fill="rgb(11.372375%, 11.372375%, 10.588074%)" fill-opacity="1" d="M 570.3 302.4 C 570.6 302.4 570.9 302.4 571.1 302.2 C 571.3 302.0 571.4 301.7 571.4 301.4 C 571.4 301.1 571.3 300.9 571.1 300.7 C 570.9 300.5 570.6 300.4 570.3 300.4 C 570 300.4 569.7 300.5 569.5 300.7 C 569.4 300.9 569.3 301.1 569.3 301.4 C 569.3 301.7 569.4 302.0 569.5 302.2 C 569.7 302.4 570 302.4 570.3 302.4 "/><path fill-rule="nonzero" fill="rgb(11.372375%, 11.372375%, 10.588074%)" fill-opacity="1" d="M 569.5 312.0 L 571.1 312.0 L 571.1 303.6 L 569.5 303.6 Z M 569.5 312.0 "/><path fill-rule="nonzero" fill="rgb(11.372375%, 11.372375%, 10.588074%)" fill-opacity="1" d="M 579.5 311.9 C 580.1 311.6 580.6 311.2 581 310.7 L 579.8 309.7 C 579.2 310.5 578.5 310.9 577.5 310.9 C 576.7 310.9 576.0 310.6 575.5 310.1 C 575.0 309.5 574.7 308.7 574.7 307.8 C 574.7 307.0 575.0 306.2 575.5 305.6 C 576.0 305.0 576.7 304.8 577.5 304.8 C 578.4 304.8 579.2 305.2 579.7 306.0 L 581.0 304.9 C 580.2 303.9 579.0 303.3 577.5 303.3 C 576.6 303.3 575.9 303.5 575.2 303.9 C 574.5 304.3 574.0 304.8 573.6 305.5 C 573.2 306.2 573.0 307.0 573.0 307.9 C 573.0 308.7 573.2 309.5 573.6 310.2 C 574.0 310.8 574.5 311.4 575.1 311.8 C 575.8 312.1 576.6 312.3 577.4 312.3 C 578.2 312.3 578.9 312.2 579.5 311.9 "/><path fill-rule="nonzero" fill="rgb(11.372375%, 11.372375%, 10.588074%)" fill-opacity="1" d="M 584.4 310.1 C 583.9 309.5 583.6 308.7 583.6 307.8 C 583.6 306.9 583.9 306.2 584.4 305.6 C 584.9 305.0 585.5 304.7 586.3 304.7 C 587.2 304.7 587.8 305.0 588.3 305.6 C 588.8 306.2 589.0 306.9 589.0 307.8 C 589.1 308.7 588.8 309.5 588.3 310.1 C 587.8 310.6 587.1 310.9 586.3 310.9 C 585.5 310.9 584.9 310.6 584.4 310.1 M 589.0 311.0 L 589.1 311.0 L 589.1 312.0 L 590.5 312.0 C 590.5 311.8 590.5 311.5 590.5 311.2 L 590.5 303.6 L 589.0 303.6 L 589.0 304.6 L 588.9 304.6 C 588.3 303.8 587.3 303.3 586.1 303.3 C 585.3 303.3 584.6 303.5 583.9 303.9 C 583.3 304.3 582.8 304.8 582.5 305.5 C 582.1 306.2 581.9 307.0 581.9 307.8 C 581.9 308.7 582.1 309.4 582.4 310.1 C 582.8 310.8 583.3 311.4 583.9 311.8 C 584.6 312.1 585.3 312.3 586.1 312.3 C 586.7 312.3 587.3 312.2 587.8 312.0 C 588.3 311.7 588.8 311.4 589.0 311.0 "/><path fill-rule="nonzero" fill="rgb(11.372375%, 11.372375%, 10.588074%)" fill-opacity="1" d="M 500.9 324.5 L 505.8 324.5 L 505.8 323.0 L 500.9 323.0 L 500.9 319.6 L 506.2 319.6 L 506.2 318.1 L 499.3 318.1 L 499.3 329.6 L 506.3 329.6 L 506.3 328.2 L 500.9 328.2 Z M 500.9 324.5 "/><path fill-rule="nonzero" fill="rgb(11.372375%, 11.372375%, 10.588074%)" fill-opacity="1" d="M 513.3 325.2 C 512.9 325.1 512.4 324.9 511.9 324.8 L 511.3 324.6 C 510.6 324.5 510.1 324.3 509.9 324.1 C 509.6 324.0 509.4 323.7 509.4 323.4 C 509.4 323.0 509.6 322.7 509.9 322.6 C 510.2 322.4 510.6 322.3 511.1 322.3 C 511.5 322.3 511.9 322.3 512.3 322.5 C 512.6 322.7 512.9 322.9 513.1 323.1 L 514.3 322.2 C 514.0 321.8 513.5 321.5 513.0 321.3 C 512.4 321.1 511.8 320.9 511.2 320.9 C 510.6 320.9 510.0 321.0 509.5 321.2 C 509.0 321.4 508.6 321.7 508.3 322.1 C 508.0 322.6 507.9 323.0 507.9 323.5 C 507.9 323.9 507.9 324.2 508.1 324.5 C 508.2 324.7 508.4 325.0 508.6 325.1 C 508.8 325.3 509.1 325.5 509.4 325.6 C 509.6 325.7 510.0 325.8 510.4 325.9 L 511.3 326.2 C 511.9 326.3 512.4 326.5 512.6 326.6 C 512.9 326.8 513.0 327.0 513.0 327.4 C 513.0 327.8 512.8 328.1 512.5 328.3 C 512.1 328.6 511.7 328.7 511.1 328.7 C 510.2 328.7 509.4 328.3 508.7 327.6 L 507.5 328.5 C 508.3 329.5 509.5 329.9 511.0 329.9 C 511.5 329.9 512.0 329.9 512.4 329.8 C 512.8 329.7 513.2 329.5 513.5 329.3 C 513.9 329.0 514.1 328.8 514.3 328.4 C 514.5 328.0 514.6 327.6 514.6 327.2 C 514.6 326.3 514.2 325.6 513.3 325.2 "/><path fill-rule="nonzero" fill="rgb(11.372375%, 11.372375%, 10.588074%)" fill-opacity="1" d="M 522.6 327.6 C 522.1 328.2 521.4 328.5 520.6 328.5 C 519.8 328.5 519.1 328.2 518.6 327.6 C 518.1 327.1 517.9 326.3 517.9 325.4 C 517.9 324.5 518.1 323.8 518.6 323.2 C 519.1 322.6 519.8 322.3 520.6 322.3 C 521.4 322.3 522.1 322.6 522.6 323.2 C 523.1 323.8 523.3 324.5 523.3 325.4 C 523.3 326.3 523.1 327.1 522.6 327.6 M 523.0 321.5 C 522.4 321.1 521.7 320.9 520.9 320.9 C 520.3 320.9 519.7 321.0 519.2 321.3 C 518.7 321.5 518.3 321.9 518.0 322.3 L 518.0 322.3 L 518.0 321.7 C 518.0 321.6 518.0 321.4 518.0 321.2 L 516.4 321.2 C 516.4 321.6 516.4 322.1 516.4 322.6 L 516.4 332.5 L 518.0 332.5 L 518.0 330.7 C 518.0 329.8 518.0 329.1 518.0 328.6 C 518.3 329.0 518.7 329.4 519.2 329.6 C 519.7 329.8 520.2 329.9 520.8 329.9 C 521.6 329.9 522.3 329.7 523.0 329.4 C 523.6 329.0 524.1 328.4 524.5 327.7 C 524.8 327.1 525.0 326.3 525.0 325.4 C 525.0 324.6 524.8 323.8 524.5 323.1 C 524.1 322.4 523.7 321.9 523.0 321.5 "/><path fill-rule="nonzero" fill="rgb(11.372375%, 11.372375%, 10.588074%)" fill-opacity="1" d="M 528.7 322.9 C 529.2 322.5 529.8 322.3 530.5 322.3 C 531.2 322.3 531.8 322.5 532.2 322.9 C 532.6 323.3 532.9 323.8 532.9 324.6 L 527.9 324.6 C 528.0 323.9 528.3 323.3 528.7 322.9 M 530.7 328.5 C 529.9 328.5 529.3 328.3 528.8 327.8 C 528.3 327.3 528.0 326.6 527.9 325.8 L 534.6 325.8 C 534.6 325.7 534.6 325.5 534.6 325.3 C 534.6 324.0 534.2 323.0 533.5 322.1 C 532.7 321.3 531.8 320.9 530.5 320.9 C 529.7 320.9 529.0 321.1 528.4 321.5 C 527.7 321.9 527.2 322.4 526.8 323.1 C 526.5 323.8 526.3 324.6 526.3 325.4 C 526.3 326.8 526.7 327.9 527.5 328.7 C 528.3 329.5 529.3 329.9 530.6 329.9 C 531.4 329.9 532.2 329.8 532.9 329.4 C 533.6 329.1 534.2 328.7 534.6 328.1 L 533.6 327.1 C 532.8 328.1 531.8 328.5 530.7 328.5 "/><path fill-rule="nonzero" fill="rgb(11.372375%, 11.372375%, 10.588074%)" fill-opacity="1" d="M 540.4 328.5 C 539.6 328.5 538.9 328.2 538.4 327.6 C 537.9 327.1 537.6 326.3 537.6 325.4 C 537.6 324.5 537.8 323.8 538.4 323.2 C 538.9 322.6 539.6 322.3 540.3 322.4 C 541.3 322.4 542.0 322.8 542.6 323.6 L 543.8 322.5 C 543.1 321.5 541.9 320.9 540.4 320.9 C 539.5 320.9 538.7 321.1 538.0 321.5 C 537.4 321.9 536.8 322.4 536.5 323.1 C 536.1 323.8 535.9 324.6 535.9 325.5 C 535.9 326.3 536.1 327.1 536.4 327.8 C 536.8 328.4 537.3 329.0 538.0 329.4 C 538.7 329.7 539.4 329.9 540.2 329.9 C 541.0 329.9 541.7 329.8 542.3 329.5 C 542.9 329.2 543.5 328.8 543.9 328.3 L 542.7 327.3 C 542.1 328.1 541.3 328.5 540.4 328.5 "/><path fill-rule="nonzero" fill="rgb(11.372375%, 11.372375%, 10.588074%)" fill-opacity="1" d="M 545.5 329.6 L 547.1 329.6 L 547.1 321.2 L 545.5 321.2 Z M 545.5 329.6 "/><path fill-rule="nonzero" fill="rgb(11.372375%, 11.372375%, 10.588074%)" fill-opacity="1" d="M 546.3 318.0 C 546.0 318.0 545.7 318.1 545.5 318.3 C 545.3 318.5 545.2 318.7 545.2 319.0 C 545.2 319.3 545.3 319.6 545.5 319.8 C 545.7 319.9 546.0 320.0 546.3 320.0 C 546.6 320.0 546.8 319.9 547.0 319.8 C 547.2 319.6 547.3 319.3 547.3 319.0 C 547.3 318.7 547.2 318.5 547.0 318.3 C 546.8 318.1 546.6 318.0 546.3 318.0 "/><path fill-rule="nonzero" fill="rgb(11.372375%, 11.372375%, 10.588074%)" fill-opacity="1" d="M 555.4 327.6 C 554.9 328.2 554.2 328.5 553.4 328.5 C 552.6 328.5 551.9 328.2 551.4 327.6 C 550.9 327.1 550.7 326.3 550.7 325.4 C 550.7 324.5 550.9 323.8 551.4 323.2 C 551.9 322.6 552.6 322.3 553.4 322.3 C 554.2 322.3 554.9 322.6 555.4 323.2 C 555.9 323.7 556.1 324.5 556.1 325.4 C 556.1 326.3 555.9 327.1 555.4 327.6 M 557.6 321.2 L 556.0 321.2 L 556.0 322.2 L 556.0 322.2 C 555.4 321.4 554.4 320.9 553.1 320.9 C 552.4 320.9 551.7 321.1 551.0 321.5 C 550.4 321.9 549.9 322.4 549.5 323.1 C 549.2 323.8 549 324.6 549.0 325.4 C 549.0 326.3 549.2 327.0 549.5 327.7 C 549.9 328.4 550.3 329.0 551.0 329.3 C 551.6 329.7 552.3 329.9 553.2 329.9 C 553.8 329.9 554.3 329.8 554.9 329.6 C 555.4 329.3 555.8 329.0 556.1 328.6 L 556.1 328.6 L 556.1 329.6 L 557.6 329.6 C 557.6 329.4 557.6 329.1 557.6 328.8 Z M 557.6 321.2 "/><path fill-rule="nonzero" fill="rgb(11.372375%, 11.372375%, 10.588074%)" fill-opacity="1" d="M 560.1 329.6 L 561.7 329.6 L 561.7 318.1 L 560.1 318.1 Z M 560.1 329.6 "/><path fill-rule="nonzero" fill="rgb(11.372375%, 11.372375%, 10.588074%)" fill-opacity="1" d="M 564.2 329.6 L 565.8 329.6 L 565.8 321.2 L 564.2 321.2 Z M 564.2 329.6 "/><path fill-rule="nonzero" fill="rgb(11.372375%, 11.372375%, 10.588074%)" fill-opacity="1" d="M 565.0 318.0 C 564.7 318.0 564.4 318.1 564.2 318.3 C 564 318.5 563.9 318.7 563.9 319.0 C 563.9 319.3 564 319.6 564.2 319.8 C 564.4 319.9 564.7 320.0 565.0 320.0 C 565.3 320.0 565.5 319.9 565.7 319.8 C 565.9 319.6 566.0 319.3 566.0 319.0 C 566.0 318.7 565.9 318.5 565.7 318.3 C 565.5 318.1 565.3 318.0 565.0 318.0 "/><path fill-rule="nonzero" fill="rgb(11.372375%, 11.372375%, 10.588074%)" fill-opacity="1" d="M 569.5 328.3 L 569.5 328.2 C 569.8 328.0 570.0 327.7 570.3 327.4 C 570.5 327.2 570.8 326.9 571.0 326.6 L 574.4 322.5 L 574.4 321.2 L 567.7 321.2 L 567.7 322.6 L 570.8 322.6 L 571.7 322.6 C 571.8 322.6 572.1 322.6 572.5 322.6 L 572.5 322.6 C 572.4 322.7 572.2 322.9 571.9 323.3 L 571.3 323.9 L 567.6 328.4 L 567.6 329.6 L 574.5 329.6 L 574.5 328.2 L 571.2 328.2 C 570.6 328.2 570.1 328.2 569.5 328.3 "/><path fill-rule="nonzero" fill="rgb(11.372375%, 11.372375%, 10.588074%)" fill-opacity="1" d="M 582.0 327.6 C 581.5 328.2 580.9 328.5 580.1 328.5 C 579.2 328.5 578.6 328.2 578.1 327.6 C 577.6 327.1 577.3 326.3 577.3 325.4 C 577.3 324.5 577.6 323.8 578.1 323.2 C 578.6 322.6 579.2 322.3 580.1 322.3 C 580.9 322.3 581.5 322.6 582.0 323.2 C 582.5 323.7 582.8 324.5 582.8 325.4 C 582.8 326.3 582.5 327.1 582.0 327.6 M 584.3 321.2 L 582.7 321.2 L 582.7 322.2 L 582.7 322.2 C 582.0 321.4 581.1 320.9 579.8 320.9 C 579.0 320.9 578.3 321.1 577.7 321.5 C 577.0 321.9 576.5 322.4 576.2 323.1 C 575.8 323.8 575.7 324.6 575.7 325.4 C 575.7 326.3 575.8 327.0 576.2 327.7 C 576.5 328.4 577.0 329.0 577.6 329.3 C 578.3 329.7 579.0 329.9 579.8 329.9 C 580.4 329.9 581.0 329.8 581.5 329.6 C 582.1 329.3 582.5 329.0 582.8 328.6 L 582.8 328.6 L 582.8 329.6 L 584.3 329.6 C 584.3 329.4 584.3 329.1 584.3 328.8 Z M 584.3 321.2 "/><path fill-rule="nonzero" fill="rgb(11.372375%, 11.372375%, 10.588074%)" fill-opacity="1" d="M 592.5 327.6 C 592.0 328.2 591.4 328.5 590.5 328.5 C 589.7 328.5 589.1 328.2 588.6 327.6 C 588.1 327.1 587.8 326.3 587.8 325.4 C 587.8 324.5 588.1 323.8 588.6 323.2 C 589.1 322.6 589.7 322.3 590.5 322.3 C 591.4 322.3 592.0 322.6 592.5 323.2 C 593.0 323.7 593.3 324.5 593.3 325.4 C 593.3 326.3 593.0 327.1 592.5 327.6 M 594.7 318.1 L 593.1 318.1 L 593.1 321.2 C 593.1 321.5 593.1 321.9 593.1 322.2 C 592.5 321.4 591.5 320.9 590.3 320.9 C 589.5 320.9 588.8 321.1 588.2 321.5 C 587.5 321.9 587.0 322.4 586.7 323.1 C 586.3 323.8 586.1 324.6 586.2 325.4 C 586.1 326.3 586.3 327.0 586.7 327.7 C 587 328.4 587.5 329.0 588.1 329.3 C 588.8 329.7 589.5 329.9 590.3 329.9 C 590.9 329.9 591.5 329.8 592 329.5 C 592.5 329.3 593.0 329.0 593.2 328.6 L 593.2 329.6 L 594.8 329.6 C 594.7 329.4 594.7 329.1 594.7 328.8 Z M 594.7 318.1 "/><path fill-rule="nonzero" fill="rgb(11.372375%, 11.372375%, 10.588074%)" fill-opacity="1" d="M 603.0 327.6 C 602.5 328.2 601.8 328.5 601.0 328.5 C 600.2 328.5 599.6 328.2 599.1 327.6 C 598.6 327.1 598.3 326.3 598.3 325.4 C 598.3 324.5 598.6 323.8 599.1 323.2 C 599.6 322.6 600.2 322.3 601.0 322.3 C 601.9 322.3 602.5 322.6 603.0 323.2 C 603.5 323.7 603.7 324.5 603.7 325.4 C 603.8 326.3 603.5 327.1 603.0 327.6 M 605.2 329.6 C 605.2 329.4 605.2 329.1 605.2 328.8 L 605.2 321.2 L 603.7 321.2 L 603.7 322.2 L 603.6 322.2 C 603.0 321.4 602.0 320.9 600.8 320.9 C 600.0 320.9 599.3 321.1 598.7 321.5 C 598.0 321.9 597.5 322.4 597.2 323.1 C 596.8 323.8 596.6 324.6 596.6 325.4 C 596.6 326.3 596.8 327.0 597.1 327.7 C 597.5 328.4 598.0 329.0 598.6 329.3 C 599.3 329.7 600.0 329.9 600.8 329.9 C 601.4 329.9 602.0 329.8 602.5 329.6 C 603.0 329.3 603.5 329.0 603.7 328.6 L 603.8 328.6 L 603.8 329.6 Z M 605.2 329.6 "/><path fill-rule="nonzero" fill="rgb(11.372375%, 11.372375%, 10.588074%)" fill-opacity="1" d="M 479.3 344.5 L 480.1 344.5 L 480.1 267.6 L 479.3 267.6 Z M 479.3 344.5 "/><path fill-rule="nonzero" fill="rgb(11.372375%, 11.372375%, 10.588074%)" fill-opacity="1" d="M 399.7 319.5 C 398.8 320.4 397.6 320.9 396.2 320.9 C 394.9 320.9 393.7 320.4 392.8 319.5 C 391.9 318.5 391.5 317.2 391.5 315.7 C 391.5 314.2 391.9 312.9 392.8 311.9 C 393.7 310.9 394.9 310.4 396.2 310.4 C 397.6 310.4 398.8 310.9 399.6 311.9 C 400.5 312.9 401.0 314.2 401.0 315.7 C 401.0 317.2 400.5 318.5 399.7 319.5 M 400.2 309.0 C 399.0 308.3 397.7 308 396.2 308.0 C 394.8 308 393.5 308.3 392.3 309.0 C 391.2 309.6 390.3 310.5 389.6 311.7 C 389.0 312.9 388.7 314.2 388.7 315.7 C 388.7 317.9 389.3 319.8 390.8 321.2 C 392.2 322.6 394.0 323.3 396.2 323.3 C 397.3 323.3 398.4 323.1 399.3 322.8 C 400.3 322.4 401.1 321.9 401.7 321.2 C 402.4 320.5 402.9 319.7 403.3 318.8 C 403.6 317.8 403.8 316.8 403.8 315.7 C 403.8 314.2 403.5 312.9 402.9 311.7 C 402.2 310.5 401.3 309.6 400.2 309.0 "/><path fill-rule="nonzero" fill="rgb(11.372375%, 11.372375%, 10.588074%)" fill-opacity="1" d="M 384.8 303.3 L 383.3 303.3 C 383.0 303.3 382.7 303.5 382.7 303.9 L 382.7 322.2 C 382.7 322.5 383.0 322.8 383.3 322.8 L 384.8 322.8 C 385.2 322.8 385.4 322.5 385.4 322.2 L 385.4 303.9 C 385.4 303.5 385.2 303.3 384.8 303.3 "/><path fill-rule="nonzero" fill="rgb(11.372375%, 11.372375%, 10.588074%)" fill-opacity="1" d="M 416.7 318.4 C 415.8 319.3 414.7 319.7 413.4 319.7 C 412.0 319.7 411.0 319.3 410.1 318.4 C 409.3 317.5 408.9 316.4 408.9 315.1 C 408.9 313.7 409.3 312.6 410.1 311.7 C 411.0 310.8 412.0 310.3 413.4 310.4 C 414.7 310.4 415.8 310.8 416.7 311.7 C 417.5 312.6 417.9 313.7 417.9 315.1 C 418.0 316.4 417.5 317.5 416.7 318.4 M 420.4 309.1 C 420.4 308.7 420.1 308.5 419.8 308.5 L 418.4 308.5 C 418.1 308.5 417.8 308.7 417.8 309.1 L 417.8 310.1 L 417.8 310.1 C 417.3 309.4 416.6 308.9 415.8 308.6 C 415.0 308.2 414.0 308.0 413.0 308.0 C 411.7 308 410.5 308.3 409.4 308.9 C 408.4 309.5 407.5 310.4 406.9 311.4 C 406.3 312.5 406.0 313.7 406.1 315.0 C 406.0 316.3 406.3 317.5 406.9 318.6 C 407.5 319.7 408.3 320.5 409.3 321.1 C 410.4 321.8 411.6 322.1 412.9 322.0 C 413.9 322.0 414.9 321.8 415.8 321.4 C 416.7 320.9 417.4 320.4 417.9 319.8 L 418.0 319.8 C 417.9 320.1 417.9 320.5 417.9 320.9 C 417.9 322.6 417.5 323.7 416.6 324.4 C 415.7 325.2 414.6 325.6 413.2 325.6 C 411.4 325.6 409.8 325.0 408.4 323.9 C 408.2 323.7 407.8 323.7 407.6 323.9 L 406.6 325.1 C 406.4 325.3 406.4 325.7 406.7 325.9 C 408.4 327.3 410.5 328.0 412.9 328.0 C 414.0 328.0 415.0 327.9 415.9 327.6 C 416.8 327.3 417.5 326.9 418.2 326.4 C 418.9 325.8 419.5 325.1 419.9 324.2 C 420.2 323.3 420.4 322.2 420.4 321.1 L 420.4 310.4 L 420.4 309.1 Z M 420.4 309.1 "/><path fill-rule="nonzero" fill="rgb(11.372375%, 11.372375%, 10.588074%)" fill-opacity="1" d="M 328.7 308.0 C 327.4 308.0 326.4 308.3 325.5 308.8 C 324.7 309.3 324.0 309.8 323.6 310.5 L 323.6 310.5 C 322.7 308.8 321.2 308.0 319.0 308.0 C 318.1 308.0 317.2 308.2 316.4 308.7 C 315.5 309.1 315.0 309.6 314.6 310.2 L 314.6 310.2 L 314.6 309.1 C 314.6 308.7 314.3 308.5 314.0 308.5 L 312.5 308.5 C 312.2 308.5 311.9 308.7 311.9 309.1 C 311.9 309.6 311.9 310.2 311.9 310.8 L 311.9 322.2 C 311.9 322.5 312.2 322.8 312.5 322.8 L 314.1 322.8 C 314.4 322.8 314.7 322.5 314.7 322.2 L 314.7 314.1 C 314.7 313.1 315.0 312.2 315.6 311.5 C 316.2 310.8 317.1 310.4 318.2 310.4 C 319.4 310.4 320.3 310.7 320.8 311.5 C 321.3 312.2 321.6 313.2 321.6 314.6 L 321.6 322.2 C 321.6 322.5 321.9 322.8 322.2 322.8 L 323.7 322.8 C 324.1 322.8 324.3 322.5 324.3 322.2 L 324.3 314.1 C 324.3 313.1 324.6 312.2 325.3 311.5 C 325.9 310.8 326.8 310.4 327.9 310.4 C 329.1 310.4 329.9 310.7 330.4 311.5 C 331.0 312.2 331.2 313.2 331.2 314.6 L 331.2 322.2 C 331.2 322.5 331.5 322.8 331.8 322.8 L 333.4 322.8 C 333.7 322.8 334.0 322.5 334.0 322.2 L 334.0 313.8 C 334.0 312.0 333.5 310.6 332.6 309.5 C 331.7 308.5 330.4 308.0 328.7 308.0 "/><path fill-rule="nonzero" fill="rgb(11.372375%, 11.372375%, 10.588074%)" fill-opacity="1" d="M 375.3 319.5 C 374.4 320.4 373.3 320.9 371.9 320.9 C 370.5 320.9 369.4 320.4 368.5 319.5 C 367.6 318.5 367.2 317.2 367.2 315.7 C 367.2 314.2 367.6 312.9 368.5 311.9 C 369.4 310.9 370.5 310.4 371.9 310.4 C 373.3 310.4 374.4 310.9 375.3 311.9 C 376.2 312.9 376.6 314.2 376.6 315.7 C 376.6 317.2 376.2 318.5 375.3 319.5 M 375.8 309.0 C 374.7 308.3 373.4 308 371.9 308.0 C 370.4 308 369.1 308.3 368.0 309.0 C 366.8 309.6 365.9 310.5 365.3 311.7 C 364.6 312.9 364.3 314.2 364.3 315.7 C 364.3 317.9 365.0 319.8 366.4 321.2 C 367.9 322.6 369.7 323.3 371.9 323.3 C 373.0 323.3 374.0 323.1 375.0 322.8 C 375.9 322.4 376.7 321.9 377.4 321.2 C 378.0 320.5 378.6 319.7 378.9 318.8 C 379.3 317.8 379.5 316.8 379.5 315.7 C 379.5 314.2 379.2 312.9 378.5 311.7 C 377.9 310.5 377.0 309.6 375.8 309.0 "/><path fill-rule="nonzero" fill="rgb(11.372375%, 11.372375%, 10.588074%)" fill-opacity="1" d="M 394.8 306.7 L 396.9 306.7 C 397.0 306.7 397.0 306.7 397.1 306.6 L 400.4 303.8 C 400.6 303.6 400.5 303.3 400.2 303.3 L 397.5 303.3 C 397.4 303.3 397.3 303.3 397.3 303.4 L 394.6 306.2 C 394.4 306.4 394.5 306.7 394.8 306.7 "/><path fill-rule="nonzero" fill="rgb(11.372375%, 11.372375%, 10.588074%)" fill-opacity="1" d="M 347.9 319.4 C 347.0 320.4 345.9 320.9 344.5 320.9 C 343.1 320.9 342.0 320.4 341.2 319.4 C 340.3 318.4 339.9 317.2 339.9 315.6 C 339.9 314.1 340.3 312.8 341.2 311.9 C 342.0 310.9 343.1 310.4 344.5 310.4 C 345.9 310.4 347.0 310.9 347.9 311.8 C 348.7 312.8 349.1 314.1 349.1 315.6 C 349.1 317.2 348.7 318.4 347.9 319.4 M 351.7 309.1 C 351.7 308.7 351.4 308.5 351.1 308.5 L 349.6 308.5 C 349.3 308.5 349.0 308.7 349.0 309.1 L 349.0 310.2 L 349.0 310.2 C 347.9 308.8 346.2 308.0 344.1 308.0 C 342.8 308 341.6 308.3 340.5 309.0 C 339.4 309.6 338.5 310.6 337.9 311.7 C 337.3 312.9 337.0 314.2 337.1 315.6 C 337.0 317.1 337.3 318.4 337.9 319.6 C 338.5 320.7 339.3 321.7 340.4 322.3 C 341.5 323.0 342.7 323.3 344.1 323.3 C 345.1 323.3 346.1 323.1 347.0 322.7 C 347.9 322.2 348.6 321.7 349.1 321.1 L 349.2 321.1 L 349.2 322.2 C 349.2 322.5 349.4 322.8 349.8 322.8 L 351.1 322.8 C 351.4 322.8 351.7 322.5 351.7 322.2 C 351.7 321.9 351.7 321.7 351.7 321.3 Z M 351.7 309.1 "/><path fill-rule="nonzero" fill="rgb(11.372375%, 11.372375%, 10.588074%)" fill-opacity="1" d="M 426.8 308.5 L 425.3 308.5 C 424.9 308.5 424.7 308.7 424.7 309.1 L 424.7 322.2 C 424.7 322.5 424.9 322.8 425.3 322.8 L 426.8 322.8 C 427.1 322.8 427.4 322.5 427.4 322.2 L 427.4 309.1 C 427.4 308.7 427.1 308.5 426.8 308.5 "/><path fill-rule="nonzero" fill="rgb(11.372375%, 11.372375%, 10.588074%)" fill-opacity="1" d="M 290.5 303.3 L 288.8 303.3 C 288.5 303.3 288.2 303.5 288.2 303.9 L 288.2 311.5 L 278.5 311.5 L 278.5 303.9 C 278.5 303.5 278.2 303.3 277.9 303.3 L 276.2 303.3 C 275.8 303.3 275.6 303.5 275.6 303.9 L 275.6 322.2 C 275.6 322.5 275.8 322.8 276.2 322.8 L 277.9 322.8 C 278.2 322.8 278.5 322.5 278.5 322.2 L 278.5 314.0 L 288.2 314.0 L 288.2 322.2 C 288.2 322.5 288.5 322.8 288.8 322.8 L 290.5 322.8 C 290.8 322.8 291.1 322.5 291.1 322.2 L 291.1 303.9 C 291.1 303.5 290.8 303.3 290.5 303.3 "/><path fill-rule="nonzero" fill="rgb(11.372375%, 11.372375%, 10.588074%)" fill-opacity="1" d="M 442.6 319.2 C 442.4 319.0 442.0 319.0 441.8 319.3 C 440.8 320.3 439.6 320.9 438.2 320.9 C 436.8 320.9 435.7 320.4 434.8 319.4 C 433.9 318.5 433.5 317.2 433.5 315.7 C 433.5 314.2 433.9 312.9 434.8 311.9 C 435.7 310.9 436.8 310.4 438.2 310.4 C 439.6 310.4 440.7 311.0 441.6 312 C 441.8 312.2 442.2 312.3 442.4 312.1 L 443.7 311.1 C 443.9 310.9 444.0 310.5 443.7 310.3 C 442.4 308.8 440.6 308.0 438.2 308.0 C 436.8 308 435.4 308.3 434.3 309.0 C 433.1 309.6 432.2 310.6 431.6 311.8 C 430.9 312.9 430.6 314.3 430.6 315.7 C 430.6 317.2 430.9 318.4 431.5 319.6 C 432.2 320.8 433.1 321.7 434.2 322.3 C 435.3 323.0 436.6 323.3 438.0 323.3 C 439.3 323.3 440.5 323.1 441.6 322.6 C 442.4 322.2 443.1 321.7 443.8 321.0 C 444.0 320.8 444.0 320.4 443.7 320.2 Z M 442.6 319.2 "/><path fill-rule="nonzero" fill="rgb(11.372375%, 11.372375%, 10.588074%)" fill-opacity="1" d="M 362.3 320.5 C 362.2 320.2 361.8 320.1 361.5 320.2 C 361.1 320.5 360.6 320.6 360.0 320.6 C 359.3 320.6 358.7 320.4 358.3 319.9 C 357.9 319.5 357.7 318.9 357.7 318.1 L 357.7 310.8 L 361.3 310.8 C 361.6 310.8 361.9 310.5 361.9 310.2 L 361.9 309.1 C 361.9 308.7 361.6 308.5 361.3 308.5 L 357.7 308.5 L 357.7 305.1 C 357.7 304.8 357.4 304.6 357.1 304.6 L 355.7 304.6 C 355.4 304.6 355.1 304.8 355.1 305.1 L 355.1 318.2 C 355.1 319.7 355.5 320.8 356.3 321.6 C 357.1 322.4 358.2 322.8 359.7 322.8 C 360.3 322.8 360.9 322.7 361.4 322.5 C 361.8 322.4 362.2 322.2 362.5 322.1 C 362.7 321.9 362.8 321.6 362.7 321.3 Z M 362.3 320.5 "/><path fill-rule="nonzero" fill="rgb(11.372375%, 11.372375%, 10.588074%)" fill-opacity="1" d="M 456.7 319.5 C 455.8 320.4 454.7 320.9 453.3 320.9 C 451.9 320.9 450.8 320.4 449.9 319.5 C 449.0 318.5 448.6 317.2 448.6 315.7 C 448.6 314.2 449.0 312.9 449.9 311.9 C 450.8 310.9 451.9 310.4 453.3 310.4 C 454.7 310.4 455.8 310.9 456.7 311.9 C 457.6 312.9 458.0 314.2 458.0 315.7 C 458.0 317.2 457.6 318.5 456.7 319.5 M 457.2 309.0 C 456.1 308.3 454.8 308 453.3 308.0 C 451.9 308 450.6 308.3 449.4 309.0 C 448.2 309.6 447.3 310.5 446.7 311.7 C 446.0 312.9 445.7 314.2 445.8 315.7 C 445.7 317.9 446.4 319.8 447.8 321.2 C 449.3 322.6 451.1 323.3 453.3 323.3 C 454.4 323.3 455.4 323.1 456.4 322.8 C 457.3 322.4 458.1 321.9 458.8 321.2 C 459.5 320.5 460.0 319.7 460.3 318.8 C 460.7 317.8 460.9 316.8 460.9 315.7 C 460.9 314.2 460.6 312.9 459.9 311.7 C 459.3 310.5 458.4 309.6 457.2 309.0 "/><path fill-rule="nonzero" fill="rgb(11.372375%, 11.372375%, 10.588074%)" fill-opacity="1" d="M 426.0 303.0 C 425.5 303.0 425.0 303.2 424.7 303.5 C 424.4 303.8 424.2 304.3 424.2 304.8 C 424.2 305.3 424.4 305.7 424.7 306.0 C 425.0 306.3 425.5 306.5 426.0 306.5 C 426.5 306.5 426.9 306.3 427.3 306.0 C 427.6 305.7 427.8 305.3 427.8 304.8 C 427.8 304.3 427.6 303.8 427.3 303.5 C 426.9 303.2 426.5 303.0 426.0 303.0 "/><path fill-rule="nonzero" fill="rgb(11.372375%, 11.372375%, 10.588074%)" fill-opacity="1" d="M 305.5 314.2 L 297.4 314.2 C 297.5 313.0 298.0 312.0 298.7 311.4 C 299.5 310.7 300.5 310.3 301.7 310.3 C 303.0 310.3 304.0 310.7 304.7 311.3 C 305.3 312.0 305.7 312.8 305.8 313.9 C 305.9 314.0 305.7 314.2 305.5 314.2 M 301.8 308.0 C 300.5 308 299.2 308.3 298.1 309.0 C 297.0 309.6 296.2 310.6 295.6 311.7 C 294.9 312.9 294.6 314.2 294.6 315.6 C 294.6 317.9 295.3 319.8 296.7 321.2 C 298.0 322.6 299.8 323.3 301.9 323.3 C 303.4 323.3 304.7 323.0 305.9 322.5 C 306.9 322.0 307.7 321.4 308.4 320.7 C 308.6 320.4 308.6 320.1 308.4 319.8 L 307.4 319.0 C 307.2 318.8 306.8 318.8 306.6 319.0 C 305.3 320.3 303.8 320.9 302.1 320.9 C 300.8 320.9 299.7 320.5 298.8 319.6 C 298.0 318.8 297.5 317.7 297.4 316.3 L 308.1 316.3 C 308.4 316.3 308.7 316.0 308.7 315.7 C 308.7 315.6 308.7 315.5 308.7 315.4 C 308.7 313.3 308.1 311.5 306.8 310.1 C 305.6 308.7 303.9 308.0 301.8 308.0 "/><path fill-rule="nonzero" fill="rgb(11.372375%, 11.372375%, 10.588074%)" fill-opacity="1" d="M 395.7 294.9 L 395.7 287.5 C 395.7 287.3 395.6 287.1 395.4 287.1 L 394.5 287.1 C 394.3 287.1 394.2 287.3 394.2 287.5 L 394.2 294.9 C 394.2 295.1 394.3 295.2 394.5 295.2 L 395.4 295.2 C 395.6 295.2 395.7 295.1 395.7 294.9 "/><path fill-rule="nonzero" fill="rgb(11.372375%, 11.372375%, 10.588074%)" fill-opacity="1" d="M 275.9 295.2 L 281.7 295.2 C 281.9 295.2 282.1 295.1 282.1 294.9 L 282.1 294.2 C 282.1 294.0 281.9 293.8 281.7 293.8 L 277.5 293.8 C 277.4 293.8 277.2 293.7 277.2 293.5 L 277.2 284.6 C 277.2 284.4 277.1 284.2 276.9 284.2 L 275.9 284.2 C 275.7 284.2 275.6 284.4 275.6 284.6 L 275.6 294.9 C 275.6 295.1 275.7 295.2 275.9 295.2 "/><path fill-rule="nonzero" fill="rgb(11.372375%, 11.372375%, 10.588074%)" fill-opacity="1" d="M 353.6 291.2 C 353.6 290.4 353.8 289.7 354.3 289.1 C 354.8 288.5 355.4 288.2 356.2 288.2 C 357.0 288.2 357.6 288.5 358.1 289.1 C 358.6 289.7 358.9 290.4 358.9 291.2 C 358.9 292.1 358.6 292.8 358.1 293.3 C 357.6 293.9 357.0 294.2 356.2 294.2 C 355.4 294.2 354.8 293.9 354.3 293.3 C 353.8 292.8 353.6 292.1 353.6 291.2 M 357.9 295.2 C 358.5 295.0 358.9 294.7 359.3 294.3 C 359.7 293.9 360.0 293.5 360.2 292.9 C 360.4 292.4 360.5 291.8 360.5 291.2 C 360.5 290.4 360.3 289.6 359.9 289.0 C 359.6 288.3 359.1 287.8 358.4 287.4 C 357.8 287.1 357.0 286.9 356.2 286.9 C 355.4 286.9 354.7 287.1 354.0 287.4 C 353.4 287.8 352.9 288.3 352.5 289.0 C 352.1 289.6 352.0 290.4 352.0 291.2 C 351.9 292.5 352.3 293.5 353.1 294.3 C 353.9 295.1 355.0 295.5 356.2 295.5 C 356.8 295.5 357.4 295.4 357.9 295.2 "/><path fill-rule="nonzero" fill="rgb(11.372375%, 11.372375%, 10.588074%)" fill-opacity="1" d="M 334.6 291.2 C 334.6 290.4 334.8 289.7 335.3 289.1 C 335.8 288.5 336.5 288.2 337.3 288.2 C 338.0 288.2 338.7 288.5 339.2 289.1 C 339.7 289.7 339.9 290.4 339.9 291.2 C 339.9 292.1 339.7 292.8 339.2 293.3 C 338.7 293.9 338.0 294.2 337.3 294.2 C 336.5 294.2 335.8 293.9 335.3 293.3 C 334.8 292.8 334.6 292.1 334.6 291.2 M 339.0 295.2 C 339.5 295.0 340.0 294.7 340.3 294.3 C 340.7 293.9 341.0 293.5 341.2 292.9 C 341.4 292.4 341.5 291.8 341.5 291.2 C 341.5 290.4 341.4 289.6 341.0 289.0 C 340.6 288.3 340.1 287.8 339.5 287.4 C 338.8 287.1 338.1 286.9 337.3 286.9 C 336.4 286.9 335.7 287.1 335.1 287.4 C 334.4 287.8 333.9 288.3 333.5 289.0 C 333.2 289.6 333.0 290.4 333.0 291.2 C 333.0 292.5 333.4 293.5 334.2 294.3 C 335.0 295.1 336.0 295.5 337.3 295.5 C 337.9 295.5 338.5 295.4 339.0 295.2 "/><path fill-rule="nonzero" fill="rgb(11.372375%, 11.372375%, 10.588074%)" fill-opacity="1" d="M 382.1 287.1 L 381.2 287.1 C 381.1 287.1 380.9 287.3 380.9 287.5 L 380.9 294.9 C 380.9 295.1 381.1 295.2 381.2 295.2 L 382.1 295.2 C 382.3 295.2 382.5 295.1 382.5 294.9 L 382.5 287.5 C 382.5 287.3 382.3 287.1 382.1 287.1 "/><path fill-rule="nonzero" fill="rgb(11.372375%, 11.372375%, 10.588074%)" fill-opacity="1" d="M 309.0 293.3 C 308.5 293.9 307.9 294.2 307.1 294.2 C 306.3 294.2 305.7 293.9 305.2 293.3 C 304.7 292.8 304.4 292.1 304.4 291.2 C 304.4 290.4 304.7 289.7 305.2 289.1 C 305.7 288.5 306.3 288.2 307.1 288.2 C 307.9 288.2 308.5 288.5 309.0 289.1 C 309.5 289.7 309.8 290.4 309.8 291.2 C 309.8 292.1 309.5 292.8 309.0 293.3 M 309.3 287.4 C 308.7 287.1 307.9 286.9 307.1 286.9 C 306.3 286.9 305.5 287.1 304.9 287.4 C 304.2 287.8 303.7 288.3 303.4 289.0 C 303.0 289.6 302.8 290.4 302.8 291.2 C 302.8 292.5 303.2 293.5 304.0 294.3 C 304.8 295.1 305.9 295.5 307.1 295.5 C 307.7 295.5 308.3 295.4 308.8 295.2 C 309.4 295.0 309.8 294.7 310.2 294.3 C 310.6 293.9 310.8 293.5 311.1 292.9 C 311.3 292.4 311.4 291.8 311.4 291.2 C 311.4 290.4 311.2 289.6 310.8 289.0 C 310.5 288.3 310.0 287.8 309.3 287.4 "/><path fill-rule="nonzero" fill="rgb(11.372375%, 11.372375%, 10.588074%)" fill-opacity="1" d="M 295.5 289.1 C 296.0 288.5 296.6 288.2 297.4 288.2 C 298.1 288.2 298.8 288.5 299.3 289.0 C 299.7 289.6 300.0 290.3 300.0 291.2 C 300.0 292.0 299.7 292.8 299.3 293.3 C 298.8 293.9 298.1 294.2 297.4 294.2 C 296.6 294.2 295.9 293.9 295.5 293.3 C 295.0 292.8 294.8 292.0 294.8 291.2 C 294.8 290.3 295 289.6 295.5 289.1 M 294.8 294.9 L 294.8 294.2 C 295.1 294.6 295.5 294.9 296.0 295.2 C 296.5 295.4 297.0 295.5 297.6 295.5 C 298.3 295.5 299.0 295.3 299.6 295.0 C 300.3 294.6 300.7 294.1 301.1 293.4 C 301.4 292.8 301.6 292.0 301.6 291.2 C 301.6 290.4 301.4 289.7 301.1 289.0 C 300.8 288.3 300.3 287.8 299.7 287.4 C 299.1 287.1 298.4 286.9 297.6 286.9 C 297.1 286.9 296.5 287.0 296.0 287.2 C 295.6 287.5 295.2 287.8 294.9 288.2 L 294.9 288.2 C 294.9 287.4 294.9 286.7 294.9 285.9 L 294.9 284.6 C 294.9 284.4 294.7 284.2 294.5 284.2 L 293.7 284.2 C 293.5 284.2 293.3 284.4 293.3 284.6 L 293.3 294.9 C 293.3 295.1 293.5 295.2 293.7 295.2 L 294.5 295.2 C 294.6 295.2 294.8 295.1 294.8 294.9 "/><path fill-rule="nonzero" fill="rgb(11.372375%, 11.372375%, 10.588074%)" fill-opacity="1" d="M 404.3 293.2 C 404.1 293.1 403.9 293.1 403.8 293.2 C 403.3 293.8 402.6 294.1 401.8 294.1 C 401.0 294.1 400.4 293.9 399.9 293.3 C 399.4 292.8 399.2 292.1 399.2 291.2 C 399.1 290.4 399.4 289.7 399.9 289.1 C 400.4 288.5 401.0 288.3 401.8 288.3 C 402.6 288.3 403.2 288.6 403.7 289.1 C 403.8 289.3 404.0 289.3 404.2 289.2 L 404.9 288.6 C 405.0 288.5 405.0 288.3 404.9 288.2 C 404.2 287.3 403.1 286.9 401.8 286.9 C 401.0 286.9 400.2 287.1 399.6 287.4 C 398.9 287.8 398.4 288.3 398.1 289 C 397.7 289.7 397.5 290.4 397.5 291.2 C 397.5 292.0 397.7 292.8 398.0 293.4 C 398.4 294.1 398.9 294.6 399.5 295.0 C 400.2 295.3 400.9 295.5 401.7 295.5 C 402.4 295.5 403.1 295.4 403.7 295.1 C 404.2 294.9 404.6 294.6 404.9 294.2 C 405.0 294.1 405.0 293.9 404.9 293.7 Z M 404.3 293.2 "/><path fill-rule="nonzero" fill="rgb(11.372375%, 11.372375%, 10.588074%)" fill-opacity="1" d="M 408.4 289.1 C 408.9 288.5 409.5 288.2 410.3 288.2 C 411.1 288.2 411.7 288.5 412.2 289.1 C 412.7 289.7 413.0 290.4 412.9 291.2 C 413.0 292.1 412.7 292.8 412.2 293.3 C 411.7 293.9 411.1 294.2 410.3 294.2 C 409.5 294.2 408.9 293.9 408.4 293.3 C 407.9 292.8 407.6 292.1 407.6 291.2 C 407.6 290.4 407.9 289.7 408.4 289.1 M 410.3 295.5 C 410.9 295.5 411.5 295.4 412.0 295.2 C 412.6 295.0 413.0 294.7 413.4 294.3 C 413.8 293.9 414.0 293.5 414.2 292.9 C 414.5 292.4 414.6 291.8 414.6 291.2 C 414.6 290.4 414.4 289.6 414.0 289.0 C 413.7 288.3 413.2 287.8 412.5 287.4 C 411.9 287.1 411.1 286.9 410.3 286.9 C 409.5 286.9 408.7 287.1 408.1 287.4 C 407.4 287.8 406.9 288.3 406.6 289.0 C 406.2 289.6 406.0 290.4 406.0 291.2 C 406.0 292.5 406.4 293.5 407.2 294.3 C 408.0 295.1 409.0 295.5 410.3 295.5 "/><path fill-rule="nonzero" fill="rgb(11.372375%, 11.372375%, 10.588074%)" fill-opacity="1" d="M 384.3 284.2 L 382.7 284.2 C 382.7 284.2 382.6 284.2 382.6 284.3 L 381.1 285.9 C 381.0 286.0 381.1 286.2 381.2 286.2 L 382.4 286.2 C 382.4 286.2 382.5 286.1 382.5 286.1 L 384.4 284.5 C 384.5 284.4 384.4 284.2 384.3 284.2 "/><path fill-rule="nonzero" fill="rgb(11.372375%, 11.372375%, 10.588074%)" fill-opacity="1" d="M 390.3 290.6 L 390.3 294.9 C 390.3 295.1 390.5 295.2 390.7 295.2 L 391.6 295.2 C 391.7 295.2 391.9 295.1 391.9 294.9 L 391.9 290.2 C 391.9 289.1 391.6 288.3 391.1 287.8 C 390.6 287.2 389.8 286.9 388.9 286.9 C 388.3 286.9 387.8 287.0 387.3 287.3 C 386.9 287.5 386.5 287.8 386.3 288.1 L 386.3 288.1 L 386.3 287.5 C 386.3 287.3 386.2 287.1 386.0 287.1 L 385.2 287.1 C 385.0 287.1 384.8 287.3 384.8 287.5 C 384.8 287.8 384.8 288.1 384.8 288.5 L 384.8 294.9 C 384.8 295.1 385.0 295.2 385.2 295.2 L 386.0 295.2 C 386.2 295.2 386.4 295.1 386.4 294.9 L 386.4 290.3 C 386.4 289.7 386.6 289.2 386.9 288.8 C 387.3 288.4 387.8 288.2 388.4 288.2 C 389.7 288.2 390.3 289.0 390.3 290.6 "/><path fill-rule="nonzero" fill="rgb(11.372375%, 11.372375%, 10.588074%)" fill-opacity="1" d="M 320.0 289.1 C 320.4 288.5 321.1 288.2 321.9 288.2 C 322.6 288.2 323.3 288.5 323.7 289.0 C 324.2 289.6 324.4 290.3 324.4 291.2 C 324.5 292.0 324.2 292.8 323.7 293.3 C 323.3 293.9 322.6 294.2 321.9 294.2 C 321.1 294.2 320.4 293.9 320.0 293.3 C 319.5 292.8 319.2 292.0 319.3 291.2 C 319.2 290.3 319.5 289.6 320.0 289.1 M 319.5 294.9 C 320.2 295.3 320.8 295.5 321.6 295.5 C 322.2 295.5 322.7 295.4 323.2 295.1 C 323.8 294.9 324.2 294.6 324.4 294.2 L 324.5 294.2 L 324.5 294.9 C 324.5 295.1 324.6 295.2 324.8 295.2 L 325.5 295.2 C 325.7 295.2 325.9 295.1 325.9 294.9 C 325.9 294.7 325.9 287.5 325.9 287.5 C 325.9 287.3 325.7 287.1 325.5 287.1 L 324.7 287.1 C 324.5 287.1 324.4 287.3 324.4 287.5 L 324.4 288.1 L 324.4 288.1 C 323.7 287.3 322.8 286.9 321.6 286.9 C 320.9 286.9 320.2 287.1 319.6 287.4 C 319.0 287.8 318.5 288.3 318.1 289.0 C 317.8 289.6 317.6 290.4 317.7 291.2 C 317.6 292.0 317.8 292.7 318.1 293.4 C 318.5 294.1 318.9 294.6 319.5 294.9 "/><path fill-rule="nonzero" fill="rgb(11.372375%, 11.372375%, 10.588074%)" fill-opacity="1" d="M 349.8 287.1 L 348.9 287.1 C 348.8 287.1 348.6 287.3 348.6 287.5 L 348.6 294.9 C 348.6 295.1 348.8 295.2 348.9 295.2 L 349.8 295.2 C 350.0 295.2 350.1 295.1 350.1 294.9 L 350.1 287.5 C 350.1 287.3 350.0 287.1 349.8 287.1 "/><path fill-rule="nonzero" fill="rgb(11.372375%, 11.372375%, 10.588074%)" fill-opacity="1" d="M 368.2 294.7 C 369.0 295.2 370.0 295.4 371.1 295.4 C 372.0 295.4 372.8 295.2 373.6 294.8 C 374.2 294.5 374.8 294.1 375.2 293.6 C 375.3 293.4 375.3 293.2 375.1 293.1 L 374.4 292.7 C 374.2 292.6 374.1 292.6 374.0 292.8 C 373.2 293.6 372.3 294.1 371.2 294.1 C 370.5 294.1 369.8 293.9 369.2 293.5 C 368.6 293.2 368.1 292.6 367.7 292.0 C 367.4 291.3 367.2 290.6 367.3 289.7 C 367.2 288.9 367.4 288.2 367.7 287.5 C 368.0 286.9 368.5 286.3 369.1 285.9 C 369.7 285.6 370.4 285.4 371.2 285.4 C 372.3 285.4 373.2 285.8 373.9 286.7 C 374.0 286.8 374.2 286.8 374.3 286.8 L 375.1 286.3 C 375.3 286.2 375.3 286 375.2 285.8 C 374.8 285.3 374.3 284.9 373.7 284.6 C 373.0 284.2 372.2 284.0 371.3 284.0 C 370.4 284.0 369.7 284.1 369.0 284.4 C 368.3 284.7 367.7 285.1 367.2 285.6 C 366.7 286.1 366.3 286.7 366.0 287.5 C 365.7 288.2 365.6 288.9 365.6 289.8 C 365.6 290.9 365.8 291.8 366.3 292.7 C 366.7 293.6 367.4 294.2 368.2 294.7 "/><path fill-rule="nonzero" fill="rgb(11.372375%, 11.372375%, 10.588074%)" fill-opacity="1" d="M 349.4 286.1 C 349.6 286.1 349.9 286.0 350.1 285.8 C 350.3 285.6 350.4 285.4 350.4 285.1 C 350.4 284.8 350.3 284.5 350.1 284.4 C 349.9 284.2 349.6 284.1 349.4 284.1 C 349.1 284.1 348.8 284.2 348.6 284.4 C 348.4 284.5 348.3 284.8 348.3 285.1 C 348.3 285.4 348.4 285.6 348.6 285.8 C 348.8 286.0 349.1 286.1 349.4 286.1 "/><path fill-rule="nonzero" fill="rgb(11.372375%, 11.372375%, 10.588074%)" fill-opacity="1" d="M 377.3 295.2 L 378.2 295.2 C 378.4 295.2 378.5 295.1 378.5 294.9 L 378.5 284.6 C 378.5 284.4 378.4 284.2 378.2 284.2 L 377.3 284.2 C 377.1 284.2 377.0 284.4 377.0 284.6 L 377.0 294.9 C 377.0 295.1 377.1 295.2 377.3 295.2 "/><path fill-rule="nonzero" fill="rgb(11.372375%, 11.372375%, 10.588074%)" fill-opacity="1" d="M 327.9 288.5 L 328.6 288.5 L 328.6 294.9 C 328.6 295.1 328.8 295.2 329.0 295.2 L 329.8 295.2 C 330.0 295.2 330.2 295.1 330.2 294.9 L 330.2 288.5 L 332.1 288.5 C 332.3 288.5 332.5 288.3 332.5 288.1 L 332.5 287.5 C 332.5 287.3 332.3 287.1 332.1 287.1 L 330.2 287.1 L 330.2 285.3 C 330.2 285.1 330.0 284.9 329.8 284.9 L 329.0 284.9 C 328.8 284.9 328.6 285.1 328.6 285.3 L 328.6 287.1 L 327.9 287.1 C 327.7 287.1 327.6 287.3 327.6 287.5 L 327.6 288.1 C 327.6 288.3 327.7 288.5 327.9 288.5 "/><path fill-rule="nonzero" fill="rgb(11.372375%, 11.372375%, 10.588074%)" fill-opacity="1" d="M 313.2 294.9 C 313.2 295.1 313.3 295.2 313.5 295.2 L 314.4 295.2 C 314.6 295.2 314.7 295.1 314.7 294.9 L 314.7 291.0 C 314.7 290.6 314.7 290.3 314.8 290.1 C 314.8 289.8 314.9 289.6 314.9 289.3 C 315.0 289.1 315.1 288.9 315.2 288.8 C 315.4 288.7 315.5 288.6 315.7 288.5 C 315.9 288.4 316.2 288.4 316.5 288.3 C 316.6 288.3 316.7 288.4 316.8 288.4 C 316.9 288.4 317.0 288.3 317.0 288.2 L 317.0 287.1 C 317.0 287.0 317.0 287.0 316.9 287.0 C 316.8 286.9 316.7 286.9 316.6 286.9 C 316.1 286.9 315.7 287.1 315.4 287.3 C 315.0 287.5 314.8 287.8 314.7 288.2 L 314.7 288.2 L 314.7 287.5 C 314.7 287.3 314.5 287.1 314.3 287.1 L 313.5 287.1 C 313.3 287.1 313.2 287.3 313.2 287.5 C 313.2 287.8 313.2 288.1 313.2 288.5 Z M 313.2 294.9 "/><path fill-rule="nonzero" fill="rgb(11.372375%, 11.372375%, 10.588074%)" fill-opacity="1" d="M 343.3 294.9 C 343.3 295.1 343.5 295.2 343.7 295.2 L 344.5 295.2 C 344.7 295.2 344.9 295.1 344.9 294.9 L 344.9 291.0 C 344.9 290.6 344.9 290.3 344.9 290.1 C 345.0 289.8 345.0 289.6 345.1 289.3 C 345.2 289.1 345.3 288.9 345.4 288.8 C 345.5 288.7 345.7 288.6 345.9 288.5 C 346.1 288.4 346.3 288.4 346.6 288.3 C 346.8 288.3 346.9 288.4 347 288.4 C 347.1 288.4 347.2 288.3 347.2 288.2 L 347.2 287.1 C 347.2 287.0 347.1 287.0 347.0 287.0 C 346.9 286.9 346.9 286.9 346.8 286.9 C 346.3 286.9 345.9 287.1 345.6 287.3 C 345.2 287.5 345.0 287.8 344.8 288.2 L 344.8 288.2 L 344.8 287.5 C 344.8 287.3 344.7 287.1 344.5 287.1 L 343.7 287.1 C 343.5 287.1 343.3 287.3 343.3 287.5 C 343.3 287.8 343.3 288.1 343.3 288.5 Z M 343.3 294.9 "/><path fill-rule="nonzero" fill="rgb(11.372375%, 11.372375%, 10.588074%)" fill-opacity="1" d="M 394.9 286.1 C 395.2 286.1 395.5 286.0 395.6 285.8 C 395.8 285.6 395.9 285.4 395.9 285.1 C 395.9 284.8 395.8 284.5 395.6 284.4 C 395.5 284.2 395.2 284.1 394.9 284.1 C 394.6 284.1 394.4 284.2 394.2 284.4 C 394 284.5 393.9 284.8 393.9 285.1 C 393.9 285.4 394 285.6 394.2 285.8 C 394.4 286.0 394.6 286.1 394.9 286.1 "/><path fill-rule="nonzero" fill="rgb(11.372375%, 11.372375%, 10.588074%)" fill-opacity="1" d="M 285.1 289.1 C 285.5 288.5 286.2 288.2 287.0 288.2 C 287.7 288.2 288.4 288.5 288.8 289.0 C 289.3 289.6 289.5 290.3 289.5 291.2 C 289.6 292.0 289.3 292.8 288.8 293.3 C 288.4 293.9 287.7 294.2 287.0 294.2 C 286.2 294.2 285.5 293.9 285.1 293.3 C 284.6 292.8 284.3 292.0 284.4 291.2 C 284.3 290.3 284.6 289.6 285.1 289.1 M 284.6 294.9 C 285.2 295.3 285.9 295.5 286.7 295.5 C 287.3 295.5 287.8 295.4 288.4 295.1 C 288.9 294.9 289.3 294.6 289.5 294.2 L 289.6 294.2 L 289.6 294.9 C 289.6 295.1 289.7 295.2 289.9 295.2 L 290.6 295.2 C 290.8 295.2 291.0 295.1 291.0 294.9 C 291.0 293.6 291.0 288.8 291.0 287.5 C 291.0 287.3 290.8 287.1 290.6 287.1 L 289.8 287.1 C 289.6 287.1 289.5 287.3 289.5 287.5 L 289.5 288.1 L 289.5 288.1 C 288.8 287.3 287.9 286.9 286.7 286.9 C 286.0 286.9 285.3 287.1 284.7 287.4 C 284.1 287.8 283.6 288.3 283.2 289.0 C 282.9 289.6 282.7 290.4 282.8 291.2 C 282.8 292.0 282.9 292.7 283.2 293.4 C 283.6 294.1 284.0 294.6 284.6 294.9 "/></svg>