<?xml version="1.0" encoding="UTF-8"?>
<svg xmlns="http://www.w3.org/2000/svg" xmlns:xlink="http://www.w3.org/1999/xlink" width="960pt" height="540pt" viewBox="0 0 960 540">
<defs>
<g>
<g id="glyph-0-0">
<path d="M 4.015625 -0.578125 L 0.828125 -8.40625 L 0.046875 -8.40625 L 3.546875 0 L 4.484375 0 L 7.984375 -8.40625 L 7.21875 -8.40625 Z M 4.015625 -0.578125 "/>
</g>
<g id="glyph-0-1">
<path d="M 1.796875 -4.625 L 1.796875 -7.796875 L 7.71875 -7.796875 L 7.71875 -8.40625 L 1.109375 -8.40625 L 1.109375 0 L 7.890625 0 L 7.890625 -0.59375 L 1.796875 -0.59375 L 1.796875 -4.015625 L 7.25 -4.015625 L 7.25 -4.625 Z M 1.796875 -4.625 "/>
</g>
<g id="glyph-0-2">
<path d="M 1.796875 -7.796875 L 5.203125 -7.796875 C 6.015625 -7.796875 6.953125 -7.734375 7.421875 -7.25 C 7.65625 -7 7.78125 -6.59375 7.78125 -6.234375 C 7.78125 -5.8125 7.625 -5.328125 7.28125 -5 C 6.734375 -4.46875 5.859375 -4.421875 5.453125 -4.421875 L 1.796875 -4.421875 Z M 1.109375 0 L 1.796875 0 L 1.796875 -3.828125 L 5.453125 -3.828125 C 5.921875 -3.828125 6.640625 -3.765625 7.046875 -3.34375 C 7.359375 -3.03125 7.40625 -2.59375 7.421875 -2.203125 L 7.46875 -1.125 C 7.484375 -0.53125 7.59375 -0.234375 7.765625 0 L 8.5625 0 C 8.34375 -0.25 8.21875 -0.578125 8.203125 -1.125 L 8.140625 -2.25 C 8.125 -2.71875 8.0625 -3.28125 7.640625 -3.671875 C 7.625 -3.703125 7.28125 -4.015625 6.703125 -4.109375 L 6.703125 -4.140625 C 7.203125 -4.21875 7.65625 -4.453125 7.96875 -4.78125 C 8.265625 -5.09375 8.515625 -5.546875 8.515625 -6.234375 C 8.515625 -6.859375 8.296875 -7.375 8 -7.6875 C 7.375 -8.359375 6.203125 -8.40625 5.203125 -8.40625 L 1.109375 -8.40625 Z M 1.109375 0 "/>
</g>
<g id="glyph-0-3">
<path d="M 0.640625 -2.625 C 0.609375 -1.875 0.859375 -0.796875 1.890625 -0.265625 C 2.640625 0.140625 3.5625 0.1875 4.46875 0.1875 C 5.34375 0.1875 6.140625 0.125 6.828125 -0.203125 C 7.4375 -0.5 8.140625 -1.09375 8.140625 -2.234375 C 8.140625 -2.875 7.9375 -3.421875 7.375 -3.828125 C 6.796875 -4.265625 5.96875 -4.390625 5.359375 -4.484375 L 4.046875 -4.703125 C 3.25 -4.84375 2.40625 -4.9375 1.9375 -5.328125 C 1.6875 -5.53125 1.5 -5.859375 1.5 -6.34375 C 1.5 -7.03125 1.84375 -7.453125 2.359375 -7.734375 C 2.796875 -7.953125 3.390625 -8.09375 4.265625 -8.09375 C 5.4375 -8.09375 6.015625 -7.859375 6.265625 -7.71875 C 7 -7.3125 7.125 -6.75 7.140625 -6.28125 L 7.859375 -6.28125 C 7.84375 -6.953125 7.65625 -7.65625 6.75 -8.171875 C 6.15625 -8.515625 5.359375 -8.671875 4.265625 -8.671875 C 2.921875 -8.671875 2.234375 -8.40625 1.84375 -8.1875 C 0.9375 -7.640625 0.78125 -6.796875 0.78125 -6.265625 C 0.78125 -5.71875 0.953125 -5.296875 1.40625 -4.9375 C 2.046875 -4.46875 3.15625 -4.3125 3.875 -4.1875 L 5.140625 -3.96875 C 6.046875 -3.8125 6.53125 -3.671875 6.84375 -3.4375 C 7.109375 -3.25 7.421875 -2.890625 7.421875 -2.265625 C 7.421875 -1.78125 7.25 -1.109375 6.46875 -0.71875 C 6.125 -0.546875 5.5625 -0.390625 4.484375 -0.390625 C 3.59375 -0.390625 3 -0.484375 2.5625 -0.65625 C 2.03125 -0.859375 1.359375 -1.3125 1.359375 -2.5625 L 1.359375 -2.625 Z M 0.640625 -2.625 "/>
</g>
<g id="glyph-0-4">
<path d="M 1.109375 -8.40625 L 1.109375 0 L 1.796875 0 L 1.796875 -8.40625 Z M 1.109375 -8.40625 "/>
</g>
<g id="glyph-0-5">
<path d="M 5.4375 -8.078125 C 6.46875 -8.078125 7.53125 -7.734375 8.25 -7.0625 C 8.9375 -6.40625 9.359375 -5.359375 9.359375 -4.203125 C 9.359375 -3.046875 8.9375 -1.984375 8.25 -1.328125 C 7.53125 -0.65625 6.46875 -0.328125 5.4375 -0.328125 C 4.40625 -0.328125 3.34375 -0.65625 2.625 -1.328125 C 1.9375 -1.984375 1.515625 -3.046875 1.515625 -4.203125 C 1.515625 -5.359375 1.9375 -6.40625 2.625 -7.0625 C 3.34375 -7.734375 4.40625 -8.078125 5.4375 -8.078125 Z M 10.109375 -4.203125 C 10.109375 -5.109375 9.921875 -6.390625 8.90625 -7.40625 C 8.359375 -7.953125 7.296875 -8.65625 5.453125 -8.65625 C 3.703125 -8.65625 2.609375 -8.015625 1.984375 -7.40625 C 1.40625 -6.828125 0.796875 -5.84375 0.796875 -4.203125 C 0.796875 -2.5625 1.40625 -1.578125 1.984375 -1 C 2.40625 -0.59375 3.453125 0.25 5.453125 0.25 C 7.4375 0.25 8.5 -0.59375 8.90625 -1 C 9.484375 -1.578125 10.109375 -2.5625 10.109375 -4.203125 Z M 6.1875 -10.703125 L 5.171875 -9.125 L 5.6875 -9.125 L 7.0625 -10.703125 Z M 6.1875 -10.703125 "/>
</g>
<g id="glyph-0-6">
<path d="M 1.796875 -7.578125 L 7.90625 0 L 8.765625 0 L 8.765625 -8.40625 L 8.0625 -8.40625 L 8.0625 -0.828125 L 1.96875 -8.40625 L 1.109375 -8.40625 L 1.109375 0 L 1.796875 0 Z M 1.796875 -7.578125 "/>
</g>
<g id="glyph-0-7">
</g>
<g id="glyph-0-8">
<path d="M 1.78125 -6.578125 L 3.75 -6.578125 L 3.75 0 L 4.46875 0 L 4.46875 -8.40625 L 4.0625 -8.40625 C 4.015625 -8.09375 3.859375 -7.71875 3.609375 -7.46875 C 3.1875 -7.046875 2.453125 -6.953125 1.953125 -6.953125 L 1.78125 -6.953125 Z M 1.78125 -6.578125 "/>
</g>
<g id="glyph-0-9">
<path d="M 7.140625 -0.59375 L 1.625 -0.59375 C 1.671875 -1.0625 1.828125 -1.453125 2.203125 -1.828125 C 2.65625 -2.296875 3.4375 -2.703125 4.78125 -3.4375 C 5.34375 -3.734375 5.890625 -4.03125 6.328125 -4.453125 C 6.828125 -4.9375 7.0625 -5.46875 7.0625 -6.234375 C 7.0625 -6.78125 6.921875 -7.46875 6.25 -8.015625 C 5.765625 -8.40625 5.046875 -8.65625 4.046875 -8.65625 C 3.296875 -8.65625 2.3125 -8.515625 1.625 -7.828125 C 1.015625 -7.21875 0.9375 -6.546875 0.9375 -5.96875 L 0.9375 -5.875 L 1.65625 -5.875 L 1.65625 -5.96875 C 1.65625 -6.6875 1.90625 -7.140625 2.171875 -7.421875 C 2.53125 -7.796875 3.171875 -8.078125 4.015625 -8.078125 C 4.65625 -8.078125 5.390625 -7.890625 5.828125 -7.453125 C 6.078125 -7.21875 6.34375 -6.796875 6.34375 -6.1875 C 6.34375 -5.640625 6.1875 -5.171875 5.78125 -4.78125 C 5.515625 -4.515625 5.109375 -4.265625 4.21875 -3.8125 C 3.171875 -3.265625 2.234375 -2.8125 1.6875 -2.234375 C 1.015625 -1.53125 0.875 -0.703125 0.875 -0.046875 L 0.875 0 L 7.140625 0 Z M 7.140625 -0.59375 "/>
</g>
<g id="glyph-1-0">
<path d="M 5.359375 -0.4375 L 1.34375 -0.4375 L 1.34375 -6.296875 L 0.828125 -6.296875 L 0.828125 0 L 5.359375 0 Z M 5.359375 -0.4375 "/>
</g>
<g id="glyph-1-1">
<path d="M 4.125 -2.078125 C 4.125 -1.671875 4 -1.03125 3.484375 -0.625 C 3.09375 -0.328125 2.625 -0.25 2.203125 -0.25 C 1.96875 -0.25 1.46875 -0.265625 1.171875 -0.5625 C 1.03125 -0.71875 0.921875 -0.96875 0.921875 -1.234375 C 0.921875 -1.484375 1.015625 -1.671875 1.140625 -1.796875 C 1.421875 -2.09375 1.9375 -2.140625 2.5 -2.203125 L 3.1875 -2.265625 C 3.796875 -2.3125 3.96875 -2.359375 4.140625 -2.484375 Z M 1.078125 -3.296875 C 1.078125 -3.625 1.203125 -3.875 1.34375 -4.015625 C 1.671875 -4.34375 2.234375 -4.390625 2.6875 -4.390625 C 3.140625 -4.390625 3.640625 -4.3125 3.9375 -4.015625 C 4.15625 -3.796875 4.1875 -3.5625 4.1875 -3.296875 C 4.1875 -3.140625 4.171875 -2.9375 4.046875 -2.828125 C 3.890625 -2.671875 3.53125 -2.65625 3.1875 -2.625 L 2.625 -2.578125 C 1.921875 -2.53125 1.28125 -2.46875 0.859375 -2.15625 C 0.671875 -2 0.40625 -1.6875 0.40625 -1.203125 C 0.40625 -0.75 0.625 -0.40625 0.921875 -0.1875 C 1.28125 0.0625 1.765625 0.109375 2.171875 0.109375 C 2.8125 0.109375 3.171875 -0.015625 3.390625 -0.109375 C 3.640625 -0.25 3.921875 -0.46875 4.125 -0.796875 L 4.125 -0.78125 C 4.125 -0.625 4.15625 -0.328125 4.328125 -0.140625 C 4.484375 0.03125 4.71875 0.046875 4.84375 0.046875 C 4.984375 0.046875 5.078125 0.03125 5.171875 0 L 5.171875 -0.34375 C 5.109375 -0.328125 5.03125 -0.3125 4.984375 -0.3125 C 4.84375 -0.3125 4.765625 -0.375 4.71875 -0.40625 C 4.609375 -0.53125 4.609375 -0.71875 4.609375 -0.8125 L 4.65625 -3.359375 C 4.65625 -3.578125 4.625 -3.984375 4.296875 -4.296875 C 3.90625 -4.65625 3.171875 -4.75 2.65625 -4.75 C 2.046875 -4.75 1.359375 -4.671875 0.9375 -4.21875 C 0.78125 -4.046875 0.609375 -3.734375 0.59375 -3.296875 Z M 1.078125 -3.296875 "/>
</g>
<g id="glyph-1-2">
</g>
<g id="glyph-1-3">
<path d="M 0.71875 0 L 1.203125 0 L 1.203125 -2.6875 C 1.203125 -3.03125 1.265625 -3.515625 1.65625 -3.921875 C 1.90625 -4.1875 2.265625 -4.390625 2.796875 -4.390625 C 3.21875 -4.390625 3.5 -4.25 3.703125 -4.0625 C 4.0625 -3.71875 4.0625 -3.265625 4.0625 -2.96875 L 4.0625 0 L 4.546875 0 L 4.546875 -2.8125 C 4.546875 -3.234375 4.640625 -3.59375 4.96875 -3.9375 C 5.28125 -4.25 5.609375 -4.390625 6.078125 -4.390625 C 6.609375 -4.390625 6.890625 -4.203125 7.03125 -4.0625 C 7.390625 -3.734375 7.40625 -3.21875 7.40625 -2.96875 L 7.40625 0 L 7.890625 0 L 7.890625 -3.0625 C 7.890625 -3.40625 7.84375 -3.921875 7.484375 -4.296875 C 7.234375 -4.5625 6.78125 -4.75 6.171875 -4.75 C 5.84375 -4.75 5.421875 -4.703125 5.0625 -4.484375 C 4.8125 -4.328125 4.578125 -4.109375 4.421875 -3.828125 C 4.34375 -4.03125 4.203125 -4.296875 3.875 -4.5 C 3.53125 -4.71875 3.15625 -4.75 2.859375 -4.75 C 2.53125 -4.75 2.203125 -4.71875 1.84375 -4.515625 C 1.609375 -4.390625 1.390625 -4.1875 1.203125 -3.90625 L 1.203125 -4.578125 L 0.71875 -4.578125 Z M 0.71875 0 "/>
</g>
<g id="glyph-1-4">
<path d="M 3.234375 -4.65625 L 3.015625 -4.65625 C 2.578125 -4.65625 2.15625 -4.578125 1.859375 -4.390625 C 1.609375 -4.234375 1.375 -3.96875 1.21875 -3.625 L 1.203125 -3.625 L 1.203125 -4.578125 L 0.71875 -4.578125 L 0.71875 0 L 1.203125 0 L 1.203125 -2.03125 C 1.203125 -2.703125 1.21875 -3.359375 1.703125 -3.796875 C 2.140625 -4.1875 2.75 -4.21875 3.125 -4.21875 L 3.234375 -4.21875 Z M 3.234375 -4.65625 "/>
</g>
<g id="glyph-1-5">
<path d="M 4.75 -1.5625 C 4.703125 -1.0625 4.453125 -0.546875 3.953125 -0.328125 C 3.75 -0.25 3.4375 -0.1875 2.9375 -0.1875 C 2.46875 -0.1875 1.96875 -0.203125 1.515625 -0.640625 C 1.03125 -1.125 0.96875 -1.8125 0.96875 -2.28125 C 0.96875 -2.8125 1.0625 -3.40625 1.546875 -3.875 C 2 -4.3125 2.53125 -4.390625 2.96875 -4.390625 C 3.234375 -4.390625 3.765625 -4.359375 4.171875 -4.09375 C 4.546875 -3.828125 4.640625 -3.484375 4.671875 -3.265625 L 5.140625 -3.265625 C 5.078125 -3.828125 4.78125 -4.171875 4.515625 -4.375 C 4.0625 -4.703125 3.453125 -4.75 3 -4.75 C 2.484375 -4.75 1.734375 -4.6875 1.15625 -4.109375 C 0.59375 -3.5625 0.484375 -2.859375 0.484375 -2.265625 C 0.484375 -1.765625 0.546875 -0.984375 1.109375 -0.421875 C 1.671875 0.140625 2.390625 0.1875 2.921875 0.1875 C 3.65625 0.1875 4.234375 0.09375 4.671875 -0.328125 C 4.953125 -0.609375 5.171875 -1.046875 5.21875 -1.5625 Z M 4.75 -1.5625 "/>
</g>
<g id="glyph-1-6">
<path d="M 4.828125 0 L 4.828125 -4.578125 L 4.34375 -4.578125 L 4.34375 -2.09375 C 4.34375 -1.703125 4.28125 -1.109375 3.890625 -0.6875 C 3.515625 -0.265625 3 -0.1875 2.5625 -0.1875 C 2.28125 -0.1875 1.875 -0.21875 1.578125 -0.484375 C 1.203125 -0.796875 1.203125 -1.234375 1.203125 -1.703125 L 1.203125 -4.578125 L 0.71875 -4.578125 L 0.71875 -1.59375 C 0.71875 -1.15625 0.75 -0.578125 1.1875 -0.203125 C 1.5625 0.125 2.078125 0.1875 2.484375 0.1875 C 2.796875 0.1875 3.171875 0.15625 3.546875 -0.015625 C 3.90625 -0.171875 4.15625 -0.390625 4.3125 -0.671875 L 4.34375 -0.671875 L 4.34375 0 Z M 4.828125 0 "/>
</g>
<g id="glyph-1-7">
<path d="M 0.984375 -2.5625 C 1 -3 1.15625 -3.515625 1.46875 -3.84375 C 1.703125 -4.109375 2.15625 -4.390625 2.921875 -4.390625 C 3.609375 -4.390625 4.046875 -4.171875 4.3125 -3.9375 C 4.8125 -3.5 4.84375 -2.8125 4.84375 -2.5625 Z M 4.78125 -1.328125 C 4.734375 -0.984375 4.578125 -0.609375 4.125 -0.390625 C 3.734375 -0.203125 3.296875 -0.1875 2.96875 -0.1875 C 2.515625 -0.1875 1.953125 -0.25 1.53125 -0.640625 C 1.046875 -1.078125 0.984375 -1.6875 0.984375 -2.15625 L 0.984375 -2.203125 L 5.34375 -2.203125 L 5.34375 -2.328125 C 5.34375 -2.875 5.296875 -3.578125 4.765625 -4.109375 C 4.25 -4.65625 3.484375 -4.75 2.9375 -4.75 C 2.390625 -4.75 1.703125 -4.6875 1.140625 -4.109375 C 0.8125 -3.78125 0.484375 -3.1875 0.484375 -2.21875 C 0.484375 -1.4375 0.71875 -0.828125 1.078125 -0.453125 C 1.609375 0.09375 2.375 0.1875 2.9375 0.1875 C 3.71875 0.1875 4.125 0.046875 4.296875 -0.03125 C 4.84375 -0.28125 5.15625 -0.796875 5.265625 -1.328125 Z M 4.78125 -1.328125 "/>
</g>
<g id="glyph-1-8">
<path d="M 0.71875 0 L 1.203125 0 L 1.203125 -2.40625 C 1.203125 -3.015625 1.3125 -3.546875 1.671875 -3.921875 C 2.046875 -4.3125 2.46875 -4.390625 2.90625 -4.390625 C 3.390625 -4.390625 3.75 -4.28125 3.984375 -4.078125 C 4.296875 -3.78125 4.328125 -3.34375 4.328125 -2.859375 L 4.328125 0 L 4.8125 0 L 4.8125 -3.15625 C 4.8125 -3.546875 4.78125 -3.9375 4.4375 -4.296875 C 4.203125 -4.53125 3.765625 -4.75 3 -4.75 C 2.640625 -4.75 2.234375 -4.703125 1.875 -4.515625 C 1.625 -4.390625 1.375 -4.171875 1.203125 -3.875 L 1.203125 -4.578125 L 0.71875 -4.578125 Z M 0.71875 0 "/>
</g>
<g id="glyph-1-9">
<path d="M 0.046875 -4.578125 L 0.046875 -4.21875 L 1.0625 -4.21875 L 1.0625 -0.75 C 1.0625 -0.59375 1.078125 -0.28125 1.265625 -0.078125 C 1.46875 0.109375 1.8125 0.125 2 0.125 C 2.234375 0.125 2.453125 0.09375 2.6875 0 L 2.6875 -0.359375 C 2.4375 -0.265625 2.265625 -0.234375 2.078125 -0.234375 C 1.953125 -0.234375 1.765625 -0.25 1.65625 -0.375 C 1.546875 -0.5 1.546875 -0.6875 1.546875 -0.796875 L 1.546875 -4.21875 L 2.65625 -4.21875 L 2.65625 -4.578125 L 1.546875 -4.578125 L 1.546875 -5.9375 L 1.0625 -5.9375 L 1.0625 -4.578125 Z M 0.046875 -4.578125 "/>
</g>
<g id="glyph-1-10">
<path d="M 5.578125 -2.28125 C 5.578125 -3.078125 5.28125 -3.703125 4.90625 -4.09375 C 4.359375 -4.640625 3.609375 -4.75 3.03125 -4.75 C 2.4375 -4.75 1.6875 -4.640625 1.140625 -4.09375 C 0.765625 -3.703125 0.484375 -3.078125 0.484375 -2.28125 C 0.484375 -1.5 0.765625 -0.859375 1.140625 -0.484375 C 1.6875 0.078125 2.4375 0.1875 3.03125 0.1875 C 3.609375 0.1875 4.359375 0.078125 4.90625 -0.484375 C 5.28125 -0.859375 5.578125 -1.5 5.578125 -2.28125 Z M 3.03125 -4.390625 C 3.765625 -4.390625 4.21875 -4.125 4.46875 -3.890625 C 4.8125 -3.5625 5.0625 -3 5.0625 -2.28125 C 5.0625 -1.5625 4.8125 -1.015625 4.46875 -0.671875 C 4.21875 -0.453125 3.78125 -0.1875 3.03125 -0.1875 C 2.265625 -0.1875 1.828125 -0.453125 1.578125 -0.671875 C 1.234375 -1.015625 0.984375 -1.5625 0.984375 -2.28125 C 0.984375 -3 1.234375 -3.5625 1.578125 -3.890625 C 1.828125 -4.125 2.265625 -4.390625 3.03125 -4.390625 Z M 3.03125 -4.390625 "/>
</g>
<g id="glyph-1-11">
<path d="M 4.734375 -2.265625 C 4.734375 -1.625 4.53125 -1.078125 4.21875 -0.734375 C 3.8125 -0.28125 3.3125 -0.1875 2.859375 -0.1875 C 2.46875 -0.1875 1.953125 -0.25 1.546875 -0.671875 C 1.203125 -1.015625 0.984375 -1.578125 0.984375 -2.328125 C 0.984375 -3.046875 1.203125 -3.5625 1.546875 -3.890625 C 1.9375 -4.296875 2.421875 -4.390625 2.84375 -4.390625 C 3.328125 -4.390625 3.765625 -4.265625 4.125 -3.90625 C 4.484375 -3.5625 4.734375 -2.984375 4.734375 -2.265625 Z M 5.203125 -6.296875 L 4.71875 -6.296875 L 4.71875 -3.8125 C 4.515625 -4.140625 4.234375 -4.34375 4.03125 -4.46875 C 3.578125 -4.71875 3.046875 -4.75 2.765625 -4.75 C 2.28125 -4.75 1.65625 -4.65625 1.15625 -4.1875 C 0.5625 -3.625 0.484375 -2.859375 0.484375 -2.40625 C 0.484375 -1.734375 0.671875 -0.96875 1.109375 -0.484375 C 1.640625 0.09375 2.34375 0.1875 2.859375 0.1875 C 3.265625 0.1875 3.6875 0.109375 4.015625 -0.0625 C 4.25 -0.203125 4.515625 -0.4375 4.6875 -0.734375 L 4.71875 -0.734375 L 4.71875 0 L 5.203125 0 Z M 5.203125 -6.296875 "/>
</g>
<g id="glyph-1-12">
<path d="M 0.359375 -1.3125 L 0.359375 -1.265625 C 0.359375 -0.859375 0.46875 -0.421875 0.9375 -0.109375 C 1.1875 0.03125 1.59375 0.1875 2.46875 0.1875 C 3.203125 0.1875 3.640625 0.078125 3.9375 -0.09375 C 4.28125 -0.296875 4.546875 -0.671875 4.546875 -1.203125 C 4.546875 -1.5 4.453125 -1.78125 4.1875 -2 C 3.890625 -2.265625 3.46875 -2.359375 3.1875 -2.40625 L 2.578125 -2.53125 C 1.640625 -2.703125 1.40625 -2.796875 1.265625 -2.890625 C 1.046875 -3.03125 0.9375 -3.21875 0.9375 -3.5 C 0.9375 -3.796875 1.078125 -4.03125 1.34375 -4.1875 C 1.59375 -4.34375 1.921875 -4.390625 2.3125 -4.390625 C 2.65625 -4.390625 3 -4.359375 3.328125 -4.234375 C 3.484375 -4.171875 3.890625 -3.953125 3.875 -3.40625 L 4.359375 -3.40625 C 4.359375 -3.71875 4.28125 -4.171875 3.765625 -4.46875 C 3.53125 -4.59375 3.140625 -4.75 2.34375 -4.75 C 1.953125 -4.75 1.40625 -4.71875 1.015625 -4.46875 C 0.640625 -4.25 0.4375 -3.90625 0.4375 -3.390625 C 0.4375 -3.078125 0.53125 -2.828125 0.796875 -2.625 C 1.078125 -2.40625 1.46875 -2.3125 2.09375 -2.203125 L 2.71875 -2.078125 C 3.046875 -2.015625 3.359375 -1.96875 3.625 -1.828125 C 3.921875 -1.671875 4.046875 -1.46875 4.046875 -1.15625 C 4.046875 -0.71875 3.765625 -0.46875 3.578125 -0.375 C 3.40625 -0.28125 3.109375 -0.1875 2.453125 -0.1875 C 1.875 -0.1875 1.546875 -0.265625 1.3125 -0.390625 C 0.90625 -0.640625 0.84375 -1 0.84375 -1.265625 L 0.84375 -1.3125 Z M 0.359375 -1.3125 "/>
</g>
<g id="glyph-1-13">
<path d="M 2.3125 -0.421875 L 0.546875 -4.578125 L 0 -4.578125 L 2.03125 0 L 2.59375 0 L 4.609375 -4.578125 L 4.078125 -4.578125 Z M 2.3125 -0.421875 "/>
</g>
<g id="glyph-1-14">
<path d="M 0.6875 -5.640625 L 1.21875 -5.640625 L 1.21875 -6.296875 L 0.6875 -6.296875 Z M 0.71875 -4.578125 L 0.71875 0 L 1.203125 0 L 1.203125 -4.578125 Z M 0.71875 -4.578125 "/>
</g>
<g id="glyph-1-15">
<path d="M 0.984375 -0.671875 L 0.984375 0 L 1.28125 0 L 1.28125 0.34375 C 1.28125 0.484375 1.28125 0.6875 1.15625 0.8125 C 1.109375 0.84375 1.046875 0.875 0.984375 0.890625 L 0.984375 1.21875 C 1.171875 1.1875 1.3125 1.09375 1.375 1.015625 C 1.578125 0.8125 1.59375 0.515625 1.59375 0.328125 L 1.59375 -0.671875 Z M 0.984375 -0.671875 "/>
</g>
<g id="glyph-1-16">
<path d="M 3.078125 -4.390625 C 3.703125 -4.390625 4.109375 -4.171875 4.390625 -3.890625 C 4.875 -3.40625 4.9375 -2.796875 4.9375 -2.28125 C 4.9375 -1.796875 4.875 -1.15625 4.390625 -0.6875 C 4.125 -0.40625 3.703125 -0.1875 3.0625 -0.1875 C 2.546875 -0.1875 2.09375 -0.34375 1.734375 -0.703125 C 1.25 -1.203125 1.171875 -1.796875 1.171875 -2.265625 C 1.171875 -2.78125 1.25 -3.375 1.734375 -3.859375 C 2.0625 -4.203125 2.5 -4.390625 3.078125 -4.390625 Z M 0.71875 -4.578125 L 0.71875 1.671875 L 1.203125 1.671875 L 1.203125 -0.765625 C 1.375 -0.453125 1.625 -0.234375 1.875 -0.09375 C 2.234375 0.109375 2.6875 0.1875 3.078125 0.1875 C 3.53125 0.1875 4.234375 0.09375 4.765625 -0.4375 C 5.171875 -0.859375 5.4375 -1.5 5.4375 -2.34375 C 5.4375 -3.28125 5.109375 -3.84375 4.8125 -4.140625 C 4.53125 -4.421875 4 -4.75 3.125 -4.75 C 2.625 -4.75 2.203125 -4.65625 1.890625 -4.46875 C 1.6875 -4.359375 1.4375 -4.171875 1.21875 -3.84375 L 1.203125 -3.84375 L 1.203125 -4.578125 Z M 0.71875 -4.578125 "/>
</g>
<g id="glyph-1-17">
<path d="M 1.171875 -2.28125 C 1.171875 -2.765625 1.265625 -3.40625 1.765625 -3.90625 C 2.15625 -4.28125 2.578125 -4.390625 3.0625 -4.390625 C 3.5 -4.390625 3.984375 -4.296875 4.359375 -3.921875 C 4.640625 -3.640625 4.9375 -3.15625 4.9375 -2.34375 C 4.9375 -1.609375 4.703125 -1.03125 4.359375 -0.6875 C 3.953125 -0.265625 3.46875 -0.1875 3.078125 -0.1875 C 2.5 -0.1875 2.046875 -0.359375 1.703125 -0.734375 C 1.265625 -1.21875 1.171875 -1.84375 1.171875 -2.28125 Z M 0.71875 -6.296875 L 0.71875 0 L 1.203125 0 L 1.203125 -0.734375 L 1.21875 -0.734375 C 1.40625 -0.4375 1.640625 -0.21875 1.859375 -0.109375 C 2.296875 0.140625 2.828125 0.1875 3.0625 0.1875 C 3.953125 0.1875 4.484375 -0.140625 4.796875 -0.484375 C 5.25 -0.96875 5.4375 -1.734375 5.4375 -2.40625 C 5.4375 -2.859375 5.359375 -3.625 4.75 -4.1875 C 4.25 -4.65625 3.640625 -4.75 3.15625 -4.75 C 2.6875 -4.75 2.265625 -4.671875 1.859375 -4.4375 C 1.640625 -4.296875 1.390625 -4.109375 1.203125 -3.8125 L 1.203125 -6.296875 Z M 0.71875 -6.296875 "/>
</g>
<g id="glyph-1-18">
<path d="M 0.71875 -6.296875 L 0.71875 0 L 1.203125 0 L 1.203125 -6.296875 Z M 0.71875 -6.296875 "/>
</g>
<g id="glyph-1-19">
<path d="M 0.984375 0 L 1.59375 0 L 1.59375 -0.671875 L 0.984375 -0.671875 Z M 0.984375 0 "/>
</g>
<g id="glyph-2-0">
<path d="M 3.0625 -0.703125 L 0.890625 -6.171875 L 0.03125 -6.171875 L 2.578125 0 L 3.515625 0 L 6.078125 -6.171875 L 5.21875 -6.171875 Z M 3.0625 -0.703125 "/>
</g>
<g id="glyph-2-1">
<path d="M 1.21875 -2.578125 C 1.234375 -3.03125 1.421875 -3.453125 1.671875 -3.6875 C 2.046875 -4.09375 2.59375 -4.140625 2.96875 -4.140625 C 3.328125 -4.140625 3.875 -4.09375 4.25 -3.734375 C 4.328125 -3.671875 4.71875 -3.28125 4.703125 -2.578125 Z M 4.640625 -1.328125 C 4.625 -1.09375 4.53125 -0.78125 4.15625 -0.5625 C 3.890625 -0.40625 3.53125 -0.328125 3.015625 -0.328125 C 2.59375 -0.328125 2.0625 -0.375 1.65625 -0.78125 C 1.25 -1.1875 1.203125 -1.75 1.203125 -2.0625 L 1.203125 -2.09375 L 5.453125 -2.09375 L 5.453125 -2.203125 C 5.453125 -2.859375 5.359375 -3.53125 4.859375 -4.03125 C 4.4375 -4.46875 3.828125 -4.65625 2.96875 -4.65625 C 2.40625 -4.65625 1.65625 -4.546875 1.09375 -3.984375 C 0.53125 -3.421875 0.46875 -2.671875 0.46875 -2.203125 C 0.46875 -1.25 0.78125 -0.703125 1.0625 -0.421875 C 1.609375 0.125 2.375 0.171875 3 0.171875 C 3.53125 0.171875 4.015625 0.140625 4.40625 -0.015625 C 4.578125 -0.09375 5.28125 -0.40625 5.34375 -1.328125 Z M 4.640625 -1.328125 "/>
</g>
<g id="glyph-2-2">
<path d="M 3.421875 -4.5625 L 3.296875 -4.5625 C 2.921875 -4.5625 2.53125 -4.5625 2.15625 -4.359375 C 1.890625 -4.21875 1.625 -3.96875 1.4375 -3.59375 L 1.421875 -3.59375 L 1.421875 -4.484375 L 0.703125 -4.484375 L 0.703125 0 L 1.4375 0 L 1.4375 -1.921875 C 1.4375 -2.625 1.5 -3.15625 1.890625 -3.546875 C 2.296875 -3.9375 2.90625 -3.984375 3.328125 -3.984375 L 3.421875 -3.984375 Z M 3.421875 -4.5625 "/>
</g>
<g id="glyph-2-3">
<path d="M 0.359375 -1.296875 L 0.359375 -1.28125 C 0.359375 -0.9375 0.4375 -0.4375 0.9375 -0.125 C 1.109375 -0.015625 1.484375 0.171875 2.578125 0.171875 C 3.046875 0.171875 3.6875 0.15625 4.140625 -0.171875 C 4.515625 -0.4375 4.640625 -0.78125 4.640625 -1.203125 C 4.640625 -1.484375 4.5625 -1.828125 4.234375 -2.078125 C 4.03125 -2.234375 3.75 -2.328125 3.25 -2.4375 L 2.65625 -2.546875 C 2.109375 -2.65625 1.703125 -2.71875 1.453125 -2.859375 C 1.25 -2.984375 1.15625 -3.15625 1.15625 -3.359375 C 1.15625 -3.5625 1.25 -3.8125 1.5 -3.96875 C 1.609375 -4.03125 1.84375 -4.15625 2.375 -4.15625 C 2.890625 -4.15625 3.15625 -4.0625 3.25 -4.03125 C 3.6875 -3.875 3.75 -3.53125 3.75 -3.3125 L 4.46875 -3.3125 C 4.5 -3.796875 4.265625 -4.203125 3.765625 -4.4375 C 3.328125 -4.625 2.828125 -4.65625 2.390625 -4.65625 C 1.96875 -4.65625 1.4375 -4.625 1.015625 -4.359375 C 0.59375 -4.109375 0.421875 -3.75 0.421875 -3.296875 C 0.421875 -2.96875 0.53125 -2.6875 0.8125 -2.46875 C 0.984375 -2.359375 1.28125 -2.234375 2.0625 -2.09375 L 2.65625 -1.984375 C 3.234375 -1.875 3.421875 -1.796875 3.53125 -1.75 C 3.75 -1.625 3.890625 -1.46875 3.890625 -1.171875 C 3.890625 -0.828125 3.703125 -0.609375 3.5 -0.5 C 3.359375 -0.421875 3.109375 -0.328125 2.515625 -0.328125 C 1.9375 -0.328125 1.640625 -0.4375 1.484375 -0.515625 C 1.125 -0.734375 1.0625 -1.0625 1.0625 -1.28125 L 1.0625 -1.296875 Z M 0.359375 -1.296875 "/>
</g>
<g id="glyph-2-4">
<path d="M 0.671875 -5.453125 L 1.46875 -5.453125 L 1.46875 -6.1875 L 0.671875 -6.1875 Z M 0.703125 -4.484375 L 0.703125 0 L 1.4375 0 L 1.4375 -4.484375 Z M 0.703125 -4.484375 "/>
</g>
<g id="glyph-2-5">
<path d="M 3.078125 -4.65625 C 2.0625 -4.65625 1.46875 -4.328125 1.140625 -4.015625 C 0.984375 -3.84375 0.46875 -3.296875 0.46875 -2.1875 C 0.46875 -1.390625 0.734375 -0.84375 1.140625 -0.46875 C 1.71875 0.078125 2.46875 0.171875 3.140625 0.171875 C 3.640625 0.171875 4.4375 0.125 5.046875 -0.46875 C 5.46875 -0.890625 5.703125 -1.5625 5.703125 -2.3125 C 5.703125 -3.140625 5.421875 -3.640625 5.125 -3.953125 C 4.796875 -4.28125 4.1875 -4.65625 3.078125 -4.65625 Z M 3.09375 -4.140625 C 3.6875 -4.140625 4.140625 -3.9375 4.421875 -3.671875 C 4.765625 -3.328125 4.953125 -2.765625 4.953125 -2.234375 C 4.953125 -1.609375 4.71875 -1.09375 4.40625 -0.796875 C 4.15625 -0.5625 3.765625 -0.328125 3.109375 -0.328125 C 2.5 -0.328125 2.046875 -0.53125 1.78125 -0.796875 C 1.40625 -1.140625 1.21875 -1.703125 1.21875 -2.234375 C 1.21875 -2.78125 1.421875 -3.328125 1.78125 -3.671875 C 2.046875 -3.9375 2.46875 -4.140625 3.09375 -4.140625 Z M 3.09375 -4.140625 "/>
</g>
<g id="glyph-2-6">
<path d="M 0.703125 -4.484375 L 0.703125 0 L 1.453125 0 L 1.453125 -2.296875 C 1.453125 -3.109375 1.6875 -3.5 1.90625 -3.734375 C 2.234375 -4.046875 2.640625 -4.140625 3.03125 -4.140625 C 3.40625 -4.140625 3.765625 -4.046875 3.984375 -3.828125 C 4.28125 -3.546875 4.296875 -3.109375 4.296875 -2.71875 L 4.296875 0 L 5.03125 0 L 5.03125 -3.03125 C 5.03125 -3.34375 5 -3.828125 4.640625 -4.1875 C 4.25 -4.578125 3.625 -4.640625 3.15625 -4.640625 C 2.8125 -4.640625 2.4375 -4.625 2.09375 -4.4375 C 1.90625 -4.328125 1.640625 -4.15625 1.4375 -3.828125 L 1.4375 -4.484375 Z M 0.703125 -4.484375 "/>
</g>
<g id="glyph-2-7">
<path d="M 4.640625 -2.234375 C 4.640625 -1.359375 4.234375 -0.921875 4.140625 -0.8125 C 3.9375 -0.59375 3.546875 -0.34375 2.90625 -0.34375 C 2.5625 -0.34375 2.09375 -0.40625 1.734375 -0.796875 C 1.375 -1.15625 1.21875 -1.75 1.21875 -2.28125 C 1.21875 -3 1.46875 -3.4375 1.703125 -3.671875 C 1.953125 -3.9375 2.328125 -4.140625 2.921875 -4.140625 C 3.46875 -4.140625 3.84375 -3.953125 4.109375 -3.6875 C 4.421875 -3.390625 4.640625 -2.890625 4.640625 -2.234375 Z M 4.625 -0.671875 L 4.625 0 L 5.359375 0 L 5.359375 -6.171875 L 4.625 -6.171875 L 4.625 -3.78125 C 4.46875 -4.03125 4.28125 -4.21875 3.96875 -4.390625 C 3.578125 -4.59375 3.203125 -4.640625 2.796875 -4.640625 C 2.1875 -4.640625 1.59375 -4.53125 1.09375 -4.03125 C 0.53125 -3.484375 0.46875 -2.78125 0.46875 -2.3125 C 0.46875 -1.390625 0.78125 -0.796875 1.09375 -0.453125 C 1.640625 0.125 2.3125 0.171875 2.84375 0.171875 C 3.21875 0.171875 3.609375 0.125 3.953125 -0.046875 C 4.296875 -0.21875 4.5 -0.46875 4.59375 -0.671875 Z M 4.625 -0.671875 "/>
</g>
<g id="glyph-2-8">
<path d="M 5.375 -0.65625 L 1.59375 -0.65625 L 1.59375 -6.171875 L 0.8125 -6.171875 L 0.8125 0 L 5.375 0 Z M 5.375 -0.65625 "/>
</g>
<g id="glyph-2-9">
<path d="M 1.21875 -2.28125 C 1.21875 -2.96875 1.4375 -3.40625 1.703125 -3.6875 C 2.078125 -4.078125 2.5 -4.140625 2.84375 -4.140625 C 3.484375 -4.140625 3.875 -3.90625 4.09375 -3.671875 C 4.28125 -3.484375 4.546875 -3.078125 4.546875 -2.3125 C 4.546875 -1.53125 4.28125 -1.109375 4.09375 -0.90625 C 3.71875 -0.53125 3.265625 -0.46875 2.90625 -0.46875 C 2.53125 -0.46875 2.046875 -0.53125 1.671875 -0.921875 C 1.4375 -1.15625 1.21875 -1.59375 1.21875 -2.28125 Z M 0.796875 0.5 C 0.828125 1 1.09375 1.28125 1.359375 1.4375 C 1.46875 1.5 1.84375 1.703125 2.796875 1.703125 C 3.5 1.703125 4.296875 1.6875 4.78125 1.1875 C 5.234375 0.703125 5.265625 -0.015625 5.265625 -0.390625 L 5.265625 -4.484375 L 4.53125 -4.484375 L 4.53125 -3.796875 L 4.515625 -3.796875 C 4.375 -4.046875 4.1875 -4.28125 3.84375 -4.4375 C 3.46875 -4.625 3 -4.640625 2.75 -4.640625 C 2.25 -4.640625 1.609375 -4.5625 1.109375 -4.046875 C 0.828125 -3.765625 0.46875 -3.203125 0.46875 -2.234375 C 0.46875 -1.328125 0.78125 -0.8125 1.078125 -0.515625 C 1.609375 0 2.265625 0.03125 2.796875 0.03125 C 3.109375 0.03125 3.5 0.03125 3.875 -0.171875 C 4.078125 -0.265625 4.328125 -0.46875 4.515625 -0.78125 L 4.515625 -0.359375 C 4.515625 -0.03125 4.5 0.5625 4.109375 0.90625 C 3.78125 1.1875 3.203125 1.203125 2.90625 1.203125 C 2.3125 1.203125 2.078125 1.09375 1.953125 1.046875 C 1.671875 0.90625 1.59375 0.65625 1.5625 0.5 Z M 0.796875 0.5 "/>
</g>
<g id="glyph-3-0">
<path d="M 0.3125 -4.765625 L 0.3125 -4.25 L 1.75 -4.25 L 1.75 0 L 2.328125 0 L 2.328125 -4.25 L 3.78125 -4.25 L 3.78125 -4.765625 Z M 0.3125 -4.765625 "/>
</g>
<g id="glyph-3-1">
<path d="M 0.40625 -4.765625 L 0.40625 0 L 0.984375 0 L 0.984375 -2.265625 L 3.109375 -2.265625 L 3.109375 0 L 3.671875 0 L 3.671875 -4.765625 L 3.109375 -4.765625 L 3.109375 -2.78125 L 0.984375 -2.78125 L 0.984375 -4.765625 Z M 0.40625 -4.765625 "/>
</g>
<g id="glyph-3-2">
<path d="M 0.515625 -4.765625 L 0.515625 0 L 3.75 0 L 3.75 -0.515625 L 1.078125 -0.515625 L 1.078125 -2.265625 L 3.40625 -2.265625 L 3.40625 -2.78125 L 1.078125 -2.78125 L 1.078125 -4.25 L 3.578125 -4.25 L 3.578125 -4.765625 Z M 0.515625 -4.765625 "/>
</g>
<g id="glyph-3-3">
</g>
<g id="glyph-3-4">
<path d="M 0.359375 -1.90625 L 0.359375 -4.765625 L 0.921875 -4.765625 L 0.921875 -1.90625 C 0.921875 -0.90625 1.34375 -0.421875 2.03125 -0.421875 C 2.734375 -0.421875 3.15625 -0.90625 3.15625 -1.90625 L 3.15625 -4.765625 L 3.734375 -4.765625 L 3.734375 -1.90625 C 3.734375 -0.671875 3.1875 0.09375 2.03125 0.09375 C 0.90625 0.09375 0.359375 -0.671875 0.359375 -1.90625 Z M 0.359375 -1.90625 "/>
</g>
<g id="glyph-3-5">
<path d="M 0.390625 -4.765625 L 0.375 0 L 0.9375 0 L 0.9375 -3.9375 C 0.9375 -4.28125 0.921875 -4.5625 0.90625 -4.5625 L 1.203125 -4.5625 C 1.203125 -4.5625 1.140625 -4.3125 1.1875 -3.9375 L 1.5 -1.359375 L 2.578125 -1.359375 L 2.890625 -3.9375 C 2.9375 -4.3125 2.90625 -4.5625 2.90625 -4.5625 L 3.1875 -4.5625 C 3.1875 -4.5625 3.140625 -4.28125 3.140625 -3.9375 L 3.140625 0 L 3.71875 0 L 3.71875 -4.765625 L 2.515625 -4.765625 L 2.1875 -2.078125 C 2.171875 -1.828125 2.1875 -1.59375 2.1875 -1.59375 L 1.90625 -1.59375 C 1.90625 -1.59375 1.921875 -1.828125 1.890625 -2.078125 L 1.578125 -4.765625 Z M 0.390625 -4.765625 "/>
</g>
<g id="glyph-3-6">
<path d="M 1.484375 -4.765625 L 0.109375 0 L 0.734375 0 L 1.15625 -1.515625 L 2.921875 -1.515625 L 3.359375 0 L 3.96875 0 L 2.609375 -4.765625 Z M 2.78125 -2.03125 L 1.296875 -2.03125 L 1.8125 -3.953125 C 1.921875 -4.328125 1.90625 -4.359375 1.90625 -4.5625 L 2.1875 -4.5625 C 2.1875 -4.359375 2.171875 -4.328125 2.28125 -3.953125 Z M 2.78125 -2.03125 "/>
</g>
<g id="glyph-3-7">
<path d="M 0.40625 -4.765625 L 0.40625 0 L 0.984375 0 L 0.984375 -4.5625 L 1.21875 -4.5625 C 1.234375 -4.359375 1.25 -4.25 1.390625 -3.71875 L 2.453125 0 L 3.671875 0 L 3.671875 -4.765625 L 3.109375 -4.765625 L 3.109375 -0.203125 L 2.859375 -0.203125 C 2.859375 -0.453125 2.8125 -0.625 2.703125 -1 L 1.640625 -4.765625 Z M 0.40625 -4.765625 "/>
</g>
<g id="glyph-3-8">
<path d="M 0.34375 -2.828125 L 0.34375 -1.9375 C 0.34375 -0.703125 0.921875 0.09375 2.0625 0.09375 C 3.0625 0.09375 3.671875 -0.53125 3.78125 -1.515625 L 3.203125 -1.53125 C 3.109375 -0.796875 2.65625 -0.421875 2.0625 -0.421875 C 1.359375 -0.421875 0.90625 -0.9375 0.90625 -1.9375 L 0.90625 -2.828125 C 0.90625 -3.828125 1.359375 -4.34375 2.0625 -4.34375 C 2.640625 -4.34375 3.09375 -3.984375 3.203125 -3.296875 L 3.78125 -3.296875 C 3.640625 -4.265625 3.046875 -4.859375 2.0625 -4.859375 C 0.921875 -4.859375 0.34375 -4.0625 0.34375 -2.828125 Z M 0.34375 -2.828125 "/>
</g>
<g id="glyph-3-9">
<path d="M 0.3125 -2.828125 L 0.3125 -1.9375 C 0.3125 -0.703125 0.90625 0.09375 2.03125 0.09375 C 3.1875 0.09375 3.765625 -0.703125 3.765625 -1.9375 L 3.765625 -2.828125 C 3.765625 -4.0625 3.1875 -4.859375 2.03125 -4.859375 C 0.90625 -4.859375 0.3125 -4.0625 0.3125 -2.828125 Z M 0.890625 -1.9375 L 0.890625 -2.828125 C 0.890625 -3.828125 1.34375 -4.34375 2.03125 -4.34375 C 2.734375 -4.34375 3.1875 -3.828125 3.1875 -2.828125 L 3.1875 -1.9375 C 3.1875 -0.9375 2.734375 -0.421875 2.03125 -0.421875 C 1.34375 -0.421875 0.890625 -0.9375 0.890625 -1.9375 Z M 0.890625 -1.9375 "/>
</g>
<g id="glyph-3-10">
<path d="M 2.046875 0.046875 C 2.296875 0.046875 2.515625 -0.171875 2.515625 -0.421875 C 2.515625 -0.6875 2.296875 -0.90625 2.046875 -0.90625 C 1.78125 -0.90625 1.5625 -0.6875 1.5625 -0.421875 C 1.5625 -0.171875 1.78125 0.046875 2.046875 0.046875 Z M 2.046875 0.046875 "/>
</g>
</g>
</defs>
<path fill="none" stroke-width="0.25" stroke-linecap="butt" stroke-linejoin="miter" stroke="rgb(0%, 0%, 0%)" stroke-opacity="1" stroke-miterlimit="10" d="M 0 -0.0002 L 0 -350.5002 " transform="matrix(1, 0, 0, -1, 480, 77.4998)"/>
<g fill="rgb(0%, 0%, 0%)" fill-opacity="1">
<use xlink:href="#glyph-0-0" x="115.1045" y="90.2188"/>
<use xlink:href="#glyph-0-1" x="136.5845" y="90.2188"/>
<use xlink:href="#glyph-0-2" x="158.2085" y="90.2188"/>
<use xlink:href="#glyph-0-3" x="180.9965" y="90.2188"/>
<use xlink:href="#glyph-0-4" x="203.2205" y="90.2188"/>
<use xlink:href="#glyph-0-5" x="219.5645" y="90.2188"/>
<use xlink:href="#glyph-0-6" x="243.9005" y="90.2188"/>
<use xlink:href="#glyph-0-7" x="267.2045" y="90.2188"/>
<use xlink:href="#glyph-0-8" x="283.4405" y="90.2188"/>
</g>
<g fill="rgb(0%, 0%, 0%)" fill-opacity="1">
<use xlink:href="#glyph-0-0" x="566.6765" y="90.2188"/>
<use xlink:href="#glyph-0-1" x="588.1565" y="90.2188"/>
<use xlink:href="#glyph-0-2" x="609.7805" y="90.2188"/>
<use xlink:href="#glyph-0-3" x="632.5685" y="90.2188"/>
<use xlink:href="#glyph-0-4" x="654.7925" y="90.2188"/>
<use xlink:href="#glyph-0-5" x="671.1365" y="90.2188"/>
<use xlink:href="#glyph-0-6" x="695.4725" y="90.2188"/>
<use xlink:href="#glyph-0-7" x="718.7765" y="90.2188"/>
<use xlink:href="#glyph-0-9" x="735.0125" y="90.2188"/>
</g>
<g fill="rgb(0%, 0%, 0%)" fill-opacity="1">
<use xlink:href="#glyph-1-0" x="52.3579" y="495.5405"/>
<use xlink:href="#glyph-1-1" x="58.4689" y="495.5405"/>
<use xlink:href="#glyph-1-2" x="64.7599" y="495.5405"/>
<use xlink:href="#glyph-1-3" x="67.6129" y="495.5405"/>
<use xlink:href="#glyph-1-1" x="76.9729" y="495.5405"/>
<use xlink:href="#glyph-1-4" x="83.2639" y="495.5405"/>
</g>
<g fill="rgb(0%, 0%, 0%)" fill-opacity="1">
<use xlink:href="#glyph-1-5" x="87.0259" y="495.5405"/>
<use xlink:href="#glyph-1-1" x="93.3529" y="495.5405"/>
<use xlink:href="#glyph-1-2" x="99.6439" y="495.5405"/>
<use xlink:href="#glyph-1-5" x="102.4969" y="495.5405"/>
<use xlink:href="#glyph-1-6" x="108.8239" y="495.5405"/>
<use xlink:href="#glyph-1-7" x="115.1239" y="495.5405"/>
<use xlink:href="#glyph-1-8" x="121.7029" y="495.5405"/>
<use xlink:href="#glyph-1-9" x="127.9849" y="495.5405"/>
<use xlink:href="#glyph-1-1" x="131.5399" y="495.5405"/>
<use xlink:href="#glyph-1-2" x="137.8309" y="495.5405"/>
<use xlink:href="#glyph-1-5" x="140.6839" y="495.5405"/>
</g>
<g fill="rgb(0%, 0%, 0%)" fill-opacity="1">
<use xlink:href="#glyph-1-10" x="146.9209" y="495.5405"/>
<use xlink:href="#glyph-1-8" x="153.7249" y="495.5405"/>
<use xlink:href="#glyph-1-2" x="160.0069" y="495.5405"/>
<use xlink:href="#glyph-1-11" x="162.8599" y="495.5405"/>
<use xlink:href="#glyph-1-10" x="169.5289" y="495.5405"/>
<use xlink:href="#glyph-1-12" x="176.3329" y="495.5405"/>
<use xlink:href="#glyph-1-2" x="181.9939" y="495.5405"/>
<use xlink:href="#glyph-1-13" x="184.8469" y="495.5405"/>
</g>
<g fill="rgb(0%, 0%, 0%)" fill-opacity="1">
<use xlink:href="#glyph-1-7" x="190.1299" y="495.5405"/>
<use xlink:href="#glyph-1-4" x="196.7089" y="495.5405"/>
</g>
<g fill="rgb(0%, 0%, 0%)" fill-opacity="1">
<use xlink:href="#glyph-1-12" x="200.5339" y="495.5405"/>
<use xlink:href="#glyph-1-14" x="206.1949" y="495.5405"/>
<use xlink:href="#glyph-1-10" x="208.8589" y="495.5405"/>
<use xlink:href="#glyph-1-8" x="215.6629" y="495.5405"/>
<use xlink:href="#glyph-1-7" x="221.9449" y="495.5405"/>
<use xlink:href="#glyph-1-12" x="228.5239" y="495.5405"/>
<use xlink:href="#glyph-1-15" x="234.1849" y="495.5405"/>
<use xlink:href="#glyph-1-2" x="237.5239" y="495.5405"/>
<use xlink:href="#glyph-1-5" x="240.3769" y="495.5405"/>
</g>
<g fill="rgb(0%, 0%, 0%)" fill-opacity="1">
<use xlink:href="#glyph-1-10" x="246.6139" y="495.5405"/>
<use xlink:href="#glyph-1-8" x="253.4179" y="495.5405"/>
<use xlink:href="#glyph-1-2" x="259.6999" y="495.5405"/>
<use xlink:href="#glyph-1-16" x="262.5529" y="495.5405"/>
<use xlink:href="#glyph-1-10" x="269.2309" y="495.5405"/>
<use xlink:href="#glyph-1-12" x="276.0349" y="495.5405"/>
<use xlink:href="#glyph-1-14" x="281.6959" y="495.5405"/>
<use xlink:href="#glyph-1-17" x="284.3599" y="495.5405"/>
<use xlink:href="#glyph-1-14" x="291.0289" y="495.5405"/>
<use xlink:href="#glyph-1-18" x="293.6929" y="495.5405"/>
<use xlink:href="#glyph-1-14" x="296.3569" y="495.5405"/>
<use xlink:href="#glyph-1-11" x="299.0209" y="495.5405"/>
<use xlink:href="#glyph-1-1" x="305.6899" y="495.5405"/>
<use xlink:href="#glyph-1-11" x="311.9809" y="495.5405"/>
<use xlink:href="#glyph-1-2" x="318.6499" y="495.5405"/>
<use xlink:href="#glyph-1-11" x="321.5029" y="495.5405"/>
<use xlink:href="#glyph-1-7" x="328.1719" y="495.5405"/>
<use xlink:href="#glyph-1-2" x="334.7509" y="495.5405"/>
<use xlink:href="#glyph-1-13" x="337.6039" y="495.5405"/>
</g>
<g fill="rgb(0%, 0%, 0%)" fill-opacity="1">
<use xlink:href="#glyph-1-1" x="342.9319" y="495.5405"/>
<use xlink:href="#glyph-1-4" x="349.2229" y="495.5405"/>
<use xlink:href="#glyph-1-14" x="353.2099" y="495.5405"/>
<use xlink:href="#glyph-1-1" x="355.8739" y="495.5405"/>
<use xlink:href="#glyph-1-4" x="362.1649" y="495.5405"/>
<use xlink:href="#glyph-1-2" x="366.1519" y="495.5405"/>
<use xlink:href="#glyph-1-11" x="369.0049" y="495.5405"/>
<use xlink:href="#glyph-1-7" x="375.6739" y="495.5405"/>
<use xlink:href="#glyph-1-2" x="382.2529" y="495.5405"/>
<use xlink:href="#glyph-1-1" x="385.1059" y="495.5405"/>
<use xlink:href="#glyph-1-5" x="391.3969" y="495.5405"/>
<use xlink:href="#glyph-1-6" x="397.7239" y="495.5405"/>
<use xlink:href="#glyph-1-7" x="404.0239" y="495.5405"/>
<use xlink:href="#glyph-1-4" x="410.6029" y="495.5405"/>
</g>
<g fill="rgb(0%, 0%, 0%)" fill-opacity="1">
<use xlink:href="#glyph-1-11" x="414.3649" y="495.5405"/>
<use xlink:href="#glyph-1-10" x="421.0339" y="495.5405"/>
<use xlink:href="#glyph-1-2" x="427.8379" y="495.5405"/>
<use xlink:href="#glyph-1-1" x="430.6909" y="495.5405"/>
<use xlink:href="#glyph-1-18" x="436.9819" y="495.5405"/>
<use xlink:href="#glyph-1-2" x="439.6459" y="495.5405"/>
<use xlink:href="#glyph-1-7" x="442.4989" y="495.5405"/>
<use xlink:href="#glyph-1-12" x="449.0779" y="495.5405"/>
<use xlink:href="#glyph-1-16" x="454.7389" y="495.5405"/>
<use xlink:href="#glyph-1-1" x="461.4169" y="495.5405"/>
<use xlink:href="#glyph-1-5" x="467.7079" y="495.5405"/>
<use xlink:href="#glyph-1-14" x="474.0349" y="495.5405"/>
<use xlink:href="#glyph-1-10" x="476.6989" y="495.5405"/>
<use xlink:href="#glyph-1-2" x="483.5029" y="495.5405"/>
<use xlink:href="#glyph-1-11" x="486.3559" y="495.5405"/>
<use xlink:href="#glyph-1-7" x="493.0249" y="495.5405"/>
<use xlink:href="#glyph-1-12" x="499.6039" y="495.5405"/>
</g>
<g fill="rgb(0%, 0%, 0%)" fill-opacity="1">
<use xlink:href="#glyph-1-9" x="505.1569" y="495.5405"/>
<use xlink:href="#glyph-1-14" x="508.7119" y="495.5405"/>
<use xlink:href="#glyph-1-8" x="511.3759" y="495.5405"/>
<use xlink:href="#glyph-1-1" x="517.6579" y="495.5405"/>
<use xlink:href="#glyph-1-11" x="523.9489" y="495.5405"/>
<use xlink:href="#glyph-1-10" x="530.6179" y="495.5405"/>
<use xlink:href="#glyph-1-2" x="537.4219" y="495.5405"/>
<use xlink:href="#glyph-1-16" x="540.2749" y="495.5405"/>
<use xlink:href="#glyph-1-1" x="546.9529" y="495.5405"/>
<use xlink:href="#glyph-1-4" x="553.2439" y="495.5405"/>
<use xlink:href="#glyph-1-1" x="557.2309" y="495.5405"/>
<use xlink:href="#glyph-1-2" x="563.5219" y="495.5405"/>
<use xlink:href="#glyph-1-12" x="566.3749" y="495.5405"/>
<use xlink:href="#glyph-1-6" x="572.0359" y="495.5405"/>
<use xlink:href="#glyph-1-2" x="578.3359" y="495.5405"/>
<use xlink:href="#glyph-1-6" x="581.1889" y="495.5405"/>
<use xlink:href="#glyph-1-12" x="587.4889" y="495.5405"/>
</g>
<g fill="rgb(0%, 0%, 0%)" fill-opacity="1">
<use xlink:href="#glyph-1-10" x="593.041" y="495.5405"/>
</g>
<g fill="rgb(0%, 0%, 0%)" fill-opacity="1">
<use xlink:href="#glyph-1-19" x="599.602" y="495.5405"/>
</g>
<g fill="rgb(0%, 0%, 0%)" fill-opacity="1">
<use xlink:href="#glyph-2-0" x="866.5166" y="465.2803"/>
</g>
<g fill="rgb(0%, 0%, 0%)" fill-opacity="1">
<use xlink:href="#glyph-2-1" x="872.241085" y="465.2803"/>
<use xlink:href="#glyph-2-2" x="878.150515" y="465.2803"/>
</g>
<g fill="rgb(0%, 0%, 0%)" fill-opacity="1">
<use xlink:href="#glyph-2-3" x="881.409068" y="465.2803"/>
<use xlink:href="#glyph-2-4" x="886.40258" y="465.2803"/>
<use xlink:href="#glyph-2-5" x="888.53385" y="465.2803"/>
<use xlink:href="#glyph-2-6" x="894.707487" y="465.2803"/>
<use xlink:href="#glyph-2-1" x="900.431972" y="465.2803"/>
<use xlink:href="#glyph-2-3" x="906.341402" y="465.2803"/>
</g>
<g fill="rgb(0%, 0%, 0%)" fill-opacity="1">
<use xlink:href="#glyph-2-7" x="866.5166" y="475.346587"/>
<use xlink:href="#glyph-2-1" x="872.56694" y="475.346587"/>
</g>
<g fill="rgb(0%, 0%, 0%)" fill-opacity="1">
<use xlink:href="#glyph-2-8" x="866.5166" y="485.412873"/>
</g>
<g fill="rgb(0%, 0%, 0%)" fill-opacity="1">
<use xlink:href="#glyph-2-5" x="871.606108" y="485.412873"/>
<use xlink:href="#glyph-2-9" x="877.779744" y="485.412873"/>
<use xlink:href="#glyph-2-5" x="883.733209" y="485.412873"/>
</g>
<path fill="none" stroke-width="0.72" stroke-linecap="butt" stroke-linejoin="miter" stroke="rgb(11.399841%, 11.399841%, 10.598755%)" stroke-opacity="1" stroke-miterlimit="10" d="M -0.000575 -0.00146875 L 46.366613 -0.00146875 " transform="matrix(1, 0, 0, -1, 866.5162, 495.5415)"/>
<g fill="rgb(0%, 0%, 0%)" fill-opacity="1">
<use xlink:href="#glyph-3-0" x="358.8645" y="262.7451"/>
<use xlink:href="#glyph-3-1" x="363.495912" y="262.7451"/>
<use xlink:href="#glyph-3-2" x="368.127324" y="262.7451"/>
<use xlink:href="#glyph-3-3" x="372.758736" y="262.7451"/>
</g>
<g fill="rgb(0%, 0%, 0%)" fill-opacity="1">
<use xlink:href="#glyph-3-1" x="358.8645" y="272.607283"/>
<use xlink:href="#glyph-3-4" x="363.495912" y="272.607283"/>
<use xlink:href="#glyph-3-5" x="368.127324" y="272.607283"/>
<use xlink:href="#glyph-3-6" x="372.758736" y="272.607283"/>
<use xlink:href="#glyph-3-7" x="377.390148" y="272.607283"/>
<use xlink:href="#glyph-3-3" x="382.02156" y="272.607283"/>
</g>
<g fill="rgb(0%, 0%, 0%)" fill-opacity="1">
<use xlink:href="#glyph-3-0" x="358.8645" y="282.469466"/>
<use xlink:href="#glyph-3-2" x="363.495912" y="282.469466"/>
<use xlink:href="#glyph-3-8" x="368.127324" y="282.469466"/>
<use xlink:href="#glyph-3-1" x="372.758736" y="282.469466"/>
<use xlink:href="#glyph-3-3" x="377.390148" y="282.469466"/>
<use xlink:href="#glyph-3-8" x="382.02156" y="282.469466"/>
<use xlink:href="#glyph-3-9" x="386.652972" y="282.469466"/>
<use xlink:href="#glyph-3-10" x="391.284384" y="282.469466"/>
</g>
<path fill-rule="nonzero" fill="rgb(0%, 0%, 0%)" fill-opacity="1" d="M 162.714844 276.804688 C 162.714844 270.816406 165.160156 267.644531 170.523438 267.644531 C 175.105469 267.644531 178.332031 270.144531 178.332031 276.128906 L 178.332031 283.867188 L 182.496094 283.867188 L 182.496094 276.128906 C 182.496094 268.632812 179.058594 264.050781 171.980469 264.050781 C 169.328125 264.050781 165.941406 264.9375 164.585938 268.632812 L 162.714844 268.632812 L 162.714844 264.777344 L 158.550781 264.777344 L 158.550781 283.867188 L 162.714844 283.867188 Z M 162.714844 276.804688 "/>
<path fill-rule="nonzero" fill="rgb(0%, 0%, 0%)" fill-opacity="1" d="M 196.390625 268.425781 L 209.300781 268.425781 L 209.300781 264.777344 L 196.390625 264.777344 L 196.390625 256.972656 L 192.226562 256.972656 L 192.226562 263.113281 C 192.226562 264.417969 191.859375 264.777344 190.558594 264.777344 L 184.3125 264.777344 L 184.3125 268.425781 L 192.226562 268.425781 L 192.226562 283.867188 L 196.390625 283.867188 Z M 196.390625 268.425781 "/>
<path fill-rule="nonzero" fill="rgb(0%, 0%, 0%)" fill-opacity="1" d="M 227.253906 267.589844 C 231.835938 267.589844 234.855469 270.507812 235.480469 275.296875 L 219.136719 275.296875 C 219.757812 270.507812 222.78125 267.589844 227.253906 267.589844 M 218.976562 278.523438 L 239.800781 278.523438 L 239.800781 277.378906 C 239.800781 269.933594 235.6875 264.050781 227.253906 264.050781 C 218.976562 264.050781 214.8125 269.933594 214.8125 277.378906 L 214.8125 278.160156 C 214.8125 280.214844 215.140625 282.140625 215.765625 283.867188 L 220.246094 283.867188 C 219.476562 282.398438 219.035156 280.59375 218.976562 278.523438 "/>
<path fill-rule="nonzero" fill="rgb(0%, 0%, 0%)" fill-opacity="1" d="M 253.320312 278.003906 C 253.320312 271.234375 258.992188 267.070312 265.292969 268.996094 L 265.292969 264.3125 C 259.980469 263.269531 255.976562 267.277344 255.195312 270.144531 L 253.320312 270.144531 L 253.320312 264.777344 L 243.117188 264.777344 L 243.117188 268.421875 L 249.15625 268.421875 L 249.15625 283.867188 L 253.320312 283.867188 Z M 253.320312 278.003906 "/>
<path fill-rule="nonzero" fill="rgb(0%, 0%, 0%)" fill-opacity="1" d="M 274.886719 264.777344 L 270.199219 264.777344 L 276.460938 283.867188 L 280.964844 283.867188 Z M 274.886719 264.777344 "/>
<path fill-rule="nonzero" fill="rgb(0%, 0%, 0%)" fill-opacity="1" d="M 295.707031 264.777344 L 291.023438 264.777344 L 284.945312 283.867188 L 289.445312 283.867188 Z M 295.707031 264.777344 "/>
<path fill-rule="nonzero" fill="rgb(0%, 0%, 0%)" fill-opacity="1" d="M 304.398438 278.160156 L 304.398438 277.378906 C 304.398438 271.390625 307.628906 267.695312 312.726562 267.695312 C 317.933594 267.695312 320.953125 271.390625 320.953125 277.378906 L 320.953125 278.160156 C 320.953125 280.394531 320.53125 282.324219 319.730469 283.867188 L 325.117188 283.867188 L 325.117188 264.78125 L 320.953125 264.78125 L 320.953125 269.046875 L 319.078125 269.046875 C 318.714844 266.808594 316.628906 264.050781 311.894531 264.050781 C 304.65625 264.050781 300.128906 269.933594 300.128906 277.378906 L 300.128906 278.160156 C 300.128906 280.214844 300.480469 282.140625 301.125 283.867188 L 305.679688 283.867188 C 304.847656 282.324219 304.398438 280.394531 304.398438 278.160156 "/>
<path fill-rule="nonzero" fill="rgb(0%, 0%, 0%)" fill-opacity="1" d="M 240.042969 283.867188 L 235.675781 283.867188 L 235.675781 288.234375 L 240.042969 288.234375 Z M 240.042969 283.867188 "/>
<path fill-rule="nonzero" fill="rgb(0%, 0%, 0%)" fill-opacity="1" d="M 143.480469 256.972656 L 139.109375 256.972656 L 139.109375 283.867188 L 143.480469 283.867188 Z M 143.480469 256.972656 "/>
<path fill-rule="nonzero" fill="rgb(0%, 0%, 0%)" fill-opacity="1" d="M 147.851562 251.765625 L 143.480469 251.765625 L 143.480469 256.972656 L 147.851562 256.972656 Z M 147.851562 251.765625 "/>
<path fill-rule="nonzero" fill="rgb(0%, 0%, 0%)" fill-opacity="1" d="M 338 256.972656 L 342.371094 256.972656 L 342.371094 283.867188 L 338 283.867188 Z M 338 256.972656 "/>
<path fill-rule="nonzero" fill="rgb(0%, 0%, 0%)" fill-opacity="1" d="M 333.628906 251.765625 L 338 251.765625 L 338 256.972656 L 333.628906 256.972656 Z M 333.628906 251.765625 "/>
<path fill-rule="nonzero" fill="rgb(0%, 0%, 0%)" fill-opacity="1" d="M 601.269531 276.804688 C 601.269531 270.816406 603.71875 267.644531 609.082031 267.644531 C 613.660156 267.644531 616.890625 270.144531 616.890625 276.128906 L 616.890625 283.867188 L 621.054688 283.867188 L 621.054688 276.128906 C 621.054688 268.632812 617.617188 264.050781 610.539062 264.050781 C 607.882812 264.050781 604.5 264.9375 603.144531 268.632812 L 601.269531 268.632812 L 601.269531 264.777344 L 597.105469 264.777344 L 597.105469 283.867188 L 601.269531 283.867188 Z M 601.269531 276.804688 "/>
<path fill-rule="nonzero" fill="rgb(0%, 0%, 0%)" fill-opacity="1" d="M 634.945312 268.425781 L 647.855469 268.425781 L 647.855469 264.777344 L 634.945312 264.777344 L 634.945312 256.972656 L 630.78125 256.972656 L 630.78125 263.113281 C 630.78125 264.417969 630.417969 264.777344 629.113281 264.777344 L 622.867188 264.777344 L 622.867188 268.425781 L 630.78125 268.425781 L 630.78125 283.867188 L 634.945312 283.867188 Z M 634.945312 268.425781 "/>
<path fill-rule="nonzero" fill="rgb(0%, 0%, 0%)" fill-opacity="1" d="M 665.8125 267.589844 C 670.394531 267.589844 673.414062 270.507812 674.035156 275.296875 L 657.691406 275.296875 C 658.316406 270.507812 661.335938 267.589844 665.8125 267.589844 M 657.535156 278.523438 L 678.359375 278.523438 L 678.359375 277.378906 C 678.359375 269.933594 674.246094 264.050781 665.8125 264.050781 C 657.535156 264.050781 653.371094 269.933594 653.371094 277.378906 L 653.371094 278.160156 C 653.371094 280.214844 653.695312 282.140625 654.320312 283.867188 L 658.800781 283.867188 C 658.035156 282.398438 657.59375 280.59375 657.535156 278.523438 "/>
<path fill-rule="nonzero" fill="rgb(0%, 0%, 0%)" fill-opacity="1" d="M 691.875 278.003906 C 691.875 271.234375 697.550781 267.070312 703.847656 268.996094 L 703.847656 264.3125 C 698.539062 263.269531 694.53125 267.277344 693.75 270.144531 L 691.875 270.144531 L 691.875 264.777344 L 681.671875 264.777344 L 681.671875 268.421875 L 687.710938 268.421875 L 687.710938 283.867188 L 691.875 283.867188 Z M 691.875 278.003906 "/>
<path fill-rule="nonzero" fill="rgb(0%, 0%, 0%)" fill-opacity="1" d="M 713.441406 264.777344 L 708.757812 264.777344 L 715.015625 283.867188 L 719.519531 283.867188 Z M 713.441406 264.777344 "/>
<path fill-rule="nonzero" fill="rgb(0%, 0%, 0%)" fill-opacity="1" d="M 734.265625 264.777344 L 729.578125 264.777344 L 723.5 283.867188 L 728.003906 283.867188 Z M 734.265625 264.777344 "/>
<path fill-rule="nonzero" fill="rgb(0%, 0%, 0%)" fill-opacity="1" d="M 742.953125 278.160156 L 742.953125 277.378906 C 742.953125 271.390625 746.183594 267.695312 751.285156 267.695312 C 756.488281 267.695312 759.507812 271.390625 759.507812 277.378906 L 759.507812 278.160156 C 759.507812 280.394531 759.085938 282.324219 758.289062 283.867188 L 763.671875 283.867188 L 763.671875 264.78125 L 759.507812 264.78125 L 759.507812 269.046875 L 757.632812 269.046875 C 757.269531 266.808594 755.1875 264.050781 750.449219 264.050781 C 743.214844 264.050781 738.6875 269.933594 738.6875 277.378906 L 738.6875 278.160156 C 738.6875 280.214844 739.039062 282.140625 739.679688 283.867188 L 744.234375 283.867188 C 743.40625 282.324219 742.953125 280.394531 742.953125 278.160156 "/>
<path fill-rule="nonzero" fill="rgb(0%, 0%, 0%)" fill-opacity="1" d="M 678.597656 283.867188 L 674.230469 283.867188 L 674.230469 288.234375 L 678.597656 288.234375 Z M 678.597656 283.867188 "/>
<path fill-rule="nonzero" fill="rgb(0%, 0%, 0%)" fill-opacity="1" d="M 582.039062 256.972656 L 577.664062 256.972656 L 577.664062 283.867188 L 582.039062 283.867188 Z M 582.039062 256.972656 "/>
<path fill-rule="nonzero" fill="rgb(0%, 0%, 0%)" fill-opacity="1" d="M 586.410156 251.765625 L 582.039062 251.765625 L 582.039062 256.972656 L 586.410156 256.972656 Z M 586.410156 251.765625 "/>
<path fill-rule="nonzero" fill="rgb(0%, 0%, 0%)" fill-opacity="1" d="M 776.558594 256.972656 L 780.929688 256.972656 L 780.929688 283.867188 L 776.558594 283.867188 Z M 776.558594 256.972656 "/>
<path fill-rule="nonzero" fill="rgb(0%, 0%, 0%)" fill-opacity="1" d="M 772.183594 251.765625 L 776.558594 251.765625 L 776.558594 256.972656 L 772.183594 256.972656 Z M 772.183594 251.765625 "/>
</svg>
